SplineFontDB: 3.0
FontName: KlaudiaRegular
FullName: KlaudiaRegular
FamilyName: KlaudiaRegular
Weight: Regular
Copyright: wmk69 (wmk69@o2.pl)\nSIL Open Font License v.1.1
Version: 1.02
ItalicAngle: 0
UnderlinePosition: -81
UnderlineWidth: 122
Ascent: 1638
Descent: 410
LayerCount: 2
Layer: 0 1 "Warstwa t+AUIA-a"  1
Layer: 1 1 "Plan pierwszy"  0
XUID: [1021 783 23647091 10727182]
FSType: 0
OS2Version: 3
OS2_WeightWidthSlopeOnly: 0
OS2_UseTypoMetrics: 1
CreationTime: 1260698820
ModificationTime: 1305348745
PfmFamily: 33
TTFWeight: 500
TTFWidth: 5
LineGap: 0
VLineGap: 0
Panose: 2 13 6 3 2 4 4 6 2 4
OS2TypoAscent: 1991
OS2TypoAOffset: 0
OS2TypoDescent: -531
OS2TypoDOffset: 0
OS2TypoLinegap: 0
OS2WinAscent: 1991
OS2WinAOffset: 0
OS2WinDescent: 531
OS2WinDOffset: 0
HheadAscent: 1991
HheadAOffset: 0
HheadDescent: -531
HheadDOffset: 0
OS2SubXSize: 1434
OS2SubYSize: 1331
OS2SubXOff: 0
OS2SubYOff: 287
OS2SupXSize: 1434
OS2SupYSize: 1331
OS2SupXOff: 0
OS2SupYOff: 977
OS2StrikeYSize: 102
OS2StrikeYPos: 512
OS2Vendor: '    '
OS2CodePages: 20000093.00000000
OS2UnicodeRanges: 8000002f.4000204b.00000000.00000000
Lookup: 258 0 0 "'kern' Kerning poziomy w tablicy 0"  {"Podtablica 'kern' Kerning poziomy w tablicy 0"  } ['kern' ('DFLT' <'dflt' > 'grek' <'dflt' > 'latn' <'dflt' > ) ]
DEI: 91125
KernClass2: 20 16 "Podtablica 'kern' Kerning poziomy w tablicy 0" 
 79 A Agrave Aacute Acircumflex Atilde Adieresis Aring Amacron Abreve Aogonek Delta
 1 F
 43 K R Kcommaaccent Racute Rcommaaccent Rcaron
 40 L Lacute Lcommaaccent Lcaron Ldot Lslash
 34 T Tcommaaccent Tcaron Tbar uni021A
 1 V
 30 Y Yacute Ycircumflex Ydieresis
 108 a g h m n q u w y agrave ugrave aogonek hcircumflex ncommaaccent napostrophe eng uogonek wcircumflex uni01E5
 81 c e o p s ae ccedilla egrave ograve oslash thorn eogonek oe scedilla scommaaccent
 8 f florin
 27 k kcommaaccent kgreenlandic
 14 r rcommaaccent
 1 v
 1 x
 1 z

StartChar: .notdef
Encoding: 65536 -1 0
Width: 894
Flags: W
HStem: 0 118<268 626> 1393 118<268 626>
VStem: 150 118<118 1393> 626 118<118 1393>
LayerCount: 2
Fore
SplineSet
150 0 m 1,0,-1
 150 1511 l 1,1,-1
 744 1511 l 1,2,-1
 744 0 l 1,3,-1
 150 0 l 1,0,-1
268 1393 m 1,4,-1
 268 118 l 1,5,-1
 626 118 l 1,6,-1
 626 1393 l 1,7,-1
 268 1393 l 1,4,-1
EndSplineSet
Validated: 1
EndChar

StartChar: exclam
Encoding: 33 33 4
Width: 742
GlyphClass: 2
Flags: W
HStem: -20 255<282.129 458.809> 1491 20G<271 471>
VStem: 245 252<19.1599 195.84> 271 200<353 1511>
LayerCount: 2
Fore
SplineSet
497 102 m 0,0,1
 497 54 497 54 461 16 c 0,2,3
 428 -20 428 -20 371 -20 c 0,4,5
 317 -20 317 -20 281 18 c 0,6,7
 245 55 245 55 245 107 c 0,8,9
 245 160 245 160 281 197 c 0,10,11
 317 235 317 235 371 235 c 0,12,13
 422 235 422 235 460 198 c 1,14,15
 497 160 497 160 497 102 c 0,0,1
271 353 m 1,16,-1
 271 1511 l 1,17,-1
 471 1511 l 1,18,-1
 471 353 l 1,19,-1
 271 353 l 1,16,-1
EndSplineSet
Validated: 1
EndChar

StartChar: quotedbl
Encoding: 34 34 5
Width: 816
GlyphClass: 2
Flags: W
HStem: 994 517<200 350 466 616>
VStem: 200 150<994 1511> 466 150<994 1511>
LayerCount: 2
Fore
SplineSet
466 994 m 1,0,-1
 466 1511 l 1,1,-1
 616 1511 l 1,2,-1
 616 994 l 1,3,-1
 466 994 l 1,0,-1
200 994 m 1,4,-1
 200 1511 l 1,5,-1
 350 1511 l 1,6,-1
 350 994 l 1,7,-1
 200 994 l 1,4,-1
EndSplineSet
Validated: 1
EndChar

StartChar: numbersign
Encoding: 35 35 6
Width: 1483
GlyphClass: 2
Flags: W
HStem: 516 150<150 490 640 844 994 1333> 870 150<150 490 640 844 994 1333>
VStem: 490 150<176 516 666 870 1020 1360> 844 150<176 516 666 870 1020 1360>
LayerCount: 2
Fore
SplineSet
490 176 m 1,0,-1
 490 516 l 1,1,-1
 150 516 l 1,2,-1
 150 666 l 1,3,-1
 490 666 l 1,4,-1
 490 870 l 1,5,-1
 150 870 l 1,6,-1
 150 1020 l 1,7,-1
 490 1020 l 1,8,-1
 490 1360 l 1,9,-1
 640 1360 l 1,10,-1
 640 1020 l 1,11,-1
 844 1020 l 1,12,-1
 844 1360 l 1,13,-1
 994 1360 l 1,14,-1
 994 1020 l 1,15,-1
 1333 1020 l 1,16,-1
 1333 870 l 1,17,-1
 994 870 l 1,18,-1
 994 666 l 1,19,-1
 1333 666 l 1,20,-1
 1333 516 l 1,21,-1
 994 516 l 1,22,-1
 994 176 l 1,23,-1
 844 176 l 1,24,-1
 844 516 l 1,25,-1
 640 516 l 1,26,-1
 640 176 l 1,27,-1
 490 176 l 1,0,-1
640 666 m 1,28,-1
 844 666 l 1,29,-1
 844 870 l 1,30,-1
 640 870 l 1,31,-1
 640 666 l 1,28,-1
EndSplineSet
Validated: 1
EndChar

StartChar: dollar
Encoding: 36 36 7
Width: 1511
GlyphClass: 2
Flags: W
HStem: -20 123<451.147 656>
VStem: 300 187<1059.48 1266.46> 656 200<-190 -20 123 765 1008 1392 1531 1691> 1206 205<414.512 676.421>
DStem2: 610 1018 576 819 0.979766 -0.200147<-109.177 47.0707 291.66 639.68> 1169 1413 979 1363 0.784046 -0.620703<-223.087 -14.5702>
LayerCount: 2
Fore
SplineSet
1090 714 m 0,0,1
 1037 729 1037 729 856 765 c 1,2,-1
 856 123 l 1,3,4
 882 135 882 135 902 147 c 0,5,6
 1084 257 1084 257 1158 407 c 0,7,8
 1206 506 1206 506 1206 576 c 0,9,10
 1206 588 1206 588 1204 601 c 0,11,12
 1192 685 1192 685 1090 714 c 0,0,1
97 240 m 2,13,-1
 80 263 l 1,14,-1
 237 350 l 1,15,-1
 249 328 l 1,16,17
 303 233 303 233 405 171 c 0,18,19
 517 103 517 103 646 103 c 2,20,-1
 656 103 l 1,21,-1
 656 803 l 1,22,-1
 576 819 l 2,23,24
 451 844 451 844 381 913 c 0,25,26
 300 993 300 993 300 1082 c 0,27,28
 300 1200 300 1200 348 1271 c 0,29,30
 446 1416 446 1416 582 1476 c 0,31,32
 618 1492 618 1492 656 1504 c 1,33,-1
 656 1691 l 1,34,-1
 856 1691 l 1,35,-1
 856 1531 l 1,36,37
 967 1527 967 1527 1046 1489 c 0,38,39
 1119 1454 1119 1454 1169 1413 c 1,40,-1
 1193 1394 l 1,41,-1
 1057 1295 l 1,42,-1
 1042 1311 l 2,43,44
 1015 1339 1015 1339 979 1363 c 0,45,46
 925 1399 925 1399 856 1407 c 1,47,-1
 856 960 l 1,48,49
 1026 930 1026 930 1138 899 c 1,50,51
 1277 859 1277 859 1340 788 c 0,52,53
 1411 707 1411 707 1411 607 c 2,54,-1
 1411 597 l 2,55,56
 1411 466 1411 466 1325 330 c 1,57,58
 1226 171 1226 171 982 47 c 0,59,60
 922 17 922 17 856 0 c 1,61,-1
 856 -190 l 1,62,-1
 656 -190 l 1,63,-1
 656 -20 l 1,64,65
 650 -20 650 -20 632 -20 c 0,66,67
 461 -16 461 -16 353 36 c 0,68,69
 223 99 223 99 137 192 c 0,70,71
 116 214 116 214 97 240 c 2,13,-1
656 1008 m 1,72,-1
 656 1392 l 1,73,74
 574 1344 574 1344 528 1274 c 0,75,76
 487 1213 487 1213 487 1159 c 0,77,78
 487 1153 487 1153 488 1148 c 0,79,80
 502 1047 502 1047 610 1018 c 0,81,82
 625 1014 625 1014 656 1008 c 1,72,-1
EndSplineSet
Validated: 1
EndChar

StartChar: percent
Encoding: 37 37 8
Width: 1838
GlyphClass: 2
Flags: W
HStem: 0 117<1176.5 1419.05> 493 123<1209.17 1448.53> 895 118<390.473 636.188> 1388 123<423.171 662.497>
VStem: 150 188<1050.6 1293.92> 395 207<0 207> 715 187<1160.44 1349.36> 936 188<155.641 399.021> 1239 207<1304 1511> 1501 187<209.535 452.949>
DStem2: 395 0 602 0 0.487653 0.873038<100.944 1730.74>
LayerCount: 2
Fore
SplineSet
1446 1511 m 1,0,-1
 602 0 l 1,1,-1
 395 0 l 1,2,-1
 1239 1511 l 1,3,-1
 1446 1511 l 1,0,-1
1688 350 m 0,4,5
 1688 308 1688 308 1668 259 c 0,6,7
 1637 181 1637 181 1573 119 c 0,8,9
 1555 102 1555 102 1505 66 c 0,10,11
 1411 0 1411 0 1259 0 c 2,12,13
 1259 0 1259 0 1255 0 c 0,14,15
 1144 0 1144 0 1076 38 c 0,16,17
 994 84 994 84 960 151 c 0,18,19
 936 200 936 200 936 253 c 0,20,21
 936 302 936 302 957 352 c 0,22,23
 990 431 990 431 1052 492 c 1,24,25
 1077 515 1077 515 1121 544 c 0,26,27
 1228 616 1228 616 1365 616 c 2,28,29
 1365 616 1365 616 1369 616 c 0,30,31
 1470 616 1470 616 1548 572 c 1,32,33
 1632 526 1632 526 1665 459 c 0,34,35
 1688 411 1688 411 1688 350 c 0,4,5
1174 418 m 0,36,37
 1124 360 1124 360 1124 267 c 2,38,39
 1124 267 1124 267 1124 259 c 0,40,41
 1124 187 1124 187 1175 151 c 0,42,43
 1223 117 1223 117 1284 117 c 0,44,45
 1297 117 1297 117 1309 119 c 0,46,47
 1404 131 1404 131 1450 191 c 0,48,49
 1501 257 1501 257 1501 347 c 2,50,-1
 1501 350 l 1,51,52
 1500 423 1500 423 1450 459 c 0,53,54
 1403 493 1403 493 1343 493 c 0,55,56
 1330 493 1330 493 1315 491 c 0,57,58
 1229 481 1229 481 1174 418 c 0,36,37
902 1245 m 0,59,60
 902 1203 902 1203 882 1154 c 0,61,62
 851 1076 851 1076 787 1014 c 0,63,64
 769 997 769 997 719 961 c 0,65,66
 625 895 625 895 473 895 c 2,67,68
 473 895 473 895 469 895 c 0,69,70
 358 895 358 895 290 933 c 0,71,72
 208 979 208 979 174 1046 c 0,73,74
 150 1095 150 1095 150 1148 c 0,75,76
 150 1197 150 1197 171 1247 c 0,77,78
 204 1326 204 1326 266 1387 c 1,79,80
 291 1410 291 1410 335 1439 c 0,81,82
 442 1511 442 1511 579 1511 c 2,83,-1
 583 1511 l 1,84,85
 685 1510 685 1510 762 1467 c 1,86,87
 846 1422 846 1422 879 1354 c 0,88,89
 902 1305 902 1305 902 1245 c 0,59,60
388 1313 m 1,90,91
 338 1255 338 1255 338 1158 c 2,92,93
 338 1158 338 1158 338 1155 c 0,94,95
 338 1081 338 1081 389 1046 c 0,96,97
 436 1013 436 1013 500 1013 c 0,98,99
 512 1013 512 1013 525 1014 c 0,100,101
 613 1020 613 1020 664 1086 c 256,102,103
 715 1152 715 1152 715 1242 c 2,104,105
 715 1242 715 1242 715 1246 c 0,106,107
 715 1318 715 1318 664 1354 c 0,108,109
 616 1388 616 1388 555 1388 c 0,110,111
 541 1388 541 1388 530 1386 c 0,112,113
 444 1374 444 1374 388 1313 c 1,90,91
EndSplineSet
Validated: 1
EndChar

StartChar: ampersand
Encoding: 38 38 9
Width: 1712
GlyphClass: 2
Flags: W
HStem: -20 129<490.627 859.098> 0 21G<1344.69 1612> 1408 123<650.894 901.135>
VStem: 150 199<254.885 646.744> 377 188<1060.07 1313.33> 1316 204<597.547 988.587>
DStem2: 856 1020 690 930 0.595454 -0.80339<0 650.405 868.143 966.209>
LayerCount: 2
Fore
SplineSet
1352 352 m 1,0,-1
 1612 0 l 1,1,-1
 1359 0 l 1,2,-1
 1213 204 l 1,3,4
 1119 120 1119 120 991 56 c 0,5,6
 841 -20 841 -20 661 -20 c 2,7,-1
 647 -20 l 2,8,9
 526 -20 526 -20 439 17 c 0,10,11
 339 59 339 59 277 118 c 0,12,13
 213 179 213 179 183 249 c 0,14,15
 156 311 156 311 151 406 c 0,16,17
 150 425 150 425 150 459 c 0,18,19
 150 501 150 501 162 552 c 0,20,21
 190 677 190 677 285 787 c 0,22,23
 382 900 382 900 503 956 c 1,24,25
 432 1000 432 1000 401 1062 c 0,26,27
 377 1111 377 1111 377 1165 c 0,28,29
 377 1214 377 1214 398 1265 c 0,30,31
 432 1348 432 1348 493 1406 c 0,32,33
 518 1429 518 1429 562 1459 c 0,34,35
 669 1531 669 1531 806 1531 c 2,36,-1
 810 1531 l 1,37,38
 907 1530 907 1530 989 1486 c 0,39,40
 1026 1466 1026 1466 1055 1438 c 2,41,-1
 1079 1415 l 1,42,-1
 929 1329 l 1,43,-1
 916 1347 l 2,44,45
 906 1360 906 1360 891 1372 c 0,46,47
 844 1408 844 1408 782 1408 c 0,48,49
 768 1408 768 1408 757 1406 c 0,50,51
 671 1394 671 1394 615 1331 c 1,52,53
 565 1271 565 1271 565 1171 c 2,54,-1
 565 1168 l 2,55,56
 565 1094 565 1094 616 1055 c 1,57,58
 656 1026 656 1026 755 1023 c 0,59,60
 808 1021 808 1021 844 1020 c 1,61,-1
 856 1020 l 1,62,-1
 1244 498 l 1,63,64
 1286 589 1286 589 1303 682 c 0,65,66
 1316 751 1316 751 1316 811 c 2,67,-1
 1316 823 l 2,68,69
 1316 827 1316 827 1316 831 c 0,70,71
 1316 850 1316 850 1312 875 c 0,72,73
 1299 954 1299 954 1270 1000 c 0,74,75
 1238 1052 1238 1052 1193 1088 c 0,76,77
 1156 1118 1156 1118 1149 1120 c 1,78,79
 1168 1123 1168 1123 1192 1121 c 0,80,81
 1324 1112 1324 1112 1400 1062 c 0,82,83
 1506 993 1506 993 1518 871 c 0,84,85
 1520 849 1520 849 1520 811 c 0,86,87
 1520 742 1520 742 1488 635 c 0,88,89
 1443 484 1443 484 1352 352 c 1,0,-1
889 165 m 0,90,91
 1035 229 1035 229 1126 325 c 1,92,-1
 690 930 l 1,93,94
 656 923 656 923 626 908 c 0,95,96
 497 847 497 847 421 731 c 0,97,98
 372 656 372 656 355 555 c 0,99,100
 349 521 349 521 349 477 c 0,101,102
 349 452 349 452 351 418 c 0,103,104
 357 320 357 320 388 264 c 0,105,106
 432 184 432 184 501 147 c 0,107,108
 572 109 572 109 678 109 c 0,109,110
 762 109 762 109 889 165 c 0,90,91
EndSplineSet
Validated: 1
EndChar

StartChar: quotesingle
Encoding: 39 39 10
Width: 550
GlyphClass: 2
Flags: W
HStem: 994 517<200 350>
VStem: 200 150<994 1511>
LayerCount: 2
Fore
SplineSet
200 994 m 1,0,-1
 200 1511 l 1,1,-1
 350 1511 l 1,2,-1
 350 994 l 1,3,-1
 200 994 l 1,0,-1
EndSplineSet
Validated: 1
EndChar

StartChar: parenleft
Encoding: 40 40 11
Width: 850
GlyphClass: 2
Flags: W
VStem: 200 199<378.536 1147.58>
LayerCount: 2
Fore
SplineSet
700 -267 m 1,0,-1
 544 -267 l 1,1,-1
 537 -257 l 1,2,3
 478 -170 478 -170 391 -18 c 0,4,5
 310 123 310 123 268 283 c 0,6,7
 200 536 200 536 200 765.5 c 128,-1,8
 200 995 200 995 268 1245 c 0,9,10
 310 1399 310 1399 391 1552 c 0,11,12
 454 1670 454 1670 534 1786 c 1,13,-1
 542 1797 l 1,14,-1
 696 1797 l 1,15,-1
 686 1780 l 1,16,17
 612 1659 612 1659 552 1515 c 0,18,19
 481 1342 481 1342 443 1197 c 0,20,21
 399 1026 399 1026 399 788 c 2,22,-1
 399 767 l 2,23,24
 399 492 399 492 443 331 c 0,25,26
 491 159 491 159 552 18 c 0,27,28
 614 -123 614 -123 690 -250 c 1,29,-1
 700 -267 l 1,0,-1
EndSplineSet
Validated: 1
EndChar

StartChar: parenright
Encoding: 41 41 12
Width: 850
GlyphClass: 2
Flags: W
VStem: 451 199<378.536 1147.58>
DStem2: 309 1797 154 1797 0.50702 -0.861934<0 388.246>
LayerCount: 2
Fore
SplineSet
150 -267 m 1,0,-1
 160 -250 l 1,1,2
 236 -123 236 -123 298 18 c 0,3,4
 359 159 359 159 407 331 c 0,5,6
 451 492 451 492 451 767 c 2,7,-1
 451 788 l 2,8,9
 451 1026 451 1026 407 1197 c 0,10,11
 369 1342 369 1342 298 1515 c 0,12,13
 238 1659 238 1659 164 1780 c 1,14,-1
 154 1797 l 1,15,-1
 309 1797 l 1,16,-1
 316 1786 l 1,17,18
 396 1670 396 1670 459 1552 c 0,19,20
 540 1399 540 1399 582 1245 c 0,21,22
 650 995 650 995 650 765.5 c 128,-1,23
 650 536 650 536 582 283 c 0,24,25
 540 123 540 123 459 -18 c 0,26,27
 372 -170 372 -170 313 -257 c 1,28,-1
 306 -267 l 1,29,-1
 150 -267 l 1,0,-1
EndSplineSet
Validated: 1
EndChar

StartChar: asterisk
Encoding: 42 42 13
Width: 1139
GlyphClass: 2
Flags: W
HStem: 1491 20G<495 645>
VStem: 495 150<678 990 1235 1511>
DStem2: 225 1373 150 1257 0.881617 -0.471965<0 303.168 551.042 861.823> 150 964 225 834 0.881617 0.471965<4.76581 316.429 564.303 866.589>
LayerCount: 2
Fore
SplineSet
495 678 m 1,0,-1
 495 990 l 1,1,-1
 225 834 l 1,2,-1
 150 964 l 1,3,-1
 432 1114 l 1,4,-1
 150 1257 l 1,5,-1
 225 1373 l 1,6,-1
 495 1235 l 1,7,-1
 495 1511 l 1,8,-1
 645 1511 l 1,9,-1
 645 1235 l 1,10,-1
 914 1373 l 1,11,-1
 989 1257 l 1,12,-1
 706 1114 l 1,13,-1
 989 964 l 1,14,-1
 914 834 l 1,15,-1
 645 990 l 1,16,-1
 645 678 l 1,17,-1
 495 678 l 1,0,-1
EndSplineSet
Validated: 1
EndChar

StartChar: plus
Encoding: 43 43 14
Width: 1183
GlyphClass: 2
Flags: W
HStem: 693 150<150 516 666 1033>
VStem: 516 150<326 693 843 1185>
LayerCount: 2
Fore
SplineSet
516 326 m 1,0,-1
 516 693 l 1,1,-1
 150 693 l 1,2,-1
 150 843 l 1,3,-1
 516 843 l 1,4,-1
 516 1185 l 1,5,-1
 666 1185 l 1,6,-1
 666 843 l 1,7,-1
 1033 843 l 1,8,-1
 1033 693 l 1,9,-1
 666 693 l 1,10,-1
 666 326 l 1,11,-1
 516 326 l 1,0,-1
EndSplineSet
Validated: 1
EndChar

StartChar: comma
Encoding: 44 44 15
Width: 610
GlyphClass: 2
Flags: W
HStem: -366 656
VStem: 275 185<-180.781 75.4919>
LayerCount: 2
Fore
SplineSet
314 290 m 1,0,-1
 331 272 l 1,1,2
 366 231 366 231 382 208 c 0,3,4
 460 96 460 96 460 -25 c 0,5,6
 460 -158 460 -158 344 -274 c 0,7,8
 279 -338 279 -338 261 -352 c 2,9,-1
 243 -366 l 1,10,-1
 150 -265 l 1,11,-1
 167 -248 l 2,12,13
 205 -211 205 -211 218 -198 c 0,14,15
 275 -136 275 -136 275 -51 c 2,16,-1
 275 -48 l 2,17,18
 275 36 275 36 199 116 c 1,19,-1
 158 156 l 1,20,-1
 314 290 l 1,0,-1
EndSplineSet
Validated: 1
EndChar

StartChar: hyphen
Encoding: 45 45 16
Width: 1183
GlyphClass: 2
Flags: W
HStem: 693 150<150 1033>
LayerCount: 2
Fore
SplineSet
1033 693 m 1,0,-1
 150 693 l 1,1,-1
 150 843 l 1,2,-1
 1033 843 l 1,3,-1
 1033 693 l 1,0,-1
EndSplineSet
Validated: 1
EndChar

StartChar: period
Encoding: 46 46 17
Width: 552
GlyphClass: 2
Flags: W
HStem: -20 255<187.129 363.809>
VStem: 150 252<19.1599 195.84>
LayerCount: 2
Fore
SplineSet
402 102 m 0,0,1
 402 54 402 54 366 16 c 0,2,3
 333 -20 333 -20 276 -20 c 0,4,5
 222 -20 222 -20 186 18 c 0,6,7
 150 55 150 55 150 107 c 0,8,9
 150 160 150 160 186 197 c 0,10,11
 222 235 222 235 276 235 c 0,12,13
 327 235 327 235 365 198 c 1,14,15
 402 160 402 160 402 102 c 0,0,1
EndSplineSet
Validated: 1
EndChar

StartChar: slash
Encoding: 47 47 18
Width: 1181
GlyphClass: 2
Flags: W
VStem: 0 206<-183 23> 975 206<1481 1687>
DStem2: 0 -183 206 -183 0.462323 0.886712<95.2385 2108.92>
LayerCount: 2
Fore
SplineSet
1181 1687 m 1,0,-1
 206 -183 l 1,1,-1
 0 -183 l 1,2,-1
 975 1687 l 1,3,-1
 1181 1687 l 1,0,-1
EndSplineSet
Validated: 1
EndChar

StartChar: zero
Encoding: 48 48 19
Width: 1739
GlyphClass: 2
Flags: W
HStem: -20 123<580.797 994.797> 1407 124<735.871 1161.58>
VStem: 100 201<402.482 930.937> 1436 203<584.567 1107.23>
LayerCount: 2
Fore
SplineSet
971 1531 m 1,0,1
 1138 1530 1138 1530 1252 1476 c 0,2,3
 1385 1414 1385 1414 1469 1325 c 0,4,5
 1554 1234 1554 1234 1594 1131 c 1,6,7
 1626 1052 1626 1052 1637 900 c 0,8,9
 1639 869 1639 869 1639 844 c 0,10,11
 1638 759 1638 759 1623 683 c 0,12,13
 1588 512 1588 512 1458 334 c 0,14,15
 1335 164 1335 164 1111 56 c 1,16,17
 960 -20 960 -20 788 -20 c 2,18,19
 788 -20 788 -20 767 -20 c 0,20,21
 603 -20 603 -20 487 35 c 0,22,23
 351 99 351 99 271 185 c 1,24,25
 184 276 184 276 144 379 c 1,26,27
 112 458 112 458 102 610 c 0,28,29
 100 644 100 644 100 668 c 0,30,31
 101 752 101 752 115 827 c 0,32,33
 151 1009 151 1009 281 1176 c 0,34,35
 436 1376 436 1376 628 1456 c 1,36,37
 802 1531 802 1531 967 1531 c 2,38,-1
 971 1531 l 1,0,1
955 1407 m 0,39,40
 819 1403 819 1403 715 1354 c 0,41,42
 532 1266 532 1266 410 1088 c 0,43,44
 345 992 345 992 311 813 c 0,45,46
 301 763 301 763 301 696 c 0,47,48
 301 654 301 654 305 605 c 0,49,50
 317 460 317 460 362 360 c 0,51,52
 417 239 417 239 538 169 c 0,53,54
 651 103 651 103 776 103 c 2,55,56
 776 103 776 103 793 103 c 0,57,58
 904 103 904 103 1022 158 c 0,59,60
 1210 246 1210 246 1326 424 c 0,61,62
 1404 544 1404 544 1425 698 c 0,63,64
 1436 775 1436 775 1436 821 c 0,65,66
 1436 865 1436 865 1432 907 c 0,67,68
 1418 1055 1418 1055 1374 1152 c 0,69,70
 1320 1269 1320 1269 1198 1343 c 0,71,72
 1093 1407 1093 1407 977 1407 c 2,73,74
 977 1407 977 1407 955 1407 c 0,39,40
EndSplineSet
Validated: 1
EndChar

StartChar: one
Encoding: 49 49 20
Width: 705
GlyphClass: 2
Flags: W
HStem: 0 21G<255 455> 1361 150<5 255>
VStem: 255 200<0 1361>
LayerCount: 2
Fore
SplineSet
255 0 m 1,0,-1
 255 1361 l 1,1,-1
 5 1361 l 1,2,-1
 5 1511 l 1,3,-1
 455 1511 l 1,4,-1
 455 0 l 1,5,-1
 255 0 l 1,0,-1
EndSplineSet
Validated: 1
EndChar

StartChar: two
Encoding: 50 50 21
Width: 1363
GlyphClass: 2
Flags: W
HStem: 0 150<294 1212> 1407 124<520.173 850.766>
VStem: 1007 206<865.014 1241.46>
LayerCount: 2
Fore
SplineSet
1212 0 m 1,0,-1
 161 0 l 1,1,-1
 154 10 l 1,2,3
 120 54 120 54 120 103 c 0,4,5
 120 179 120 179 197 262 c 0,6,7
 341 417 341 417 555 541 c 0,8,9
 773 667 773 667 887 767 c 0,10,11
 953 824 953 824 983 915 c 0,12,13
 1007 986 1007 986 1007 1055 c 2,14,-1
 1007 1060 l 2,15,16
 1007 1140 1007 1140 969 1229 c 0,17,18
 936 1305 936 1305 853 1361 c 0,19,20
 784 1407 784 1407 690 1407 c 2,21,22
 690 1407 690 1407 682 1407 c 0,23,24
 607 1407 607 1407 540 1373 c 0,25,26
 411 1306 411 1306 336 1175 c 1,27,28
 318 1146 318 1146 305 1111 c 2,29,-1
 295 1084 l 1,30,-1
 140 1169 l 1,31,-1
 152 1191 l 2,32,33
 170 1224 170 1224 198 1261 c 0,34,35
 313 1412 313 1412 456 1475 c 0,36,37
 585 1531 585 1531 707 1531 c 2,38,-1
 711 1531 l 1,39,40
 835 1530 835 1530 920 1488 c 1,41,42
 1021 1441 1021 1441 1081 1377 c 0,43,44
 1141 1314 1141 1314 1175 1234 c 0,45,46
 1213 1146 1213 1146 1213 1043 c 0,47,48
 1213 935 1213 935 1179 865 c 0,49,50
 1117 738 1117 738 1003 653 c 0,51,52
 837 529 837 529 652 429 c 1,53,54
 442 314 442 314 301 158 c 0,55,56
 297 154 297 154 294 150 c 1,57,-1
 1212 150 l 1,58,-1
 1212 0 l 1,0,-1
EndSplineSet
Validated: 1
EndChar

StartChar: three
Encoding: 51 51 22
Width: 1376
GlyphClass: 2
Flags: W
HStem: -20 116<435.016 765.583> 914 119<620 794.197> 1408 123<585.889 821.497>
VStem: 874 188<1122.88 1368.4> 1027 199<357.22 762.363>
LayerCount: 2
Fore
SplineSet
100 301 m 1,0,-1
 287 370 l 1,1,-1
 293 342 l 1,2,3
 302 305 302 305 321 262 c 0,4,5
 356 184 356 184 435 140 c 1,6,7
 517 96 517 96 594 96 c 2,8,-1
 604 96 l 2,9,10
 654 96 654 96 745 132 c 0,11,12
 879 185 879 185 955 298 c 0,13,14
 1003 370 1003 370 1021 470 c 0,15,16
 1027 501 1027 501 1027 544 c 0,17,18
 1027 569 1027 569 1025 602 c 0,19,20
 1020 683 1020 683 987 754 c 0,21,22
 954 824 954 824 872 873 c 0,23,24
 803 914 803 914 709 914 c 2,25,-1
 700 914 l 2,26,27
 673 914 673 914 649 910 c 2,28,-1
 620 906 l 1,29,-1
 620 1034 l 1,30,-1
 646 1033 l 2,31,32
 653 1033 653 1033 659 1033 c 0,33,34
 672 1033 672 1033 683 1034 c 0,35,36
 774 1043 774 1043 823 1106 c 0,37,38
 874 1172 874 1172 874 1262 c 2,39,-1
 874 1265 l 2,40,41
 874 1338 874 1338 823 1374 c 0,42,43
 775 1408 775 1408 714 1408 c 0,44,45
 701 1408 701 1408 689 1406 c 0,46,47
 600 1394 600 1394 547 1328 c 0,48,49
 528 1304 528 1304 516 1275 c 2,50,-1
 505 1247 l 1,51,-1
 367 1330 l 1,52,-1
 383 1353 l 2,53,54
 398 1374 398 1374 425 1402 c 1,55,56
 450 1426 450 1426 494 1457 c 0,57,58
 601 1531 601 1531 738 1531 c 2,59,-1
 742 1531 l 1,60,61
 844 1530 844 1530 921 1487 c 0,62,63
 1003 1442 1003 1442 1038 1373 c 0,64,65
 1062 1324 1062 1324 1062 1270 c 0,66,67
 1062 1221 1062 1221 1041 1170 c 0,68,69
 1009 1092 1009 1092 946 1029 c 0,70,71
 932 1016 932 1016 906 997 c 1,72,73
 922 992 922 992 937 986 c 0,74,75
 1038 943 1038 943 1099 885 c 1,76,77
 1164 821 1164 821 1193 754 c 0,78,79
 1220 691 1220 691 1225 596 c 0,80,81
 1226 578 1226 578 1226 545 c 0,82,83
 1226 502 1226 502 1214 451 c 0,84,85
 1189 337 1189 337 1092 216 c 0,86,87
 1001 103 1001 103 834 30 c 0,88,89
 722 -20 722 -20 593 -20 c 2,90,-1
 579 -20 l 2,91,92
 449 -20 449 -20 371 18 c 0,93,94
 266 70 266 70 218 121 c 1,95,96
 154 186 154 186 117 258 c 0,97,98
 107 277 107 277 100 301 c 1,0,-1
EndSplineSet
Validated: 1
EndChar

StartChar: four
Encoding: 52 52 23
Width: 1349
GlyphClass: 2
Flags: W
HStem: 0 21G<899 1099> 293 150<288 899> 1491 20G<911 1099>
VStem: 899 200<0 293 443 1365>
LayerCount: 2
Fore
SplineSet
1099 1511 m 1,0,-1
 1099 0 l 1,1,-1
 899 0 l 1,2,-1
 899 293 l 1,3,-1
 80 293 l 1,4,-1
 83 320 l 1,5,6
 105 497 105 497 171 662 c 0,7,8
 253 867 253 867 416 1071 c 1,9,10
 526 1207 526 1207 674 1332 c 0,11,12
 801 1438 801 1438 911 1507 c 1,13,-1
 917 1511 l 1,14,-1
 1099 1511 l 1,0,-1
899 443 m 1,15,-1
 899 1365 l 1,16,17
 794 1280 794 1280 657 1127 c 0,18,19
 508 962 508 962 404 764 c 0,20,21
 316 597 316 597 288 443 c 1,22,-1
 899 443 l 1,15,-1
EndSplineSet
Validated: 1
EndChar

StartChar: five
Encoding: 53 53 24
Width: 1377
GlyphClass: 2
Flags: W
HStem: -20 116<436.732 766.584> 914 117<535.036 877.246> 1361 150<525 1090>
VStem: 1029 198<361.812 760.516>
DStem2: 232 787 460 970 0.158203 0.987407<216.766 613.125>
LayerCount: 2
Fore
SplineSet
100 301 m 1,0,-1
 288 370 l 1,1,-1
 294 343 l 2,2,3
 304 302 304 302 322 262 c 0,4,5
 358 184 358 184 436 140 c 1,6,7
 518 96 518 96 595 96 c 2,8,-1
 605 96 l 2,9,10
 655 96 655 96 746 132 c 0,11,12
 881 186 881 186 956 298 c 0,13,14
 1002 368 1002 368 1023 470 c 0,15,16
 1029 504 1029 504 1029 545 c 0,17,18
 1029 573 1029 573 1026 601 c 0,19,20
 1017 693 1017 693 988 754 c 0,21,22
 955 824 955 824 873 873 c 0,23,24
 804 914 804 914 710 914 c 2,25,26
 710 914 710 914 701 914 c 0,27,28
 623 914 623 914 559 883 c 0,29,30
 486 848 486 848 428 794 c 1,31,-1
 421 787 l 1,32,-1
 232 787 l 1,33,-1
 348 1511 l 1,34,-1
 1090 1511 l 1,35,-1
 1090 1361 l 1,36,-1
 525 1361 l 1,37,-1
 460 970 l 1,38,-1
 467 973 l 1,39,40
 585 1031 585 1031 724 1031 c 2,41,-1
 730 1031 l 2,42,43
 851 1031 851 1031 938 994 c 0,44,45
 1039 951 1039 951 1100 892 c 0,46,47
 1165 829 1165 829 1194 760 c 0,48,49
 1221 697 1221 697 1226 602 c 0,50,51
 1227 583 1227 583 1227 563 c 2,52,53
 1227 563 1227 563 1227 555 c 0,54,55
 1227 505 1227 505 1215 454 c 0,56,57
 1188 336 1188 336 1093 218 c 0,58,59
 1000 103 1000 103 835 30 c 0,60,61
 722 -20 722 -20 594 -20 c 2,62,63
 594 -20 594 -20 580 -20 c 0,64,65
 461 -20 461 -20 372 18 c 0,66,67
 272 61 272 61 210 122 c 1,68,69
 140 193 140 193 116 258 c 2,70,-1
 100 301 l 1,0,-1
EndSplineSet
Validated: 1
EndChar

StartChar: six
Encoding: 54 54 25
Width: 1493
GlyphClass: 2
Flags: W
HStem: -20 119<545.145 882.022> 910 121<647.665 990.17> 1407 124<785.482 1109.78>
VStem: 150 244<350.347 795.389> 1144 199<359.501 757.16>
LayerCount: 2
Fore
SplineSet
1202 1512 m 1,0,-1
 1110 1398 l 1,1,-1
 1096 1400 l 1,2,3
 1055 1407 1055 1407 1010 1407 c 2,4,-1
 989 1407 l 2,5,6
 880 1407 880 1407 768 1355 c 0,7,8
 587 1271 587 1271 464 1096 c 1,9,10
 401 1002 401 1002 365 823 c 1,11,12
 467 931 467 931 592 980 c 0,13,14
 720 1031 720 1031 841 1031 c 2,15,-1
 846 1031 l 2,16,17
 967 1031 967 1031 1054 994 c 0,18,19
 1156 950 1156 950 1216 892 c 0,20,21
 1281 828 1281 828 1310 760 c 0,22,23
 1337 697 1337 697 1342 602 c 0,24,25
 1343 583 1343 583 1343 564 c 2,26,-1
 1343 556 l 2,27,28
 1343 507 1343 507 1331 454 c 0,29,30
 1305 336 1305 336 1209 218 c 0,31,32
 1111 98 1111 98 955 30 c 0,33,34
 841 -20 841 -20 711 -20 c 2,35,-1
 696 -20 l 2,36,37
 564 -20 564 -20 484 17 c 0,38,39
 387 63 387 63 327 122 c 0,40,41
 228 220 228 220 180 400 c 0,42,43
 150 511 150 511 150 616 c 0,44,45
 150 735 150 735 168 828 c 0,46,47
 205 1011 205 1011 334 1178 c 0,48,49
 488 1377 488 1377 681 1458 c 0,50,51
 855 1531 855 1531 1024 1531 c 0,52,53
 1097 1531 1097 1531 1160 1520 c 2,54,-1
 1202 1512 l 1,0,-1
830 910 m 2,55,-1
 816 910 l 2,56,57
 738 910 738 910 674 879 c 0,58,59
 548 820 548 820 474 723 c 1,60,61
 421 656 421 656 403 563 c 0,62,63
 394 520 394 520 394 471 c 0,64,65
 394 448 394 448 396 421 c 0,66,67
 401 343 401 343 439 262 c 0,68,69
 476 181 476 181 550 140 c 256,70,71
 624 99 624 99 705 99 c 2,72,-1
 712 99 l 2,73,74
 786 99 786 99 861 133 c 0,75,76
 998 195 998 195 1072 305 c 0,77,78
 1119 374 1119 374 1138 481 c 0,79,80
 1144 513 1144 513 1144 558 c 0,81,82
 1143 609 1143 609 1142 618 c 0,83,84
 1132 705 1132 705 1094 767 c 0,85,86
 1057 827 1057 827 988 868 c 0,87,88
 916 910 916 910 830 910 c 2,55,-1
EndSplineSet
Validated: 1
EndChar

StartChar: seven
Encoding: 55 55 26
Width: 1163
GlyphClass: 2
Flags: W
HStem: 0 21G<123 332> 1361 150<50 835.131>
VStem: 851 212<932.133 1357.88>
DStem2: 123 0 324 0 0.670681 0.741746<134.807 945.519>
LayerCount: 2
Fore
SplineSet
123 0 m 1,0,-1
 435 342 l 2,1,2
 552 471 552 471 644 601 c 1,3,4
 749 747 749 747 809 930 c 0,5,6
 851 1058 851 1058 851 1178 c 0,7,8
 851 1261 851 1261 825 1361 c 1,9,-1
 50 1361 l 1,10,-1
 50 1511 l 1,11,-1
 985 1511 l 1,12,-1
 992 1511 l 1,13,14
 1011 1477 1011 1477 1019 1456 c 0,15,16
 1063 1332 1063 1332 1063 1208 c 2,17,18
 1063 1208 1063 1208 1063 1198 c 0,19,20
 1063 1047 1063 1047 999 873 c 1,21,22
 929 686 929 686 785 509 c 1,23,24
 680 382 680 382 549 242 c 2,25,26
 549 242 549 242 332 8 c 1,27,-1
 324 0 l 1,28,-1
 123 0 l 1,0,-1
EndSplineSet
Validated: 1
EndChar

StartChar: eight
Encoding: 56 56 27
Width: 1344
GlyphClass: 2
Flags: W
HStem: -20 116<454.043 783.79> 902 131<567.473 813.188> 1408 123<600.171 839.497>
VStem: 100 199<253.145 647.367> 327 188<1071.23 1313.14> 892 187<1120.44 1368.47> 1045 199<357.379 743.961>
LayerCount: 2
Fore
SplineSet
1244 545 m 0,0,1
 1244 502 1244 502 1232 451 c 0,2,3
 1207 337 1207 337 1110 216 c 0,4,5
 1019 103 1019 103 852 30 c 0,6,7
 740 -20 740 -20 611 -20 c 2,8,-1
 597 -20 l 2,9,10
 492 -20 492 -20 390 17 c 1,11,12
 289 59 289 59 227 118 c 0,13,14
 163 179 163 179 133 249 c 0,15,16
 106 310 106 310 101 406 c 0,17,18
 100 425 100 425 100 444 c 0,19,20
 100 501 100 501 112 552 c 0,21,22
 140 677 140 677 235 787 c 0,23,24
 332 900 332 900 453 956 c 1,25,26
 382 1000 382 1000 351 1062 c 0,27,28
 327 1111 327 1111 327 1165 c 0,29,30
 327 1214 327 1214 348 1265 c 0,31,32
 381 1345 381 1345 443 1406 c 1,33,34
 468 1429 468 1429 512 1459 c 0,35,36
 619 1531 619 1531 756 1531 c 2,37,-1
 760 1531 l 1,38,39
 862 1530 862 1530 939 1487 c 0,40,41
 1022 1441 1022 1441 1056 1373 c 0,42,43
 1079 1325 1079 1325 1079 1263 c 0,44,45
 1079 1220 1079 1220 1059 1171 c 0,46,47
 1028 1091 1028 1091 964 1029 c 0,48,49
 950 1016 950 1016 924 997 c 1,50,51
 940 992 940 992 955 986 c 0,52,53
 1056 943 1056 943 1117 885 c 1,54,55
 1182 821 1182 821 1211 754 c 0,56,57
 1238 691 1238 691 1243 596 c 0,58,59
 1244 578 1244 578 1244 545 c 0,0,1
707 1406 m 0,60,61
 621 1395 621 1395 565 1333 c 1,62,63
 515 1275 515 1275 515 1178 c 2,64,-1
 515 1175 l 2,65,66
 515 1101 515 1101 566 1066 c 0,67,68
 613 1033 613 1033 677 1033 c 0,69,70
 689 1033 689 1033 702 1034 c 0,71,72
 790 1040 790 1040 841 1106 c 0,73,74
 892 1173 892 1173 892 1262 c 2,75,-1
 892 1266 l 2,76,77
 892 1338 892 1338 841 1374 c 0,78,79
 793 1408 793 1408 732 1408 c 0,80,81
 718 1408 718 1408 707 1406 c 0,60,61
734 902 m 2,82,-1
 722 902 l 2,83,84
 649 902 649 902 580 871 c 0,85,86
 457 816 457 816 390 730 c 0,87,88
 318 638 318 638 305 555 c 0,89,90
 299 521 299 521 299 477 c 0,91,92
 299 450 299 450 301 419 c 0,93,94
 306 331 306 331 339 263 c 1,95,96
 376 183 376 183 453 140 c 1,97,98
 536 96 536 96 612 96 c 2,99,-1
 622 96 l 2,100,101
 686 96 686 96 772 134 c 0,102,103
 899 190 899 190 973 305 c 0,104,105
 1019 375 1019 375 1039 481 c 0,106,107
 1045 512 1045 512 1045 548 c 0,108,109
 1045 552 1045 552 1045 558 c 0,110,111
 1045 595 1045 595 1041 624 c 0,112,113
 1030 699 1030 699 990 762 c 0,114,115
 951 824 951 824 894 860 c 1,116,117
 825 902 825 902 734 902 c 2,82,-1
EndSplineSet
Validated: 1
EndChar

StartChar: nine
Encoding: 57 57 28
Width: 1493
GlyphClass: 2
Flags: W
HStem: -20 124<383.219 707.518> 480 121<502.83 845.335> 1412 119<610.978 947.855>
VStem: 150 199<753.84 1151.5> 1099 244<715.611 1160.65>
LayerCount: 2
Fore
SplineSet
291 -1 m 1,0,-1
 383 113 l 1,1,-1
 397 111 l 1,2,3
 438 104 438 104 483 104 c 2,4,-1
 504 104 l 2,5,6
 613 104 613 104 725 156 c 0,7,8
 906 240 906 240 1029 415 c 1,9,10
 1092 509 1092 509 1128 688 c 1,11,12
 1026 580 1026 580 901 531 c 0,13,14
 773 480 773 480 652 480 c 2,15,-1
 647 480 l 2,16,17
 526 480 526 480 439 517 c 0,18,19
 337 561 337 561 277 619 c 0,20,21
 212 683 212 683 183 751 c 0,22,23
 156 814 156 814 151 909 c 0,24,25
 150 928 150 928 150 947 c 2,26,-1
 150 955 l 2,27,28
 150 1004 150 1004 162 1057 c 0,29,30
 188 1175 188 1175 284 1293 c 0,31,32
 382 1413 382 1413 538 1481 c 0,33,34
 652 1531 652 1531 782 1531 c 2,35,-1
 797 1531 l 2,36,37
 929 1531 929 1531 1009 1494 c 0,38,39
 1106 1448 1106 1448 1166 1389 c 0,40,41
 1265 1291 1265 1291 1313 1111 c 0,42,43
 1343 1000 1343 1000 1343 895 c 0,44,45
 1343 776 1343 776 1325 683 c 0,46,47
 1288 500 1288 500 1159 333 c 0,48,49
 1005 134 1005 134 812 53 c 0,50,51
 638 -20 638 -20 469 -20 c 0,52,53
 396 -20 396 -20 333 -9 c 2,54,-1
 291 -1 l 1,0,-1
663 601 m 2,55,-1
 677 601 l 2,56,57
 755 601 755 601 819 632 c 0,58,59
 945 691 945 691 1019 788 c 1,60,61
 1072 855 1072 855 1090 948 c 0,62,63
 1099 991 1099 991 1099 1040 c 0,64,65
 1099 1063 1099 1063 1097 1090 c 0,66,67
 1092 1168 1092 1168 1054 1249 c 0,68,69
 1017 1330 1017 1330 943 1371 c 256,70,71
 869 1412 869 1412 788 1412 c 2,72,-1
 781 1412 l 2,73,74
 707 1412 707 1412 632 1378 c 0,75,76
 495 1316 495 1316 421 1206 c 0,77,78
 374 1137 374 1137 355 1030 c 0,79,80
 349 998 349 998 349 953 c 0,81,82
 350 902 350 902 351 893 c 0,83,84
 361 806 361 806 399 744 c 0,85,86
 436 684 436 684 505 643 c 0,87,88
 577 601 577 601 663 601 c 2,55,-1
EndSplineSet
Validated: 1
EndChar

StartChar: colon
Encoding: 58 58 29
Width: 552
GlyphClass: 2
Flags: W
HStem: -20 255<187.129 363.809> 636 255<187.129 363.809>
VStem: 150 252<19.1599 195.84 675.16 851.84>
LayerCount: 2
Fore
SplineSet
402 758 m 0,0,1
 402 710 402 710 366 672 c 0,2,3
 333 636 333 636 276 636 c 0,4,5
 222 636 222 636 186 674 c 0,6,7
 150 711 150 711 150 763 c 0,8,9
 150 816 150 816 186 853 c 0,10,11
 222 891 222 891 276 891 c 0,12,13
 327 891 327 891 365 854 c 1,14,15
 402 816 402 816 402 758 c 0,0,1
402 102 m 0,16,17
 402 54 402 54 366 16 c 0,18,19
 333 -20 333 -20 276 -20 c 0,20,21
 222 -20 222 -20 186 18 c 0,22,23
 150 55 150 55 150 107 c 0,24,25
 150 160 150 160 186 197 c 0,26,27
 222 235 222 235 276 235 c 0,28,29
 327 235 327 235 365 198 c 1,30,31
 402 160 402 160 402 102 c 0,16,17
EndSplineSet
Validated: 1
EndChar

StartChar: semicolon
Encoding: 59 59 30
Width: 610
GlyphClass: 2
Flags: W
HStem: 636 255<220.129 396.809>
VStem: 183 252<675.16 851.84> 275 185<-175.781 80.4919>
LayerCount: 2
Fore
SplineSet
314 295 m 1,0,-1
 331 277 l 1,1,2
 361 243 361 243 382 213 c 0,3,4
 460 101 460 101 460 -20 c 0,5,6
 460 -153 460 -153 344 -269 c 0,7,8
 280 -332 280 -332 261 -347 c 2,9,-1
 243 -361 l 1,10,-1
 150 -260 l 1,11,-1
 167 -243 l 2,12,13
 192 -219 192 -219 218 -193 c 1,14,15
 275 -131 275 -131 275 -46 c 2,16,-1
 275 -43 l 2,17,18
 275 41 275 41 199 121 c 1,19,-1
 158 161 l 1,20,-1
 314 295 l 1,0,-1
183 764 m 0,21,22
 183 816 183 816 219 853 c 0,23,24
 255 891 255 891 309 891 c 0,25,26
 360 891 360 891 398 854 c 0,27,28
 433 819 433 819 435 765 c 1,29,30
 435 711 435 711 398 673 c 1,31,32
 360 636 360 636 309 636 c 0,33,34
 255 636 255 636 219 674 c 0,35,36
 183 711 183 711 183 764 c 0,21,22
EndSplineSet
Validated: 1
EndChar

StartChar: less
Encoding: 60 60 31
Width: 1206
GlyphClass: 2
Flags: W
HStem: 149 220<786 1006> 1216 175<831 1006>
DStem2: 150 865 324 798 0.852 0.523542<113.171 913.075> 324 798 150 676 0.851556 -0.524264<0 805.67>
LayerCount: 2
Fore
SplineSet
150 676 m 1,0,-1
 150 865 l 1,1,-1
 1006 1391 l 1,2,-1
 1006 1216 l 1,3,-1
 324 798 l 1,4,-1
 1006 369 l 1,5,-1
 1006 149 l 1,6,-1
 150 676 l 1,0,-1
EndSplineSet
Validated: 1
EndChar

StartChar: equal
Encoding: 61 61 32
Width: 1183
GlyphClass: 2
Flags: W
HStem: 551 150<150 1033> 839 150<150 1033>
LayerCount: 2
Fore
SplineSet
1033 839 m 1,0,-1
 150 839 l 1,1,-1
 150 989 l 1,2,-1
 1033 989 l 1,3,-1
 1033 839 l 1,0,-1
1033 551 m 1,4,-1
 150 551 l 1,5,-1
 150 701 l 1,6,-1
 1033 701 l 1,7,-1
 1033 551 l 1,4,-1
EndSplineSet
Validated: 1
EndChar

StartChar: greater
Encoding: 62 62 33
Width: 1206
GlyphClass: 2
Flags: W
HStem: 150 175<200 375> 1172 220<200 420>
DStem2: 200 1392 200 1172 0.851556 -0.524264<115.338 921.008> 200 325 200 150 0.852 0.523542<0 799.904>
LayerCount: 2
Fore
SplineSet
1056 865 m 1,0,-1
 1056 676 l 1,1,-1
 200 150 l 1,2,-1
 200 325 l 1,3,-1
 882 743 l 1,4,-1
 200 1172 l 1,5,-1
 200 1392 l 1,6,-1
 1056 865 l 1,0,-1
EndSplineSet
Validated: 1
EndChar

StartChar: question
Encoding: 63 63 34
Width: 1372
GlyphClass: 2
Flags: W
HStem: -20 255<528.129 704.809> 1407 124<530.173 857.167>
VStem: 489 149<296.75 455.762> 491 252<19.1599 195.84> 1017 205<891.625 1236.8>
LayerCount: 2
Fore
SplineSet
743 102 m 0,0,1
 743 54 743 54 707 16 c 0,2,3
 674 -20 674 -20 617 -20 c 0,4,5
 563 -20 563 -20 527 18 c 0,6,7
 491 55 491 55 491 107 c 0,8,9
 491 160 491 160 527 197 c 0,10,11
 563 235 563 235 617 235 c 0,12,13
 668 235 668 235 706 198 c 1,14,15
 743 160 743 160 743 102 c 0,0,1
150 1169 m 1,16,-1
 162 1191 l 2,17,18
 180 1224 180 1224 208 1261 c 0,19,20
 322 1412 322 1412 466 1475 c 0,21,22
 595 1531 595 1531 717 1531 c 2,23,-1
 721 1531 l 1,24,25
 844 1530 844 1530 930 1488 c 0,26,27
 1030 1440 1030 1440 1091 1373 c 1,28,29
 1151 1309 1151 1309 1185 1224 c 0,30,31
 1222 1131 1222 1131 1222 1056 c 0,32,33
 1222 1052 1222 1052 1222 1048 c 0,34,35
 1222 940 1222 940 1166 842 c 0,36,37
 1102 732 1102 732 976 652 c 0,38,39
 807 545 807 545 795 535 c 0,40,41
 781 523 781 523 674 452 c 0,42,43
 638 428 638 428 638 387 c 0,44,45
 638 386 638 386 638 385 c 0,46,47
 638 352 638 352 665 319 c 2,48,-1
 690 288 l 1,49,-1
 539 288 l 1,50,-1
 531 298 l 1,51,52
 489 354 489 354 489 408 c 2,53,-1
 489 410 l 2,54,55
 489 484 489 484 578 553 c 2,56,-1
 709 654 l 2,57,58
 846 760 846 760 879 788 c 0,59,60
 955 852 955 852 988 918 c 0,61,62
 1017 977 1017 977 1017 1042 c 2,63,-1
 1017 1048 l 2,64,65
 1017 1131 1017 1131 979 1222 c 0,66,67
 946 1302 946 1302 863 1359 c 0,68,69
 794 1407 794 1407 700 1407 c 2,70,-1
 692 1407 l 2,71,72
 616 1407 616 1407 550 1373 c 0,73,74
 421 1306 421 1306 346 1175 c 0,75,76
 327 1143 327 1143 315 1111 c 2,77,-1
 305 1084 l 1,78,-1
 150 1169 l 1,16,-1
EndSplineSet
Validated: 1
EndChar

StartChar: at
Encoding: 64 64 35
Width: 1717
GlyphClass: 2
Flags: W
HStem: -410 123<633.431 1015.32> -20 124<732.777 1059.11> 0 21G<1316 1516.04> 703 12<1225.41 1274.81> 996 124<780.802 1158.93>
VStem: 150 202<4.57422 517.268> 437 186<207.426 464.062> 1316 200<0 171 375.312 834.553>
DStem2: 1182 -154 1298 -254 0.819232 0.573462<-251.599 18.0231>
LayerCount: 2
Fore
SplineSet
1516 0 m 1,0,-1
 1316 0 l 1,1,-1
 1316 171 l 1,2,3
 1228 81 1228 81 1112 30.5 c 128,-1,4
 996 -20 996 -20 874 -20 c 2,5,6
 874 -20 874 -20 870 -20 c 0,7,8
 736 -20 736 -20 655 22 c 0,9,10
 544 80 544 80 498 140 c 0,11,12
 437 220 437 220 437 312 c 2,13,14
 437 312 437 312 437 315 c 0,15,16
 437 387 437 387 484 475 c 1,17,18
 534 567 534 567 636 638 c 0,19,20
 768 731 768 731 928 745 c 0,21,22
 984 750 984 750 1016 750 c 0,23,24
 1024 751 1024 751 1033 750 c 0,25,26
 1103 747 1103 747 1160 736 c 0,27,28
 1203 728 1203 728 1242 715 c 0,29,30
 1269 706 1269 706 1275 703 c 1,31,32
 1251 703 1251 703 1228 701 c 0,33,34
 1145 695 1145 695 1067 677 c 0,35,36
 1007 663 1007 663 942 642 c 0,37,38
 815 600 815 600 732 531 c 0,39,40
 664 474 664 474 645 424 c 0,41,42
 623 365 623 365 623 328 c 0,43,44
 623 311 623 311 626 295 c 0,45,46
 645 209 645 209 728 152 c 0,47,48
 797 104 797 104 891 104 c 2,49,-1
 899 104 l 2,50,51
 975 104 975 104 1040 137 c 0,52,53
 1164 200 1164 200 1245 330 c 0,54,55
 1304 423 1304 423 1313 497 c 0,56,57
 1317 526 1317 526 1317 560 c 2,58,-1
 1317 574 l 2,59,60
 1317 633 1317 633 1310 697 c 0,61,62
 1304 752 1304 752 1279 817 c 0,63,64
 1245 902 1245 902 1164 949 c 256,65,66
 1083 996 1083 996 999 996 c 2,67,-1
 992 996 l 2,68,69
 884 996 884 996 765 945 c 0,70,71
 584 867 584 867 460 689 c 0,72,73
 394 594 394 594 361 412 c 0,74,75
 352 364 352 364 352 294 c 0,76,77
 352 250 352 250 355 200 c 0,78,79
 364 54 364 54 419 -44 c 0,80,81
 485 -162 485 -162 588 -220 c 0,82,83
 705 -287 705 -287 826 -287 c 2,84,-1
 843 -287 l 2,85,86
 920 -287 920 -287 1059 -225 c 0,87,88
 1122 -197 1122 -197 1182 -154 c 1,89,-1
 1197 -144 l 1,90,-1
 1328 -233 l 1,91,-1
 1298 -254 l 1,92,93
 1230 -300 1230 -300 1161 -334 c 0,94,95
 1011 -410 1011 -410 838 -410 c 2,96,-1
 817 -410 l 2,97,98
 667 -410 667 -410 538 -356 c 0,99,100
 416 -305 416 -305 327 -213 c 1,101,102
 257 -137 257 -137 205 -35 c 1,103,104
 162 55 162 55 152 199 c 0,105,106
 150 228 150 228 150 260 c 0,107,108
 150 339 150 339 165 416 c 0,109,110
 202 598 202 598 331 766 c 1,111,112
 483 962 483 962 678 1045 c 0,113,114
 855 1120 855 1120 1006 1120 c 2,115,116
 1006 1120 1006 1120 1021 1120 c 0,117,118
 1142 1120 1142 1120 1230 1077 c 1,119,120
 1331 1030 1331 1030 1391 964 c 1,121,122
 1457 894 1457 894 1486 818 c 0,123,124
 1509 755 1509 755 1515 645 c 0,125,126
 1517 600 1517 600 1517 564 c 2,127,-1
 1516 0 l 1,0,-1
EndSplineSet
Validated: 1
EndChar

StartChar: A
Encoding: 65 65 36
Width: 1538
GlyphClass: 2
Flags: W
HStem: 0 21G<5 183.793 1308.18 1533> 696 150<546 947> 1491 20G<662.185 874.829>
VStem: 5 170<0 170> 1317 216<0 216>
DStem2: 5 0 175 0 0.403327 0.915056<68.5656 828.863 992.337 1504.91> 866 1511 746 1318 0.403834 -0.914832<128.103 641.074 803.74 1564.44>
LayerCount: 2
Fore
SplineSet
5 0 m 1,0,-1
 671 1511 l 1,1,-1
 866 1511 l 1,2,-1
 1533 0 l 1,3,-1
 1317 0 l 1,4,-1
 1010 696 l 1,5,-1
 481 696 l 1,6,-1
 175 0 l 1,7,-1
 5 0 l 1,0,-1
746 1318 m 1,8,-1
 546 846 l 1,9,-1
 947 846 l 1,10,-1
 746 1318 l 1,8,-1
EndSplineSet
Validated: 1
EndChar

StartChar: B
Encoding: 66 66 37
Width: 1452
GlyphClass: 2
Flags: W
HStem: -20 118<542.428 864.964> 0 21G<200 400> 883 31<528.906 574.023> 883 10<505.059 525.131> 927 119<935 1012.28> 1409 122<552.805 811.741> 1490 20G<200 400>
VStem: 200 200<0 1250.75 1385 1510> 863 187<1131.11 1371.8> 1150 202<389.935 775.851>
LayerCount: 2
Fore
SplineSet
200 0 m 1,0,-1
 200 1510 l 1,1,-1
 400 1510 l 1,2,-1
 400 1385 l 1,3,4
 438 1429 438 1429 483 1459 c 0,5,6
 590 1531 590 1531 727 1531 c 2,7,-1
 731 1531 l 1,8,9
 830 1530 830 1530 910 1487 c 0,10,11
 994 1441 994 1441 1027 1376 c 0,12,13
 1050 1329 1050 1329 1050 1278 c 0,14,15
 1050 1231 1050 1231 1030 1181 c 0,16,17
 1000 1104 1000 1104 935 1046 c 1,18,19
 938 1046 938 1046 940 1046 c 0,20,21
 1006 1046 1006 1046 1062 1027 c 0,22,23
 1169 991 1169 991 1242 912 c 1,24,25
 1307 840 1307 840 1329 764 c 0,26,27
 1352 683 1352 683 1352 617 c 2,28,-1
 1352 612 l 2,29,30
 1352 539 1352 539 1326 444 c 0,31,32
 1292 319 1292 319 1200 207 c 0,33,34
 1115 104 1115 104 964 34 c 0,35,36
 848 -20 848 -20 703 -20 c 2,37,-1
 698 -20 l 2,38,39
 567 -20 567 -20 474 82 c 0,40,41
 453 105 453 105 449 123 c 1,42,43
 458 118 458 118 494 110 c 0,44,45
 542 98 542 98 632 98 c 2,46,-1
 637 98 l 2,47,48
 668 98 668 98 701 101 c 0,49,50
 789 108 789 108 868 143 c 0,51,52
 1001 203 1001 203 1078 329 c 0,53,54
 1121 399 1121 399 1140 497 c 0,55,56
 1150 546 1150 546 1150 591 c 0,57,58
 1150 611 1150 611 1148 628 c 0,59,60
 1141 700 1141 700 1114 759 c 0,61,62
 1077 843 1077 843 1008 886 c 0,63,64
 944 927 944 927 851 927 c 2,65,-1
 845 927 l 2,66,67
 802 927 802 927 722 918 c 0,68,69
 665 911 665 911 568 895 c 2,70,-1
 556 893 l 2,71,72
 538 890 538 890 504 883 c 1,73,74
 508 887 508 887 551 914 c 0,75,76
 585 935 585 935 700 1011 c 0,77,78
 762 1052 762 1052 812 1117 c 0,79,80
 863 1184 863 1184 863 1272 c 0,81,82
 863 1338 863 1338 813 1377 c 0,83,84
 773 1409 773 1409 695 1409 c 0,85,86
 686 1409 686 1409 676 1408 c 0,87,88
 593 1401 593 1401 526 1345 c 0,89,90
 478 1304 478 1304 446 1253 c 0,91,92
 400 1181 400 1181 400 1090 c 2,93,-1
 400 0 l 1,94,-1
 200 0 l 1,0,-1
EndSplineSet
Validated: 1
EndChar

StartChar: C
Encoding: 67 67 38
Width: 1562
GlyphClass: 2
Flags: W
HStem: -20 123<580.797 968.131> 1407 124<735.871 1156.55>
VStem: 100 201<402.805 929.885>
DStem2: 1316 423 1446 327 0.6 0.8<-271.312 24.4>
LayerCount: 2
Fore
SplineSet
1461 347 m 1,0,-1
 1446 327 l 1,1,2
 1324 162 1324 162 1111 56 c 0,3,4
 959 -20 959 -20 788 -20 c 2,5,-1
 767 -20 l 2,6,7
 603 -20 603 -20 487 35 c 0,8,9
 351 99 351 99 271 185 c 1,10,11
 184 276 184 276 144 379 c 0,12,13
 112 459 112 459 102 610 c 0,14,15
 100 644 100 644 100 670 c 0,16,17
 101 755 101 755 115 827 c 1,18,19
 154 1013 154 1013 281 1177 c 1,20,21
 437 1376 437 1376 628 1456 c 1,22,23
 802 1531 802 1531 967 1531 c 2,24,-1
 971 1531 l 1,25,26
 1135 1530 1135 1530 1252 1475 c 0,27,28
 1374 1417 1374 1417 1460 1327 c 1,29,-1
 1482 1305 l 1,30,-1
 1330 1215 l 1,31,-1
 1316 1234 l 1,32,33
 1276 1293 1276 1293 1198 1341 c 0,34,35
 1090 1407 1090 1407 955 1407 c 2,36,-1
 936 1407 l 2,37,38
 827 1407 827 1407 715 1354 c 0,39,40
 532 1266 532 1266 410 1088 c 0,41,42
 345 992 345 992 311 813 c 0,43,44
 301 763 301 763 301 696 c 0,45,46
 301 653 301 653 305 605 c 0,47,48
 317 461 317 461 362 360 c 0,49,50
 416 240 416 240 538 169 c 0,51,52
 651 103 651 103 776 103 c 2,53,-1
 793 103 l 2,54,55
 874 103 874 103 1009 165 c 0,56,57
 1189 247 1189 247 1316 423 c 1,58,-1
 1330 443 l 1,59,-1
 1461 347 l 1,0,-1
EndSplineSet
Validated: 1
EndChar

StartChar: D
Encoding: 68 68 39
Width: 1642
GlyphClass: 2
Flags: W
HStem: -20 112<540.652 873.333> 0 21G<200 400> 1407 124<639.216 1062.98> 1491 20G<200 400>
VStem: 200 200<0 1180.56 1357 1511> 1339 203<584.663 1108.94>
LayerCount: 2
Fore
SplineSet
200 0 m 1,0,-1
 200 1511 l 1,1,-1
 400 1511 l 1,2,-1
 400 1357 l 1,3,4
 462 1420 462 1420 529 1455 c 0,5,6
 673 1531 673 1531 869 1531 c 2,7,-1
 874 1531 l 1,8,9
 1043 1530 1043 1530 1155 1476 c 0,10,11
 1288 1412 1288 1412 1372 1324 c 1,12,13
 1457 1226 1457 1226 1492 1130 c 0,14,15
 1532 1018 1532 1018 1540 899 c 0,16,17
 1542 866 1542 866 1542 843 c 0,18,19
 1541 758 1541 758 1526 681 c 1,20,21
 1490 511 1490 511 1361 332 c 0,22,23
 1238 162 1238 162 1014 53 c 0,24,25
 864 -20 864 -20 717 -20 c 0,26,27
 710 -20 710 -20 702 -20 c 1,28,29
 524 -14 524 -14 454 120 c 1,30,31
 555 92 555 92 647 92 c 0,32,33
 671 92 671 92 696 94 c 0,34,35
 832 104 832 104 956 177 c 0,36,37
 1146 289 1146 289 1228 423 c 0,38,39
 1294 530 1294 530 1328 699 c 0,40,41
 1339 751 1339 751 1339 819 c 0,42,43
 1339 863 1339 863 1335 907 c 0,44,45
 1322 1052 1322 1052 1277 1152 c 0,46,47
 1223 1270 1223 1270 1101 1343 c 0,48,49
 994 1407 994 1407 855 1407 c 2,50,-1
 839 1407 l 2,51,52
 716 1407 716 1407 619 1354 c 0,53,54
 538 1310 538 1310 480 1233 c 0,55,56
 400 1127 400 1127 400 1030 c 2,57,-1
 400 0 l 1,58,-1
 200 0 l 1,0,-1
EndSplineSet
Validated: 1
EndChar

StartChar: E
Encoding: 69 69 40
Width: 1562
GlyphClass: 2
Flags: W
HStem: -20 123<580.797 968.131> 696 150<316 1117> 1407 124<735.871 1156.55>
VStem: 100 201<401.764 693.649>
DStem2: 1316 423 1446 327 0.6 0.8<-266.122 24.4>
LayerCount: 2
Fore
SplineSet
1461 347 m 1,0,-1
 1446 327 l 2,1,2
 1324 163 1324 163 1111 56 c 0,3,4
 961 -20 961 -20 788 -20 c 2,5,-1
 767 -20 l 2,6,7
 603 -20 603 -20 487 35 c 1,8,9
 351 98 351 98 270 185 c 0,10,11
 183 280 183 280 144 379 c 0,12,13
 112 458 112 458 102 610 c 0,14,15
 100 644 100 644 100 670 c 0,16,17
 101 755 101 755 115 827 c 1,18,19
 154 1013 154 1013 281 1177 c 1,20,21
 437 1376 437 1376 628 1456 c 1,22,23
 802 1531 802 1531 967 1531 c 2,24,-1
 971 1531 l 1,25,26
 1135 1530 1135 1530 1252 1475 c 0,27,28
 1374 1417 1374 1417 1460 1327 c 1,29,-1
 1482 1305 l 1,30,-1
 1330 1215 l 1,31,-1
 1316 1234 l 1,32,33
 1276 1293 1276 1293 1198 1341 c 0,34,35
 1090 1407 1090 1407 955 1407 c 2,36,-1
 936 1407 l 2,37,38
 827 1407 827 1407 715 1354 c 0,39,40
 532 1267 532 1267 410 1089 c 0,41,42
 349 1001 349 1001 316 846 c 1,43,-1
 1117 846 l 1,44,-1
 1117 696 l 1,45,-1
 301 696 l 1,46,47
 301 690 301 690 301 689 c 0,48,49
 303 629 303 629 305 603 c 0,50,51
 317 460 317 460 362 359 c 0,52,53
 416 239 416 239 538 169 c 1,54,55
 651 103 651 103 776 103 c 2,56,-1
 793 103 l 2,57,58
 874 103 874 103 1009 165 c 0,59,60
 1189 247 1189 247 1316 423 c 1,61,-1
 1330 443 l 1,62,-1
 1461 347 l 1,0,-1
EndSplineSet
Validated: 1
EndChar

StartChar: F
Encoding: 70 70 41
Width: 1333
GlyphClass: 2
Flags: W
HStem: 0 21G<200 400> 696 150<400 970> 1407 124<654.257 989.643> 1491 20G<200 400>
VStem: 200 200<0 696 846 1161.78 1332 1511>
LayerCount: 2
Fore
SplineSet
200 0 m 1,0,-1
 200 1511 l 1,1,-1
 400 1511 l 1,2,-1
 400 1332 l 1,3,4
 491 1428 491 1428 598 1475 c 0,5,6
 727 1531 727 1531 849 1531 c 2,7,-1
 853 1531 l 1,8,9
 977 1530 977 1530 1062 1488 c 0,10,11
 1163 1439 1163 1439 1223 1373 c 0,12,13
 1251 1343 1251 1343 1269 1316 c 2,14,-1
 1283 1294 l 1,15,-1
 1121 1197 l 1,16,-1
 1110 1223 l 1,17,18
 1078 1302 1078 1302 995 1359 c 0,19,20
 926 1407 926 1407 832 1407 c 2,21,-1
 824 1407 l 2,22,23
 733 1407 733 1407 649 1360 c 1,24,25
 544 1303 544 1303 487 1228 c 1,26,27
 400 1119 400 1119 400 948 c 2,28,-1
 400 846 l 1,29,-1
 970 846 l 1,30,-1
 970 696 l 1,31,-1
 400 696 l 1,32,-1
 400 0 l 1,33,-1
 200 0 l 1,0,-1
EndSplineSet
Validated: 1
EndChar

StartChar: G
Encoding: 71 71 42
Width: 1738
GlyphClass: 2
Flags: W
HStem: -20 123<580.797 971.857> 696 150<994 1425> 1407 124<735.871 1157.16>
VStem: 100 201<403.129 931.289>
LayerCount: 2
Fore
SplineSet
1638 846 m 1,0,-1
 1638 821 l 2,1,2
 1638 760 1638 760 1623 684 c 0,3,4
 1588 513 1588 513 1458 333 c 0,5,6
 1335 162 1335 162 1111 54 c 1,7,8
 960 -20 960 -20 788 -20 c 2,9,-1
 767 -20 l 2,10,11
 603 -20 603 -20 487 35 c 0,12,13
 351 99 351 99 270 186 c 0,14,15
 183 280 183 280 144 379 c 0,16,17
 112 459 112 459 102 611 c 0,18,19
 100 645 100 645 100 671 c 0,20,21
 101 756 101 756 115 828 c 0,22,23
 154 1015 154 1015 281 1178 c 0,24,25
 437 1378 437 1378 628 1458 c 0,26,27
 802 1531 802 1531 967 1531 c 2,28,-1
 971 1531 l 1,29,30
 1140 1530 1140 1530 1252 1474 c 0,31,32
 1384 1409 1384 1409 1460 1327 c 1,33,-1
 1481 1305 l 1,34,-1
 1334 1215 l 1,35,-1
 1320 1233 l 1,36,37
 1279 1288 1279 1288 1198 1341 c 1,38,39
 1092 1407 1092 1407 955 1407 c 2,40,-1
 936 1407 l 2,41,42
 827 1407 827 1407 715 1354 c 0,43,44
 532 1266 532 1266 410 1088 c 0,45,46
 346 993 346 993 311 813 c 0,47,48
 301 764 301 764 301 697 c 0,49,50
 301 653 301 653 305 605 c 0,51,52
 317 462 317 462 362 360 c 0,53,54
 416 240 416 240 538 169 c 0,55,56
 651 103 651 103 776 103 c 2,57,-1
 793 103 l 2,58,59
 873 103 873 103 1009 162 c 0,60,61
 1202 247 1202 247 1326 423 c 0,62,63
 1390 513 1390 513 1425 696 c 1,64,-1
 994 696 l 1,65,-1
 994 846 l 1,66,-1
 1638 846 l 1,0,-1
EndSplineSet
Validated: 1
EndChar

StartChar: H
Encoding: 72 72 43
Width: 1572
GlyphClass: 2
Flags: W
HStem: 0 21G<200 400 1172 1372> 696 150<400 1172> 1491 20G<200 400 1172 1372>
VStem: 200 200<0 696 846 1511> 1172 200<0 696 846 1511>
LayerCount: 2
Fore
SplineSet
200 0 m 1,0,-1
 200 1511 l 1,1,-1
 400 1511 l 1,2,-1
 400 846 l 1,3,-1
 1172 846 l 1,4,-1
 1172 1511 l 1,5,-1
 1372 1511 l 1,6,-1
 1372 0 l 1,7,-1
 1172 0 l 1,8,-1
 1172 696 l 1,9,-1
 400 696 l 1,10,-1
 400 0 l 1,11,-1
 200 0 l 1,0,-1
EndSplineSet
Validated: 1
EndChar

StartChar: I
Encoding: 73 73 44
Width: 600
GlyphClass: 2
Flags: W
HStem: 0 21G<200 400> 1491 20G<200 400>
VStem: 200 200<0 1511>
LayerCount: 2
Fore
SplineSet
200 0 m 1,0,-1
 200 1511 l 1,1,-1
 400 1511 l 1,2,-1
 400 0 l 1,3,-1
 200 0 l 1,0,-1
EndSplineSet
Validated: 1
EndChar

StartChar: J
Encoding: 74 74 45
Width: 1219
GlyphClass: 2
Flags: W
HStem: -20 123<238.633 561.517> 1361 150<379 818>
VStem: 819 200<389.867 1361>
LayerCount: 2
Fore
SplineSet
20 119 m 1,0,-1
 147 227 l 1,1,-1
 163 209 l 2,2,3
 194 174 194 174 230 152 c 0,4,5
 313 103 313 103 389 103 c 2,6,-1
 398 103 l 2,7,8
 469 103 469 103 550 141 c 0,9,10
 674 200 674 200 749 326 c 1,11,12
 810 431 810 431 816 518 c 0,13,14
 819 575 819 575 819 577 c 2,15,16
 819 577 819 577 819 590 c 0,17,18
 818 1097 818 1097 818 1361 c 1,19,-1
 379 1361 l 1,20,-1
 379 1511 l 1,21,-1
 1018 1511 l 1,22,-1
 1019 667 l 2,23,24
 1019 562 1019 562 1009 502 c 0,25,26
 989 382 989 382 887 242 c 0,27,28
 792 113 792 113 629 35 c 0,29,30
 515 -20 515 -20 386 -20 c 2,31,32
 386 -20 386 -20 373 -20 c 0,33,34
 253 -20 253 -20 165 22 c 0,35,36
 90 58 90 58 42 100 c 2,37,-1
 20 119 l 1,0,-1
EndSplineSet
Validated: 1
EndChar

StartChar: K
Encoding: 75 75 46
Width: 1497
GlyphClass: 2
Flags: W
HStem: 0 21G<200 400 1127.87 1492> 339 133<400 602.092> 1491 20G<200 400 1034 1244>
VStem: 200 200<0 339 472 1511> 1090 194<939.343 1480.02> 1157 335<0 335>
DStem2: 827 451 605 379 0.82762 -0.561288<0 526.256>
LayerCount: 2
Fore
SplineSet
200 0 m 1,0,-1
 200 1511 l 1,1,-1
 400 1511 l 1,2,-1
 400 472 l 1,3,-1
 402 472 l 1,4,5
 555 491 555 491 665 537 c 0,6,7
 816 600 816 600 908 692 c 0,8,9
 989 773 989 773 1034 889 c 0,10,11
 1074 993 1074 993 1086 1126 c 0,12,13
 1090 1170 1090 1170 1090 1206 c 0,14,15
 1089 1283 1089 1283 1078 1350 c 0,16,17
 1066 1424 1066 1424 1041 1493 c 1,18,-1
 1034 1511 l 1,19,-1
 1240 1511 l 1,20,-1
 1244 1500 l 1,21,22
 1263 1452 1263 1452 1278 1345 c 0,23,24
 1284 1300 1284 1300 1284 1240 c 0,25,26
 1283 1177 1283 1177 1276 1114 c 1,27,28
 1257 965 1257 965 1208 853 c 0,29,30
 1146 714 1146 714 1037 605 c 0,31,32
 938 506 938 506 827 451 c 1,33,-1
 1492 0 l 1,34,-1
 1157 0 l 1,35,-1
 605 379 l 1,36,37
 512 353 512 353 412 340 c 0,38,39
 403 339 403 339 400 339 c 1,40,-1
 400 0 l 1,41,-1
 200 0 l 1,0,-1
EndSplineSet
Validated: 1
EndChar

StartChar: L
Encoding: 76 76 47
Width: 1048
GlyphClass: 2
Flags: W
HStem: 0 150<400 1028> 1491 20G<200 400>
VStem: 200 200<150 1511>
LayerCount: 2
Fore
SplineSet
200 0 m 1,0,-1
 200 1511 l 1,1,-1
 400 1511 l 1,2,-1
 400 150 l 1,3,-1
 1028 150 l 1,4,-1
 1028 0 l 1,5,-1
 200 0 l 1,0,-1
EndSplineSet
Validated: 1
EndChar

StartChar: M
Encoding: 77 77 48
Width: 2472
GlyphClass: 2
Flags: W
HStem: 0 21G<200 400 1136 1336 2072 2272> 1407 124<654.136 999.91 1590.1 1935.48> 1491 20G<200 400>
VStem: 200 200<0 1159.62 1332 1511> 1136 200<0 1160.25> 2072 200<0 1277.12>
CounterMasks: 1 1c
LayerCount: 2
Fore
SplineSet
200 0 m 1,0,-1
 200 1511 l 1,1,-1
 400 1511 l 1,2,-1
 400 1332 l 1,3,4
 491 1428 491 1428 598 1475 c 0,5,6
 727 1531 727 1531 849 1531 c 2,7,-1
 853 1531 l 1,8,9
 965 1530 965 1530 1062 1497 c 0,10,11
 1156 1464 1156 1464 1214 1406 c 1,12,13
 1265 1353 1265 1353 1294 1289 c 1,14,15
 1425 1428 1425 1428 1534 1475 c 0,16,17
 1663 1531 1663 1531 1785 1531 c 2,18,-1
 1789 1531 l 1,19,20
 1900 1530 1900 1530 1998 1497 c 0,21,22
 2091 1466 2091 1466 2150 1408 c 0,23,24
 2213 1346 2213 1346 2246 1259 c 0,25,26
 2270 1194 2270 1194 2272 1104 c 1,27,-1
 2272 0 l 1,28,-1
 2072 0 l 1,29,-1
 2072 1102 l 1,30,31
 2071 1197 2071 1197 2041 1254 c 0,32,33
 2004 1324 2004 1324 1938 1362 c 0,34,35
 1862 1407 1862 1407 1764 1407 c 2,36,-1
 1760 1407 l 1,37,38
 1666 1406 1666 1406 1585 1360 c 0,39,40
 1488 1306 1488 1306 1423 1226 c 0,41,42
 1336 1120 1336 1120 1336 960 c 2,43,-1
 1336 0 l 1,44,-1
 1136 0 l 1,45,-1
 1136 1102 l 1,46,47
 1135 1197 1135 1197 1105 1254 c 0,48,49
 1068 1324 1068 1324 1002 1362 c 0,50,51
 926 1407 926 1407 828 1407 c 2,52,-1
 824 1407 l 1,53,54
 731 1406 731 1406 649 1360 c 0,55,56
 548 1304 548 1304 487 1226 c 0,57,58
 400 1117 400 1117 400 944 c 2,59,-1
 400 0 l 1,60,-1
 200 0 l 1,0,-1
EndSplineSet
Validated: 1
EndChar

StartChar: N
Encoding: 78 78 49
Width: 1571
GlyphClass: 2
Flags: W
HStem: 0 21G<200 400 1171 1371> 1407 124<674.898 1039.49> 1491 20G<200 400>
VStem: 200 200<0 1159.62 1333 1511> 1171 200<0 1276.12>
LayerCount: 2
Fore
SplineSet
200 0 m 1,0,-1
 200 1511 l 1,1,-1
 400 1511 l 1,2,-1
 400 1333 l 1,3,4
 482 1416 482 1416 617 1475 c 0,5,6
 746 1531 746 1531 883 1531 c 2,7,-1
 888 1531 l 1,8,9
 999 1530 999 1530 1097 1497 c 0,10,11
 1185 1468 1185 1468 1248 1409 c 0,12,13
 1310 1352 1310 1352 1345 1259 c 0,14,15
 1370 1191 1370 1191 1371 1104 c 1,16,-1
 1371 0 l 1,17,-1
 1171 0 l 1,18,-1
 1171 1102 l 1,19,20
 1169 1196 1169 1196 1140 1254 c 0,21,22
 1103 1326 1103 1326 1033 1367 c 0,23,24
 964 1407 964 1407 871 1407 c 2,25,26
 871 1407 871 1407 859 1407 c 0,27,28
 771 1406 771 1406 665 1359 c 0,29,30
 552 1309 552 1309 487 1226 c 0,31,32
 400 1117 400 1117 400 944 c 2,33,-1
 400 0 l 1,34,-1
 200 0 l 1,0,-1
EndSplineSet
Validated: 1
EndChar

StartChar: O
Encoding: 79 79 50
Width: 1739
GlyphClass: 2
Flags: W
HStem: -20 123<580.797 971.857> 1407 124<735.871 1161.58>
VStem: 100 201<402.482 930.937> 1436 203<584.567 1107.23>
LayerCount: 2
Fore
SplineSet
971 1531 m 1,0,1
 1138 1530 1138 1530 1252 1476 c 0,2,3
 1385 1414 1385 1414 1469 1325 c 0,4,5
 1554 1234 1554 1234 1594 1131 c 1,6,7
 1626 1052 1626 1052 1637 900 c 0,8,9
 1639 869 1639 869 1639 844 c 0,10,11
 1638 759 1638 759 1623 683 c 0,12,13
 1588 512 1588 512 1458 334 c 0,14,15
 1335 164 1335 164 1111 56 c 1,16,17
 960 -20 960 -20 788 -20 c 2,18,19
 788 -20 788 -20 767 -20 c 0,20,21
 603 -20 603 -20 487 35 c 0,22,23
 351 99 351 99 271 185 c 1,24,25
 184 276 184 276 144 379 c 1,26,27
 112 458 112 458 102 610 c 0,28,29
 100 644 100 644 100 668 c 0,30,31
 101 752 101 752 115 827 c 0,32,33
 151 1009 151 1009 281 1176 c 0,34,35
 436 1376 436 1376 628 1456 c 1,36,37
 802 1531 802 1531 967 1531 c 2,38,-1
 971 1531 l 1,0,1
955 1407 m 0,39,40
 819 1403 819 1403 715 1354 c 0,41,42
 532 1266 532 1266 410 1088 c 0,43,44
 345 992 345 992 311 813 c 0,45,46
 301 763 301 763 301 696 c 0,47,48
 301 654 301 654 305 605 c 0,49,50
 317 460 317 460 362 360 c 0,51,52
 417 239 417 239 538 169 c 0,53,54
 651 103 651 103 776 103 c 2,55,56
 776 103 776 103 793 103 c 0,57,58
 873 103 873 103 1009 162 c 0,59,60
 1215 253 1215 253 1326 424 c 0,61,62
 1404 544 1404 544 1425 698 c 0,63,64
 1436 775 1436 775 1436 821 c 0,65,66
 1436 865 1436 865 1432 907 c 0,67,68
 1418 1055 1418 1055 1374 1152 c 0,69,70
 1320 1269 1320 1269 1198 1343 c 0,71,72
 1093 1407 1093 1407 977 1407 c 2,73,74
 977 1407 977 1407 955 1407 c 0,39,40
EndSplineSet
Validated: 1
EndChar

StartChar: P
Encoding: 80 80 51
Width: 1450
GlyphClass: 2
Flags: W
HStem: 0 21G<200 400> 340 119<549.415 861.791> 1407 124<654.257 989.643> 1491 20G<200 400>
VStem: 200 200<0 1159.62 1332 1511> 1151 199<770.125 1231.3>
LayerCount: 2
Fore
SplineSet
200 0 m 1,0,-1
 200 1511 l 1,1,-1
 400 1511 l 1,2,-1
 400 1332 l 1,3,4
 491 1428 491 1428 598 1475 c 0,5,6
 727 1531 727 1531 849 1531 c 2,7,-1
 853 1531 l 1,8,9
 977 1530 977 1530 1062 1488 c 0,10,11
 1163 1439 1163 1439 1224 1373 c 1,12,13
 1288 1302 1288 1302 1317 1224 c 0,14,15
 1344 1154 1344 1154 1349 1045 c 0,16,17
 1350 1024 1350 1024 1350 990 c 0,18,19
 1350 937 1350 937 1339 879 c 0,20,21
 1312 745 1312 745 1216 611 c 0,22,23
 1121 479 1121 479 959 398 c 0,24,25
 844 340 844 340 728 340 c 0,26,27
 714 340 714 340 701 341 c 0,28,29
 542 356 542 356 468 454 c 1,30,31
 453 476 453 476 448 499 c 1,32,33
 470 487 470 487 485 481 c 1,34,35
 552 459 552 459 637 459 c 0,36,37
 641 459 641 459 646 459 c 0,38,39
 660 458 660 458 701 462 c 0,40,41
 791 471 791 471 868 506 c 0,42,43
 1001 566 1001 566 1078 697 c 0,44,45
 1127 779 1127 779 1145 895 c 0,46,47
 1151 931 1151 931 1151 981 c 0,48,49
 1151 1008 1151 1008 1149 1047 c 0,50,51
 1144 1142 1144 1142 1111 1222 c 256,52,53
 1078 1302 1078 1302 995 1359 c 0,54,55
 926 1407 926 1407 832 1407 c 2,56,-1
 824 1407 l 2,57,58
 733 1407 733 1407 649 1360 c 0,59,60
 544 1302 544 1302 487 1226 c 1,61,62
 400 1117 400 1117 400 944 c 2,63,-1
 400 0 l 1,64,-1
 200 0 l 1,0,-1
EndSplineSet
Validated: 1
EndChar

StartChar: Q
Encoding: 81 81 52
Width: 1746
GlyphClass: 2
Flags: W
HStem: -20 123<581.102 972.341> 0 21G<1366.5 1736> 1407 124<737.16 1161.58>
VStem: 100 201<402.482 930.808> 620 320<208 528> 1436 203<582.188 1107.08>
DStem2: 940 528 620 528 0.833337 -0.552766<0 306.605 518.645 671.029>
LayerCount: 2
Fore
SplineSet
620 528 m 1,0,-1
 940 528 l 1,1,-1
 1243 328 l 1,2,3
 1281 353 1281 353 1326 424 c 0,4,5
 1404 547 1404 547 1425 698 c 0,6,7
 1436 774 1436 774 1436 821 c 0,8,9
 1436 865 1436 865 1432 907 c 0,10,11
 1418 1055 1418 1055 1374 1152 c 0,12,13
 1320 1269 1320 1269 1198 1343 c 0,14,15
 1093 1407 1093 1407 977 1407 c 2,16,-1
 955 1407 l 1,17,18
 819 1403 819 1403 715 1354 c 0,19,20
 532 1266 532 1266 410 1087 c 0,21,22
 345 992 345 992 311 813 c 0,23,24
 301 763 301 763 301 696 c 0,25,26
 301 653 301 653 305 605 c 0,27,28
 317 460 317 460 362 360 c 0,29,30
 417 239 417 239 538 169 c 0,31,32
 652 103 652 103 776 103 c 2,33,-1
 793 103 l 2,34,35
 875 103 875 103 1009 162 c 1,36,37
 1054 183 1054 183 1095 207 c 1,38,-1
 620 528 l 1,0,-1
1736 0 m 1,39,-1
 1395 0 l 1,40,-1
 1224 120 l 1,41,42
 1171 85 1171 85 1111 56 c 0,43,44
 958 -20 958 -20 788 -20 c 2,45,-1
 767 -20 l 2,46,47
 603 -20 603 -20 487 35 c 0,48,49
 351 99 351 99 271 185 c 1,50,51
 184 276 184 276 144 379 c 1,52,53
 112 458 112 458 102 610 c 0,54,55
 100 644 100 644 100 668 c 0,56,57
 101 752 101 752 115 827 c 0,58,59
 151 1009 151 1009 281 1176 c 0,60,61
 434 1374 434 1374 628 1456 c 0,62,63
 805 1531 805 1531 967 1531 c 2,64,-1
 971 1531 l 1,65,66
 1138 1530 1138 1530 1252 1476 c 0,67,68
 1385 1413 1385 1413 1469 1325 c 1,69,70
 1554 1234 1554 1234 1594 1131 c 0,71,72
 1626 1051 1626 1051 1637 899 c 0,73,74
 1639 869 1639 869 1639 843 c 0,75,76
 1638 747 1638 747 1623 682 c 0,77,78
 1576 474 1576 474 1458 333 c 0,79,80
 1407 271 1407 271 1372 241 c 1,81,-1
 1736 0 l 1,39,-1
EndSplineSet
Validated: 1
EndChar

StartChar: R
Encoding: 82 82 53
Width: 1525
GlyphClass: 2
Flags: W
HStem: 0 21G<200 400 1129.24 1475> 1407 124<654.257 991.359> 1491 20G<200 400>
VStem: 200 200<0 1159.62 1332 1511> 1151 199<793.54 1238.42> 1157 318<0 318>
DStem2: 892 405 481 487 0.810559 -0.585657<0 451.989>
LayerCount: 2
Fore
SplineSet
200 0 m 1,0,-1
 200 1511 l 1,1,-1
 400 1511 l 1,2,-1
 400 1332 l 1,3,4
 491 1428 491 1428 598 1475 c 0,5,6
 727 1531 727 1531 849 1531 c 2,7,-1
 853 1531 l 1,8,9
 974 1530 974 1530 1062 1488 c 0,10,11
 1163 1441 1163 1441 1224 1377 c 1,12,13
 1288 1308 1288 1308 1317 1232 c 1,14,15
 1344 1165 1344 1165 1349 1060 c 0,16,17
 1350 1039 1350 1039 1350 1002 c 0,18,19
 1350 954 1350 954 1339 899 c 0,20,21
 1311 769 1311 769 1216 640 c 0,22,23
 1117 505 1117 505 959 433 c 0,24,25
 924 417 924 417 892 405 c 1,26,-1
 1475 0 l 1,27,-1
 1157 0 l 1,28,-1
 481 487 l 2,29,30
 469 496 469 496 447 513 c 1,31,32
 467 506 467 506 537 498 c 0,33,34
 590 492 590 492 627 492 c 0,35,36
 631 492 631 492 637 492 c 0,37,38
 667 492 667 492 701 494 c 1,39,40
 787 502 787 502 868 537 c 0,41,42
 1001 595 1001 595 1078 721 c 0,43,44
 1127 800 1127 800 1145 912 c 0,45,46
 1151 947 1151 947 1151 996 c 0,47,48
 1151 1022 1151 1022 1149 1059 c 0,49,50
 1144 1151 1144 1151 1111 1229 c 0,51,52
 1078 1305 1078 1305 995 1361 c 0,53,54
 926 1407 926 1407 832 1407 c 2,55,-1
 824 1407 l 2,56,57
 733 1407 733 1407 649 1360 c 0,58,59
 544 1302 544 1302 487 1226 c 1,60,61
 400 1117 400 1117 400 944 c 2,62,-1
 400 0 l 1,63,-1
 200 0 l 1,0,-1
EndSplineSet
Validated: 1
EndChar

StartChar: S
Encoding: 83 83 54
Width: 1511
GlyphClass: 2
Flags: W
HStem: -20 123<451.425 858.376> 1407 124<648.087 973.167>
VStem: 300 187<1047.54 1259.54> 1206 205<427.673 682.188>
DStem2: 609 1008 576 819 0.979789 -0.200033<-110.033 642.02>
LayerCount: 2
Fore
SplineSet
80 263 m 1,0,-1
 237 350 l 1,1,-1
 249 328 l 1,2,3
 302 233 302 233 405 171 c 0,4,5
 519 103 519 103 646 103 c 2,6,-1
 660 103 l 2,7,8
 787 103 787 103 902 170 c 0,9,10
 1085 277 1085 277 1158 421 c 0,11,12
 1206 517 1206 517 1206 584 c 0,13,14
 1206 596 1206 596 1204 608 c 0,15,16
 1193 690 1193 690 1090 717 c 0,17,18
 1029 734 1029 734 815 774 c 2,19,20
 815 774 815 774 576 819 c 1,21,22
 446 845 446 845 381 914 c 1,23,24
 300 998 300 998 300 1081 c 2,25,26
 300 1081 300 1081 300 1083 c 0,27,28
 300 1200 300 1200 348 1272 c 0,29,30
 446 1417 446 1417 582 1477 c 0,31,32
 706 1531 706 1531 833 1531 c 2,33,-1
 837 1531 l 1,34,35
 960 1530 960 1530 1046 1489 c 1,36,37
 1119 1453 1119 1453 1169 1411 c 2,38,-1
 1193 1391 l 1,39,-1
 1057 1290 l 1,40,-1
 1042 1306 l 2,41,42
 1016 1334 1016 1334 979 1359 c 0,43,44
 910 1407 910 1407 816 1407 c 2,45,-1
 808 1407 l 2,46,47
 730 1407 730 1407 667 1374 c 0,48,49
 578 1328 578 1328 528 1255 c 0,50,51
 487 1195 487 1195 487 1144 c 0,52,53
 487 1138 487 1138 488 1133 c 0,54,55
 502 1036 502 1036 609 1008 c 0,56,57
 655 996 655 996 844 963 c 0,58,59
 1026 931 1026 931 1138 900 c 0,60,61
 1277 861 1277 861 1340 790 c 0,62,63
 1411 710 1411 710 1411 610 c 2,64,-1
 1411 600 l 2,65,66
 1411 471 1411 471 1325 335 c 1,67,68
 1225 174 1225 174 981 54 c 1,69,70
 838 -20 838 -20 656 -20 c 2,71,72
 656 -20 656 -20 633 -20 c 0,73,74
 470 -20 470 -20 353 36 c 1,75,76
 223 100 223 100 137 192 c 0,77,78
 116 214 116 214 97 240 c 2,79,-1
 80 263 l 1,0,-1
EndSplineSet
Validated: 1
EndChar

StartChar: T
Encoding: 84 84 55
Width: 1160
GlyphClass: 2
Flags: W
HStem: 0 21G<480 680> 1361 150<20 480 680 1140>
VStem: 480 200<0 1361>
LayerCount: 2
Fore
SplineSet
480 0 m 1,0,-1
 480 1361 l 1,1,-1
 20 1361 l 1,2,-1
 20 1511 l 1,3,-1
 1140 1511 l 1,4,-1
 1140 1361 l 1,5,-1
 680 1361 l 1,6,-1
 680 0 l 1,7,-1
 480 0 l 1,0,-1
EndSplineSet
Validated: 1
EndChar

StartChar: U
Encoding: 85 85 56
Width: 1571
GlyphClass: 2
Flags: W
HStem: -20 124<531.51 896.102> 0 21G<1171 1371> 1491 20G<200 400 1171 1371>
VStem: 200 200<234.879 1511> 1171 200<0 178 351.375 1511>
LayerCount: 2
Fore
SplineSet
1371 0 m 1,0,-1
 1171 0 l 1,1,-1
 1171 178 l 1,2,3
 1089 95 1089 95 954 36 c 0,4,5
 825 -20 825 -20 688 -20 c 2,6,7
 688 -20 688 -20 683 -20 c 0,8,9
 575 -20 575 -20 474 14 c 0,10,11
 386 43 386 43 323 102 c 0,12,13
 261 159 261 159 226 252 c 0,14,15
 201 320 201 320 200 407 c 1,16,-1
 200 1511 l 1,17,-1
 400 1511 l 1,18,-1
 400 409 l 1,19,20
 402 315 402 315 431 257 c 0,21,22
 468 185 468 185 538 144 c 0,23,24
 607 104 607 104 700 104 c 2,25,26
 700 104 700 104 712 104 c 0,27,28
 800 105 800 105 906 152 c 0,29,30
 1019 202 1019 202 1084 285 c 0,31,32
 1171 394 1171 394 1171 567 c 2,33,-1
 1171 1511 l 1,34,-1
 1371 1511 l 1,35,-1
 1371 0 l 1,0,-1
EndSplineSet
Validated: 1
EndChar

StartChar: V
Encoding: 86 86 57
Width: 1537
GlyphClass: 2
Flags: W
HStem: 0 21G<662.185 874.815> 1491 20G<5 228.829 1353.35 1532>
VStem: 5 215<1296 1511> 1362 170<1341 1511>
DStem2: 220 1511 5 1511 0.403327 -0.915056<0 1428.7> 797 204 866 0 0.403327 0.915056<0 1423.86>
LayerCount: 2
Fore
SplineSet
671 0 m 1,0,-1
 5 1511 l 1,1,-1
 220 1511 l 1,2,-1
 797 204 l 1,3,-1
 1362 1511 l 1,4,-1
 1532 1511 l 1,5,-1
 866 0 l 1,6,-1
 671 0 l 1,0,-1
EndSplineSet
Validated: 1
EndChar

StartChar: W
Encoding: 87 87 58
Width: 2510
GlyphClass: 2
Flags: W
HStem: -20 124<536.256 881.743 1470.17 1817.9> 1491 20G<200 400 1136 1336 1800 2077>
VStem: 200 200<236.979 1511> 1136 200<349.08 1511> 2209 201<560.207 1081.86>
LayerCount: 2
Fore
SplineSet
200 1511 m 1,0,-1
 400 1511 l 1,1,-1
 400 409 l 2,2,3
 400 309 400 309 431 257 c 0,4,5
 476 183 476 183 534 149 c 0,6,7
 610 104 610 104 708 104 c 2,8,-1
 712 104 l 2,9,10
 803 104 803 104 887 151 c 0,11,12
 983 204 983 204 1049 285 c 0,13,14
 1136 391 1136 391 1136 544 c 2,15,-1
 1136 1511 l 1,16,-1
 1336 1511 l 1,17,-1
 1336 409 l 2,18,19
 1336 316 1336 316 1367 257 c 0,20,21
 1404 187 1404 187 1470 149 c 0,22,23
 1546 104 1546 104 1644 104 c 2,24,-1
 1648 104 l 2,25,26
 1735 104 1735 104 1824 151 c 0,27,28
 1995 242 1995 242 2096 399 c 0,29,30
 2164 504 2164 504 2195 674 c 0,31,32
 2209 749 2209 749 2209 821 c 0,33,34
 2209 870 2209 870 2204 911 c 0,35,36
 2183 1088 2183 1088 2093 1224 c 1,37,38
 1993 1381 1993 1381 1828 1492 c 2,39,-1
 1800 1511 l 1,40,-1
 2072 1511 l 1,41,-1
 2077 1507 l 1,42,43
 2160 1444 2160 1444 2213 1377 c 0,44,45
 2303 1265 2303 1265 2359 1125 c 0,46,47
 2397 1030 2397 1030 2407 902 c 0,48,49
 2410 864 2410 864 2410 827 c 0,50,51
 2410 743 2410 743 2393 656 c 0,52,53
 2358 486 2358 486 2228 306 c 1,54,55
 2103 131 2103 131 1874 34 c 0,56,57
 1745 -20 1745 -20 1623 -20 c 2,58,-1
 1619 -20 l 2,59,60
 1510 -20 1510 -20 1410 14 c 0,61,62
 1316 47 1316 47 1258 105 c 1,63,64
 1207 158 1207 158 1178 222 c 1,65,66
 1047 83 1047 83 938 36 c 0,67,68
 809 -20 809 -20 687 -20 c 2,69,-1
 683 -20 l 2,70,71
 579 -20 579 -20 474 14 c 0,72,73
 381 45 381 45 322 103 c 0,74,75
 259 165 259 165 226 252 c 0,76,77
 202 317 202 317 200 407 c 1,78,-1
 200 1511 l 1,0,-1
EndSplineSet
Validated: 1
EndChar

StartChar: X
Encoding: 88 88 59
Width: 1381
GlyphClass: 2
Flags: W
HStem: 0 21G<5 217.437 1106.7 1376> 1491 20G<7 276.443 1166.72 1376>
VStem: 5 197<0 197> 7 255<1256 1511> 1121 255<0 255> 1182 194<1317 1511>
DStem2: 5 0 202 0 0.614519 0.788902<121.06 901.727 1136.32 1915.32> 262 1511 7 1511 0.593417 -0.804895<0 763.488 966.226 1725.94>
LayerCount: 2
Fore
SplineSet
5 0 m 1,0,-1
 578 736 l 1,1,-1
 7 1511 l 1,2,-1
 262 1511 l 1,3,-1
 709 892 l 1,4,-1
 1182 1511 l 1,5,-1
 1376 1511 l 1,6,-1
 805 775 l 1,7,-1
 1376 0 l 1,8,-1
 1121 0 l 1,9,-1
 679 618 l 1,10,-1
 202 0 l 1,11,-1
 5 0 l 1,0,-1
EndSplineSet
Validated: 1
EndChar

StartChar: Y
Encoding: 89 89 60
Width: 1372
GlyphClass: 2
Flags: W
HStem: 0 21G<573 773> 1491 20G<5 220.351 1185.35 1367>
VStem: 5 205<1306 1511> 573 200<0 416> 1196 171<1340 1511>
DStem2: 210 1511 5 1511 0.460459 -0.887681<0 1057.32> 696 572 773 416 0.476826 0.878998<0 1063.79>
LayerCount: 2
Fore
SplineSet
573 0 m 1,0,-1
 573 416 l 1,1,-1
 5 1511 l 1,2,-1
 210 1511 l 1,3,-1
 696 572 l 1,4,-1
 1196 1511 l 1,5,-1
 1367 1511 l 1,6,-1
 773 416 l 1,7,-1
 773 0 l 1,8,-1
 573 0 l 1,0,-1
EndSplineSet
Validated: 1
EndChar

StartChar: Z
Encoding: 90 90 61
Width: 1390
GlyphClass: 2
Flags: W
HStem: 0 150<400 1230> 1361 150<203 994.248>
VStem: 1015 200<918.094 1357.88>
LayerCount: 2
Fore
SplineSet
1230 0 m 1,0,-1
 70 0 l 1,1,-1
 70 150 l 1,2,-1
 89 160 l 1,3,4
 314 282 314 282 510 418 c 1,5,6
 693 547 693 547 812 672 c 1,7,8
 923 791 923 791 974 925 c 0,9,10
 1015 1033 1015 1033 1015 1155 c 0,11,12
 1015 1163 1015 1163 1015 1172 c 0,13,14
 1015 1261 1015 1261 981 1361 c 1,15,-1
 203 1361 l 1,16,-1
 203 1511 l 1,17,-1
 1138 1511 l 1,18,-1
 1145 1498 l 2,19,20
 1150 1488 1150 1488 1171 1434 c 0,21,22
 1215 1316 1215 1316 1215 1131 c 0,23,24
 1215 995 1215 995 1162 877 c 0,25,26
 1082 700 1082 700 933 553 c 0,27,28
 793 415 793 415 635 305 c 0,29,30
 487 203 487 203 400 150 c 1,31,-1
 1230 150 l 1,32,-1
 1230 0 l 1,0,-1
EndSplineSet
Validated: 19457
EndChar

StartChar: bracketleft
Encoding: 91 91 62
Width: 853
GlyphClass: 2
Flags: W
HStem: -289 150<400 803> 1668 150<400 803>
VStem: 200 200<-139 1668>
LayerCount: 2
Fore
SplineSet
200 -289 m 1,0,-1
 200 1818 l 1,1,-1
 803 1818 l 1,2,-1
 803 1668 l 1,3,-1
 400 1668 l 1,4,-1
 400 -139 l 1,5,-1
 803 -139 l 1,6,-1
 803 -289 l 1,7,-1
 200 -289 l 1,0,-1
EndSplineSet
Validated: 1
EndChar

StartChar: backslash
Encoding: 92 92 63
Width: 1181
GlyphClass: 2
Flags: W
VStem: 0 206<1481 1687> 975 206<-183 23>
DStem2: 206 1687 0 1687 0.462323 -0.886712<0 2013.68>
LayerCount: 2
Fore
SplineSet
0 1687 m 1,0,-1
 206 1687 l 1,1,-1
 1181 -183 l 1,2,-1
 975 -183 l 1,3,-1
 0 1687 l 1,0,-1
EndSplineSet
Validated: 1
EndChar

StartChar: bracketright
Encoding: 93 93 64
Width: 853
GlyphClass: 2
Flags: W
HStem: -289 150<50 453> 1668 150<50 453>
VStem: 453 200<-139 1668>
LayerCount: 2
Fore
SplineSet
653 -289 m 1,0,-1
 50 -289 l 1,1,-1
 50 -139 l 1,2,-1
 453 -139 l 1,3,-1
 453 1668 l 1,4,-1
 50 1668 l 1,5,-1
 50 1818 l 1,6,-1
 653 1818 l 1,7,-1
 653 -289 l 1,0,-1
EndSplineSet
Validated: 1
EndChar

StartChar: asciicircum
Encoding: 94 94 65
Width: 1476
GlyphClass: 2
Flags: W
HStem: 988 523
VStem: 100 205<988 1193> 1097 279<988 1267>
DStem2: 100 988 305 988 0.722785 0.691073<148.171 698.606> 829 1511 708 1363 0.722785 -0.691073<14.8217 555.137>
LayerCount: 2
Fore
SplineSet
100 988 m 1,0,-1
 647 1511 l 1,1,-1
 829 1511 l 1,2,-1
 1376 988 l 1,3,-1
 1097 988 l 1,4,-1
 708 1363 l 1,5,-1
 305 988 l 1,6,-1
 100 988 l 1,0,-1
EndSplineSet
Validated: 1
EndChar

StartChar: underscore
Encoding: 95 95 66
Width: 1183
GlyphClass: 2
Flags: W
HStem: -410 150<150 1033>
LayerCount: 2
Fore
SplineSet
1033 -410 m 1,0,-1
 150 -410 l 1,1,-1
 150 -260 l 1,2,-1
 1033 -260 l 1,3,-1
 1033 -410 l 1,0,-1
EndSplineSet
Validated: 1
EndChar

StartChar: grave
Encoding: 96 96 67
Width: 772
GlyphClass: 2
Flags: W
HStem: 1032 479
VStem: 150 472
DStem2: 256 1511 150 1403 0.702293 -0.711888<2.44076 521.15>
LayerCount: 2
Fore
SplineSet
515 1032 m 1,0,-1
 150 1403 l 1,1,-1
 256 1511 l 1,2,-1
 622 1140 l 1,3,-1
 515 1032 l 1,0,-1
EndSplineSet
Validated: 1
EndChar

StartChar: a
Encoding: 97 97 68
Width: 1297
GlyphClass: 2
Flags: W
HStem: -20 124<457.354 746.558> 0 21G<897 1097> 985 135<549.391 841.007>
VStem: 100 199<269.586 708.035> 897 200<0 920.899>
LayerCount: 2
Fore
SplineSet
1097 0 m 1,0,-1
 897 0 l 1,1,-1
 897 819 l 1,2,-1
 897 822 l 1,3,4
 892 887 892 887 860 922 c 0,5,6
 813 975 813 975 741 983 c 0,7,8
 726 985 726 985 710 985 c 0,9,10
 647 985 647 985 582 957 c 0,11,12
 448 899 448 899 372 776 c 0,13,14
 323 698 323 698 305 589 c 0,15,16
 299 554 299 554 299 507 c 0,17,18
 299 481 299 481 301 445 c 0,19,20
 306 355 306 355 339 279 c 256,21,22
 372 203 372 203 455 149 c 0,23,24
 525 104 525 104 612 104 c 2,25,-1
 626 104 l 2,26,27
 686 104 686 104 739 142 c 0,28,29
 785 175 785 175 816 225 c 0,30,31
 828 244 828 244 843 282 c 1,32,33
 849 271 849 271 849 227 c 0,34,35
 848 137 848 137 789 65 c 1,36,37
 721 -20 721 -20 600 -20 c 2,38,-1
 597 -20 l 2,39,40
 480 -20 480 -20 388 23 c 0,41,42
 287 70 287 70 226 133 c 1,43,44
 163 201 163 201 133 276 c 0,45,46
 106 342 106 342 101 446 c 0,47,48
 100 467 100 467 100 487 c 0,49,50
 100 550 100 550 111 605 c 0,51,52
 137 731 137 731 234 861 c 1,53,54
 326 987 326 987 491 1066 c 0,55,56
 604 1120 604 1120 747 1120 c 0,57,58
 871 1120 871 1120 973 1037 c 0,59,60
 1097 936 1097 936 1097 751 c 2,61,-1
 1097 0 l 1,0,-1
EndSplineSet
Validated: 1
EndChar

StartChar: b
Encoding: 98 98 69
Width: 1297
GlyphClass: 2
Flags: W
HStem: -20 135<455.862 747.984> 996 124<550.442 839.646> 1491 20G<200 400>
VStem: 200 200<179.101 1511> 998 199<392.93 830.414>
LayerCount: 2
Fore
SplineSet
200 1511 m 1,0,-1
 400 1511 l 1,1,-1
 400 281 l 1,2,-1
 400 278 l 1,3,4
 405 213 405 213 437 178 c 0,5,6
 484 125 484 125 556 117 c 0,7,8
 571 115 571 115 587 115 c 0,9,10
 650 115 650 115 715 143 c 0,11,12
 849 201 849 201 925 324 c 0,13,14
 974 402 974 402 992 511 c 0,15,16
 998 546 998 546 998 593 c 0,17,18
 998 619 998 619 996 655 c 0,19,20
 991 745 991 745 958 821 c 256,21,22
 925 897 925 897 842 951 c 0,23,24
 772 996 772 996 685 996 c 2,25,-1
 671 996 l 2,26,27
 611 996 611 996 558 958 c 0,28,29
 512 925 512 925 481 875 c 0,30,31
 469 856 469 856 454 818 c 1,32,33
 448 829 448 829 448 873 c 0,34,35
 449 963 449 963 508 1035 c 1,36,37
 576 1120 576 1120 697 1120 c 2,38,-1
 700 1120 l 2,39,40
 817 1120 817 1120 909 1077 c 1,41,42
 1010 1031 1010 1031 1070 967 c 0,43,44
 1142 891 1142 891 1165 823 c 0,45,46
 1193 738 1193 738 1196 653 c 0,47,48
 1197 625 1197 625 1197 597 c 0,49,50
 1197 551 1197 551 1186 495 c 0,51,52
 1160 371 1160 371 1063 239 c 0,53,54
 970 112 970 112 808 35 c 0,55,56
 692 -20 692 -20 550 -20 c 1,57,58
 410 -18 410 -18 323 65 c 0,59,60
 200 182 200 182 200 338 c 2,61,-1
 200 1511 l 1,0,-1
EndSplineSet
Validated: 1
EndChar

StartChar: c
Encoding: 99 99 70
Width: 1182
GlyphClass: 2
Flags: W
HStem: -20 123<459.062 764.922> 996 124<556.062 882.215>
VStem: 100 199<268.984 709.913>
LayerCount: 2
Fore
SplineSet
1093 227 m 1,0,-1
 1078 209 l 2,1,2
 992 105 992 105 853 37 c 0,3,4
 738 -20 738 -20 610 -20 c 2,5,-1
 597 -20 l 2,6,7
 476 -20 476 -20 388 23 c 1,8,9
 287 70 287 70 226 133 c 1,10,11
 162 201 162 201 133 276 c 1,12,13
 106 343 106 343 101 446 c 0,14,15
 100 467 100 467 100 488 c 0,16,17
 100 551 100 551 111 605 c 0,18,19
 141 743 141 743 234 862 c 0,20,21
 348 1006 348 1006 492 1066 c 0,22,23
 621 1120 621 1120 743 1120 c 2,24,25
 743 1120 743 1120 747 1120 c 0,26,27
 868 1120 868 1120 956 1078 c 1,28,29
 1029 1042 1029 1042 1078 1000 c 2,30,-1
 1102 980 l 1,31,-1
 967 879 l 1,32,-1
 952 895 l 2,33,34
 926 923 926 923 889 948 c 0,35,36
 820 996 820 996 726 996 c 2,37,-1
 718 996 l 2,38,39
 642 996 642 996 577 964 c 0,40,41
 449 901 449 901 372 777 c 0,42,43
 323 699 323 699 305 589 c 0,44,45
 299 555 299 555 299 507 c 0,46,47
 299 478 299 478 301 445 c 0,48,49
 306 352 306 352 339 279 c 0,50,51
 377 194 377 194 454 150 c 0,52,53
 535 103 535 103 616 103 c 2,54,-1
 622 103 l 2,55,56
 669 103 669 103 762 145 c 0,57,58
 884 200 884 200 958 313 c 1,59,-1
 974 337 l 1,60,-1
 1093 227 l 1,0,-1
EndSplineSet
Validated: 1
EndChar

StartChar: d
Encoding: 100 100 71
Width: 1297
GlyphClass: 2
Flags: W
HStem: -20 123<458.695 745> 0 21G<897 1097> 1024 96<586.795 819.281> 1491 20G<897 1097>
VStem: 100 199<268.984 709.913> 897 200<0 116 255.875 1511>
LayerCount: 2
Fore
SplineSet
1097 0 m 1,0,-1
 897 0 l 1,1,-1
 897 116 l 1,2,3
 872 88 872 88 836 59 c 0,4,5
 739 -20 739 -20 610 -20 c 2,6,-1
 597 -20 l 2,7,8
 480 -20 480 -20 388 23 c 0,9,10
 287 70 287 70 226 133 c 1,11,12
 162 201 162 201 133 276 c 1,13,14
 106 343 106 343 101 446 c 0,15,16
 100 467 100 467 100 488 c 0,17,18
 100 551 100 551 111 605 c 0,19,20
 140 743 140 743 234 862 c 0,21,22
 332 987 332 987 492 1066 c 0,23,24
 600 1120 600 1120 693 1120 c 2,25,-1
 710 1120 l 2,26,27
 793 1120 793 1120 826 1067 c 0,28,29
 843 1040 843 1040 834 1006 c 1,30,31
 797 1024 797 1024 736 1024 c 0,32,33
 705 1024 705 1024 663 1013 c 0,34,35
 619 1001 619 1001 574 972 c 0,36,37
 438 883 438 883 372 778 c 0,38,39
 325 703 325 703 305 590 c 0,40,41
 299 556 299 556 299 508 c 0,42,43
 299 479 299 479 301 446 c 0,44,45
 306 353 306 353 339 279 c 0,46,47
 376 195 376 195 454 150 c 1,48,49
 529 103 529 103 612 103 c 2,50,-1
 622 103 l 2,51,52
 691 103 691 103 771 165 c 0,53,54
 824 206 824 206 856 261 c 0,55,56
 889 317 889 317 897 361 c 1,57,-1
 897 1511 l 1,58,-1
 1097 1511 l 1,59,-1
 1097 0 l 1,0,-1
EndSplineSet
Validated: 1
EndChar

StartChar: e
Encoding: 101 101 72
Width: 1182
GlyphClass: 2
Flags: W
HStem: -20 123<458.641 765.801> 487 150<314 862> 996 124<553.448 882.215>
VStem: 100 199<266.656 487>
LayerCount: 2
Fore
SplineSet
1093 227 m 1,0,-1
 1078 209 l 2,1,2
 992 106 992 106 853 37 c 0,3,4
 740 -20 740 -20 610 -20 c 2,5,-1
 597 -20 l 2,6,7
 476 -20 476 -20 388 23 c 1,8,9
 287 70 287 70 226 133 c 1,10,11
 162 201 162 201 133 276 c 1,12,13
 106 343 106 343 101 446 c 0,14,15
 100 467 100 467 100 488 c 0,16,17
 100 551 100 551 111 605 c 0,18,19
 141 744 141 744 234 862 c 0,20,21
 348 1007 348 1007 492 1066 c 1,22,23
 621 1120 621 1120 743 1120 c 2,24,25
 743 1120 743 1120 747 1120 c 0,26,27
 868 1120 868 1120 956 1078 c 1,28,29
 1029 1042 1029 1042 1078 1000 c 2,30,-1
 1102 980 l 1,31,-1
 967 878 l 1,32,-1
 951 895 l 1,33,34
 929 921 929 921 889 948 c 0,35,36
 820 996 820 996 726 996 c 2,37,-1
 718 996 l 2,38,39
 642 996 642 996 577 964 c 0,40,41
 449 902 449 902 372 779 c 0,42,43
 335 721 335 721 314 637 c 1,44,-1
 862 637 l 1,45,-1
 862 487 l 1,46,-1
 299 487 l 1,47,48
 300 459 300 459 301 442 c 0,49,50
 307 349 307 349 339 277 c 0,51,52
 376 193 376 193 454 149 c 0,53,54
 535 103 535 103 616 103 c 2,55,-1
 622 103 l 2,56,57
 669 103 669 103 762 145 c 0,58,59
 884 200 884 200 958 313 c 1,60,-1
 974 337 l 1,61,-1
 1093 227 l 1,0,-1
EndSplineSet
Validated: 1
EndChar

StartChar: f
Encoding: 102 102 73
Width: 1036
GlyphClass: 2
Flags: W
HStem: 0 21G<200 400> 769 144<114 200 400 785> 1408 123<553.167 833.019>
VStem: 200 200<0 769 916 1207.78>
LayerCount: 2
Fore
SplineSet
200 0 m 1,0,-1
 200 771 l 1,1,-1
 114 771 l 1,2,-1
 114 916 l 1,3,-1
 200 916 l 1,4,-1
 200 1000 l 2,5,6
 200 1191 200 1191 323 1328 c 1,7,8
 383 1401 383 1401 463 1454 c 0,9,10
 579 1531 579 1531 692 1531 c 2,11,12
 692 1531 692 1531 700 1531 c 0,13,14
 823 1531 823 1531 909 1488 c 0,15,16
 987 1449 987 1449 1033 1410 c 1,17,-1
 1056 1389 l 1,18,-1
 919 1290 l 1,19,-1
 904 1306 l 2,20,21
 875 1337 875 1337 842 1359 c 0,22,23
 769 1408 769 1408 685 1408 c 2,24,-1
 675 1408 l 2,25,26
 603 1408 603 1408 526 1343 c 0,27,28
 476 1300 476 1300 442 1235 c 0,29,30
 403 1161 403 1161 400 1081 c 1,31,-1
 400 913 l 1,32,-1
 785 913 l 1,33,-1
 785 769 l 1,34,-1
 400 769 l 1,35,-1
 400 0 l 1,36,-1
 200 0 l 1,0,-1
EndSplineSet
Validated: 1
EndChar

StartChar: g
Encoding: 103 103 74
Width: 1299
GlyphClass: 2
Flags: W
HStem: -410 123<317.696 625.125> -20 124<459.354 748.558> 985 135<551.18 842.201>
VStem: 102 199<269.586 707.509> 899 200<16.2891 928.449>
LayerCount: 2
Fore
SplineSet
100 -271 m 1,0,-1
 227 -163 l 1,1,-1
 244 -182 l 1,2,3
 273 -216 273 -216 310 -238 c 0,4,5
 392 -287 392 -287 478 -287 c 0,6,7
 540 -287 540 -287 622 -245 c 1,8,9
 745 -184 745 -184 827 -55 c 0,10,11
 881 30 881 30 895 147 c 1,12,13
 899 171 899 171 899 239 c 0,14,15
 899 250 899 250 899 268 c 1,16,-1
 899 819 l 1,17,-1
 899 822 l 1,18,19
 893 887 893 887 861 922 c 1,20,21
 815 975 815 975 743 983 c 0,22,23
 728 985 728 985 712 985 c 0,24,25
 649 985 649 985 584 957 c 0,26,27
 449 899 449 899 373 776 c 0,28,29
 324 698 324 698 306 589 c 0,30,31
 301 554 301 554 301 507 c 0,32,33
 301 481 301 481 303 445 c 0,34,35
 307 355 307 355 341 279 c 0,36,37
 374 203 374 203 457 149 c 0,38,39
 527 104 527 104 614 104 c 2,40,-1
 628 104 l 2,41,42
 688 104 688 104 741 142 c 0,43,44
 787 175 787 175 818 225 c 0,45,46
 829 244 829 244 845 282 c 1,47,48
 851 271 851 271 851 227 c 0,49,50
 850 137 850 137 791 65 c 1,51,52
 723 -20 723 -20 602 -20 c 2,53,-1
 599 -20 l 2,54,55
 482 -20 482 -20 390 23 c 0,56,57
 289 70 289 70 228 133 c 1,58,59
 164 201 164 201 134 276 c 0,60,61
 108 342 108 342 103 446 c 0,62,63
 102 467 102 467 102 487 c 0,64,65
 102 550 102 550 113 605 c 0,66,67
 140 731 140 731 235 861 c 0,68,69
 329 988 329 988 492 1066 c 0,70,71
 607 1120 607 1120 749 1120 c 0,72,73
 871 1120 871 1120 975 1037 c 0,74,75
 1098 938 1098 938 1099 750 c 1,76,-1
 1099 280 l 2,77,78
 1099 162 1099 162 1088 117 c 0,79,80
 1058 -13 1058 -13 966 -139 c 1,81,82
 869 -274 869 -274 709 -353 c 0,83,84
 595 -410 595 -410 466 -410 c 2,85,-1
 453 -410 l 2,86,87
 331 -410 331 -410 244 -367 c 0,88,89
 173 -333 173 -333 122 -290 c 2,90,-1
 100 -271 l 1,0,-1
EndSplineSet
Validated: 1
EndChar

StartChar: h
Encoding: 104 104 75
Width: 1382
GlyphClass: 2
Flags: W
HStem: 0 21G<200 400 982 1182> 985 135<634.742 926.007> 1491 20G<200 400>
VStem: 200 200<0 756.628 942 1511> 982 200<0 920.868>
LayerCount: 2
Fore
SplineSet
200 0 m 1,0,-1
 200 1511 l 1,1,-1
 400 1511 l 1,2,-1
 400 942 l 1,3,4
 476 1013 476 1013 576 1063 c 0,5,6
 688 1120 688 1120 832 1120 c 0,7,8
 956 1120 956 1120 1058 1037 c 0,9,10
 1182 936 1182 936 1182 751 c 2,11,-1
 1182 0 l 1,12,-1
 982 0 l 1,13,-1
 982 818 l 1,14,-1
 982 821 l 1,15,16
 977 886 977 886 945 922 c 0,17,18
 898 975 898 975 826 983 c 0,19,20
 811 985 811 985 795 985 c 0,21,22
 733 985 733 985 667 957 c 1,23,24
 538 900 538 900 456 775 c 1,25,26
 403 692 403 692 400 591 c 1,27,-1
 400 0 l 1,28,-1
 200 0 l 1,0,-1
EndSplineSet
Validated: 1
EndChar

StartChar: i
Encoding: 105 105 76
Width: 600
GlyphClass: 2
Flags: W
HStem: 0 130<419.816 566> 1080 20G<200 400> 1276 255<214.129 389.809>
VStem: 176 252<1315.22 1492.81> 200 200<163.662 1100>
LayerCount: 2
Fore
SplineSet
566 0 m 1,0,-1
 487 0 l 2,1,2
 363 0 363 0 287 50 c 0,3,4
 200 107 200 107 200 229 c 2,5,-1
 200 1100 l 1,6,-1
 400 1100 l 1,7,-1
 400 234 l 1,8,-1
 400 230 l 1,9,10
 402 184 402 184 419 163 c 0,11,12
 445 133 445 133 486 130 c 1,13,-1
 566 130 l 1,14,-1
 566 0 l 1,0,-1
176 1404 m 0,15,16
 176 1456 176 1456 213 1493 c 1,17,18
 248 1531 248 1531 302 1531 c 0,19,20
 354 1531 354 1531 391 1494 c 0,21,22
 428 1456 428 1456 428 1404 c 0,23,24
 428 1351 428 1351 391 1313 c 1,25,26
 353 1276 353 1276 302 1276 c 0,27,28
 249 1276 249 1276 213 1314 c 0,29,30
 176 1353 176 1353 176 1404 c 0,15,16
EndSplineSet
Validated: 1
EndChar

StartChar: j
Encoding: 106 106 77
Width: 604
GlyphClass: 2
Flags: W
HStem: -410 130<0 168.146> 1080 20G<200 400> 1276 255<214.129 389.809>
VStem: 176 252<1315.22 1499.79> 200 200<-224.987 1100>
LayerCount: 2
Fore
SplineSet
0 -410 m 1,0,-1
 0 -280 l 1,1,-1
 71 -280 l 2,2,3
 138 -280 138 -280 177 -226 c 0,4,5
 200 -194 200 -194 200 -109 c 2,6,-1
 200 1100 l 1,7,-1
 400 1100 l 1,8,-1
 400 -105 l 1,9,10
 398 -236 398 -236 314 -317 c 0,11,12
 218 -410 218 -410 113 -410 c 2,13,-1
 0 -410 l 1,0,-1
176 1404 m 0,14,15
 176 1456 176 1456 213 1493 c 1,16,17
 248 1531 248 1531 302 1531 c 0,18,19
 355 1531 355 1531 391 1493 c 0,20,21
 428 1455 428 1455 428 1403 c 2,22,-1
 428 1402 l 2,23,24
 428 1351 428 1351 391 1313 c 1,25,26
 353 1276 353 1276 302 1276 c 0,27,28
 249 1276 249 1276 213 1314 c 0,29,30
 176 1353 176 1353 176 1404 c 0,14,15
EndSplineSet
Validated: 1
EndChar

StartChar: k
Encoding: 107 107 78
Width: 1351
GlyphClass: 2
Flags: W
HStem: 0 21G<200 400 982.299 1346> 188 131<400 584.375> 1080 20G<911 1117> 1491 20G<200 400>
VStem: 200 200<0 194.562 319 1511> 955 199<677.259 1099.91> 1014 332<0 332>
DStem2: 826 329 632 241 0.845064 -0.534665<0 334.777>
LayerCount: 2
Fore
SplineSet
200 0 m 1,0,-1
 200 1511 l 1,1,-1
 400 1511 l 1,2,-1
 400 319 l 1,3,4
 518 331 518 331 636 384 c 0,5,6
 743 433 743 433 832 538 c 0,7,8
 893 610 893 610 925 703 c 0,9,10
 955 789 955 789 955 870 c 2,11,12
 955 870 955 870 955 875 c 0,13,14
 955 962 955 962 931 1050 c 0,15,16
 925 1071 925 1071 914 1094 c 2,17,-1
 911 1100 l 1,18,-1
 1116 1100 l 1,19,-1
 1117 1098 l 1,20,21
 1127 1074 1127 1074 1135 1044 c 0,22,23
 1153 980 1153 980 1154 902 c 0,24,25
 1154 885 1154 885 1153 872 c 0,26,27
 1144 759 1144 759 1108 673 c 1,28,29
 1075 586 1075 586 1003 493 c 0,30,31
 934 404 934 404 826 329 c 1,32,-1
 1346 0 l 1,33,-1
 1014 0 l 1,34,-1
 632 241 l 1,35,-1
 618 236 l 1,36,37
 518 204 518 204 400 188 c 1,38,-1
 400 0 l 1,39,-1
 200 0 l 1,0,-1
EndSplineSet
Validated: 1
EndChar

StartChar: l
Encoding: 108 108 79
Width: 600
GlyphClass: 2
Flags: W
HStem: 0 130<419.816 566> 1491 20G<200 400>
VStem: 200 200<164.632 1511>
LayerCount: 2
Fore
SplineSet
566 0 m 1,0,-1
 487 0 l 2,1,2
 363 0 363 0 287 51 c 1,3,4
 200 108 200 108 200 231 c 2,5,-1
 200 1511 l 1,6,-1
 400 1511 l 1,7,-1
 400 235 l 1,8,-1
 400 232 l 1,9,10
 402 184 402 184 419 164 c 0,11,12
 445 133 445 133 486 130 c 1,13,-1
 566 130 l 1,14,-1
 566 0 l 1,0,-1
EndSplineSet
Validated: 1
EndChar

StartChar: m
Encoding: 109 109 80
Width: 2164
GlyphClass: 2
Flags: W
HStem: 0 21G<200 400 982 1182 1764 1964> 984 136<631.374 926.637 1413.37 1708.01> 1080 20G<200 400>
VStem: 200 200<0 755.056 943 1100> 982 200<0 755.251> 1764 200<0 920.868>
CounterMasks: 1 1c
LayerCount: 2
Fore
SplineSet
200 0 m 1,0,-1
 200 1100 l 1,1,-1
 400 1100 l 1,2,-1
 400 943 l 1,3,4
 475 1013 475 1013 576 1063 c 0,5,6
 689 1120 689 1120 832 1120 c 0,7,8
 957 1120 957 1120 1058 1033 c 0,9,10
 1118 982 1118 982 1149 909 c 1,11,12
 1233 1001 1233 1001 1358 1063 c 0,13,14
 1471 1120 1471 1120 1614 1120 c 0,15,16
 1738 1120 1738 1120 1840 1037 c 0,17,18
 1964 936 1964 936 1964 751 c 2,19,-1
 1964 0 l 1,20,-1
 1764 0 l 1,21,-1
 1764 818 l 1,22,-1
 1764 821 l 1,23,24
 1759 886 1759 886 1727 922 c 0,25,26
 1680 975 1680 975 1608 983 c 0,27,28
 1593 985 1593 985 1577 985 c 0,29,30
 1515 985 1515 985 1449 957 c 1,31,32
 1322 901 1322 901 1238 774 c 0,33,34
 1182 689 1182 689 1182 591 c 2,35,-1
 1182 0 l 1,36,-1
 982 0 l 1,37,-1
 982 818 l 1,38,-1
 982 821 l 1,39,40
 977 886 977 886 945 922 c 0,41,42
 895 978 895 978 827 983 c 0,43,44
 815 984 815 984 801 984 c 0,45,46
 731 984 731 984 667 957 c 0,47,48
 540 902 540 902 456 774 c 0,49,50
 400 688 400 688 400 591 c 2,51,-1
 400 0 l 1,52,-1
 200 0 l 1,0,-1
EndSplineSet
Validated: 1
EndChar

StartChar: n
Encoding: 110 110 81
Width: 1382
GlyphClass: 2
Flags: W
HStem: 0 21G<200 400 982 1182> 984 136<631.374 926.399> 1080 20G<200 400>
VStem: 200 200<0 755.056 943 1100> 982 200<0 920.868>
LayerCount: 2
Fore
SplineSet
200 0 m 1,0,-1
 200 1100 l 1,1,-1
 400 1100 l 1,2,-1
 400 943 l 1,3,4
 475 1013 475 1013 576 1063 c 0,5,6
 689 1120 689 1120 832 1120 c 0,7,8
 956 1120 956 1120 1058 1037 c 0,9,10
 1182 936 1182 936 1182 751 c 2,11,-1
 1182 0 l 1,12,-1
 982 0 l 1,13,-1
 982 818 l 1,14,-1
 982 821 l 1,15,16
 977 886 977 886 945 922 c 0,17,18
 895 978 895 978 827 983 c 0,19,20
 815 984 815 984 801 984 c 0,21,22
 731 984 731 984 667 957 c 0,23,24
 540 902 540 902 456 774 c 0,25,26
 400 688 400 688 400 591 c 2,27,-1
 400 0 l 1,28,-1
 200 0 l 1,0,-1
EndSplineSet
Validated: 1
EndChar

StartChar: o
Encoding: 111 111 82
Width: 1344
GlyphClass: 2
Flags: W
HStem: -20 123<459.062 770.258> 996 124<552.788 886.297>
VStem: 100 199<268.984 709.913> 1045 199<392.447 830.414>
LayerCount: 2
Fore
SplineSet
747 1120 m 1,0,1
 870 1119 870 1119 956 1077 c 1,2,3
 1057 1030 1057 1030 1117 967 c 0,4,5
 1181 900 1181 900 1211 824 c 0,6,7
 1238 758 1238 758 1243 653 c 0,8,9
 1244 633 1244 633 1244 603 c 0,10,11
 1244 551 1244 551 1233 495 c 0,12,13
 1207 370 1207 370 1110 239 c 1,14,15
 1018 113 1018 113 853 34 c 0,16,17
 740 -20 740 -20 610 -20 c 2,18,19
 610 -20 610 -20 597 -20 c 0,20,21
 476 -20 476 -20 388 23 c 1,22,23
 287 70 287 70 226 133 c 1,24,25
 162 201 162 201 133 276 c 1,26,27
 106 343 106 343 101 446 c 0,28,29
 100 467 100 467 100 488 c 0,30,31
 100 551 100 551 111 605 c 0,32,33
 140 743 140 743 234 862 c 0,34,35
 350 1009 350 1009 492 1066 c 1,36,37
 622 1120 622 1120 747 1120 c 1,0,1
718 996 m 0,38,39
 641 995 641 995 576 964 c 0,40,41
 450 902 450 902 371 777 c 1,42,43
 323 699 323 699 305 589 c 0,44,45
 299 555 299 555 299 507 c 0,46,47
 299 478 299 478 301 445 c 0,48,49
 306 352 306 352 339 279 c 0,50,51
 377 194 377 194 454 150 c 0,52,53
 535 103 535 103 616 103 c 2,54,55
 616 103 616 103 622 103 c 0,56,57
 670 103 670 103 762 143 c 0,58,59
 895 200 895 200 972 323 c 0,60,61
 1021 401 1021 401 1039 511 c 0,62,63
 1045 545 1045 545 1045 593 c 0,64,65
 1045 618 1045 618 1043 655 c 0,66,67
 1038 745 1038 745 1005 821 c 256,68,69
 972 897 972 897 889 951 c 0,70,71
 820 996 820 996 730 996 c 2,72,73
 730 996 730 996 718 996 c 0,38,39
EndSplineSet
Validated: 1
EndChar

StartChar: p
Encoding: 112 112 83
Width: 1297
GlyphClass: 2
Flags: W
HStem: -410 21G<200 400> -20 96<477.719 710.205> 997 123<552 838.305> 1080 20G<200 400>
VStem: 200 200<-410 844.125 984 1100> 998 199<390.087 831.016>
LayerCount: 2
Fore
SplineSet
200 1100 m 1,0,-1
 400 1100 l 1,1,-1
 400 984 l 1,2,3
 425 1012 425 1012 461 1041 c 0,4,5
 558 1120 558 1120 687 1120 c 2,6,-1
 700 1120 l 2,7,8
 817 1120 817 1120 909 1077 c 0,9,10
 1010 1030 1010 1030 1071 967 c 1,11,12
 1135 899 1135 899 1164 824 c 1,13,14
 1191 757 1191 757 1196 654 c 0,15,16
 1197 633 1197 633 1197 612 c 0,17,18
 1197 549 1197 549 1186 495 c 0,19,20
 1157 357 1157 357 1063 238 c 0,21,22
 965 113 965 113 805 34 c 0,23,24
 697 -20 697 -20 604 -20 c 2,25,-1
 587 -20 l 2,26,27
 504 -20 504 -20 471 33 c 0,28,29
 454 60 454 60 463 94 c 1,30,31
 500 76 500 76 561 76 c 0,32,33
 592 76 592 76 634 87 c 0,34,35
 678 99 678 99 723 128 c 0,36,37
 859 217 859 217 925 322 c 0,38,39
 972 397 972 397 992 510 c 0,40,41
 998 544 998 544 998 592 c 0,42,43
 998 621 998 621 996 654 c 0,44,45
 991 747 991 747 958 821 c 0,46,47
 921 905 921 905 843 950 c 1,48,49
 768 997 768 997 685 997 c 2,50,-1
 675 997 l 2,51,52
 606 997 606 997 526 935 c 0,53,54
 473 894 473 894 441 839 c 0,55,56
 408 783 408 783 400 739 c 1,57,-1
 400 -410 l 1,58,-1
 200 -410 l 1,59,-1
 200 1100 l 1,0,-1
EndSplineSet
Validated: 1
EndChar

StartChar: q
Encoding: 113 113 84
Width: 1302
GlyphClass: 2
Flags: W
HStem: -410 21G<897 1104.16> -35 20G<1274.78 1297> -20 124<457.354 746.558> 985 135<549.578 840.293>
VStem: 100 199<269.586 707.509> 897 200<-195 920.899>
LayerCount: 2
Fore
SplineSet
388 23 m 0,0,1
 287 70 287 70 226 133 c 1,2,3
 162 201 162 201 133 276 c 1,4,5
 106 342 106 342 101 446 c 0,6,7
 100 467 100 467 100 487 c 0,8,9
 100 550 100 550 111 605 c 0,10,11
 138 731 138 731 234 861 c 0,12,13
 327 988 327 988 491 1066 c 0,14,15
 605 1120 605 1120 747 1120 c 0,16,17
 868 1120 868 1120 973 1036 c 0,18,19
 1096 938 1096 938 1097 749 c 1,20,-1
 1097 -195 l 1,21,-1
 1297 -15 l 1,22,-1
 1297 -216 l 1,23,-1
 1082 -410 l 1,24,-1
 897 -410 l 1,25,-1
 897 819 l 1,26,-1
 897 822 l 1,27,28
 892 887 892 887 860 922 c 0,29,30
 813 975 813 975 741 983 c 0,31,32
 726 985 726 985 710 985 c 0,33,34
 647 985 647 985 582 957 c 0,35,36
 448 899 448 899 372 776 c 0,37,38
 323 698 323 698 305 589 c 0,39,40
 299 554 299 554 299 507 c 0,41,42
 299 481 299 481 301 445 c 0,43,44
 306 355 306 355 339 279 c 256,45,46
 372 203 372 203 455 149 c 0,47,48
 525 104 525 104 612 104 c 2,49,-1
 626 104 l 2,50,51
 686 104 686 104 739 142 c 0,52,53
 785 175 785 175 816 225 c 0,54,55
 828 244 828 244 843 282 c 1,56,57
 849 271 849 271 849 227 c 0,58,59
 848 137 848 137 789 65 c 1,60,61
 721 -20 721 -20 600 -20 c 2,62,-1
 597 -20 l 2,63,64
 480 -20 480 -20 388 23 c 0,0,1
EndSplineSet
Validated: 1
EndChar

StartChar: r
Encoding: 114 114 85
Width: 1036
GlyphClass: 2
Flags: W
HStem: 0 21G<200 400> 997 123<552.519 833.501> 1080 20G<200 400>
VStem: 200 200<0 845.816 984 1100>
LayerCount: 2
Fore
SplineSet
200 0 m 1,0,-1
 200 1100 l 1,1,-1
 400 1100 l 1,2,-1
 400 984 l 1,3,4
 425 1012 425 1012 461 1041 c 0,5,6
 558 1120 558 1120 687 1120 c 2,7,8
 687 1120 687 1120 700 1120 c 0,9,10
 824 1120 824 1120 909 1077 c 0,11,12
 988 1038 988 1038 1033 999 c 1,13,-1
 1056 978 l 1,14,-1
 920 879 l 1,15,-1
 905 895 l 2,16,17
 873 929 873 929 842 948 c 1,18,19
 769 997 769 997 685 997 c 2,20,-1
 676 997 l 1,21,22
 606 994 606 994 525 934 c 0,23,24
 471 894 471 894 441 839 c 0,25,26
 401 768 401 768 399 634 c 1,27,-1
 400 0 l 1,28,-1
 200 0 l 1,0,-1
EndSplineSet
Validated: 1
EndChar

StartChar: s
Encoding: 115 115 86
Width: 1171
GlyphClass: 2
Flags: W
HStem: -20 123<399.157 718.158> 996 124<493.788 750.708>
VStem: 224 164<742.905 896.348> 897 174<265.935 476.379>
DStem2: 440 737 573 547 0.976429 -0.215837<-60.3062 505.537>
LayerCount: 2
Fore
SplineSet
80 262 m 1,0,-1
 250 356 l 1,1,-1
 261 329 l 1,2,-1
 277 288 l 2,3,4
 312 200 312 200 391 152 c 0,5,6
 473 103 473 103 553 103 c 2,7,-1
 559 103 l 2,8,9
 640 103 640 103 716 146 c 0,10,11
 806 198 806 198 851 263 c 0,12,13
 897 331 897 331 897 391 c 0,14,15
 897 408 897 408 893 425 c 0,16,17
 879 479 879 479 787 503 c 0,18,19
 752 512 752 512 573 547 c 1,20,21
 361 587 361 587 320 618 c 0,22,23
 224 690 224 690 224 787 c 2,24,-1
 224 799 l 1,25,26
 228 876 228 876 285 950 c 0,27,28
 335 1015 335 1015 427 1065 c 0,29,30
 526 1120 526 1120 638 1120 c 2,31,-1
 646 1120 l 2,32,33
 731 1120 731 1120 819 1078 c 0,34,35
 881 1048 881 1048 937 997 c 2,36,-1
 960 976 l 1,37,-1
 823 875 l 1,38,-1
 808 896 l 2,39,40
 790 922 790 922 751 951 c 0,41,42
 692 996 692 996 617 996 c 0,43,44
 576 996 576 996 515 964 c 0,45,46
 464 937 464 937 436 901 c 0,47,48
 397 851 397 851 390 817 c 0,49,50
 388 808 388 808 388 803 c 0,51,52
 390 760 390 760 440 737 c 1,53,54
 453 733 453 733 630 702 c 0,55,56
 821 668 821 668 905 634 c 0,57,58
 1057 572 1057 572 1070 446 c 0,59,60
 1071 436 1071 436 1071 411 c 0,61,62
 1071 306 1071 306 992 194 c 0,63,64
 922 95 922 95 803 38 c 0,65,66
 682 -20 682 -20 547 -20 c 2,67,-1
 534 -20 l 2,68,69
 413 -20 413 -20 326 23 c 1,70,71
 224 72 224 72 164 138 c 0,72,73
 118 188 118 188 91 240 c 2,74,-1
 80 262 l 1,0,-1
EndSplineSet
Validated: 1
EndChar

StartChar: t
Encoding: 116 116 87
Width: 745
GlyphClass: 2
Flags: W
HStem: 0 130<456.816 603> 950 150<100 237 437 725> 1491 20G<237 437>
VStem: 237 200<163.631 950 1100 1511>
LayerCount: 2
Fore
SplineSet
603 0 m 5,0,-1
 524 0 l 6,1,2
 400 0 400 0 324 50 c 4,3,4
 237 106 237 106 237 227 c 6,5,-1
 237 950 l 5,6,-1
 100 950 l 5,7,-1
 100 1100 l 5,8,-1
 237 1100 l 5,9,-1
 237 1511 l 5,10,-1
 437 1511 l 5,11,-1
 437 1100 l 5,12,-1
 725 1100 l 5,13,-1
 725 950 l 5,14,-1
 437 950 l 5,15,-1
 437 233 l 5,16,-1
 437 229 l 5,17,18
 439 183 439 183 456 163 c 4,19,20
 482 133 482 133 523 130 c 5,21,-1
 603 130 l 5,22,-1
 603 0 l 5,0,-1
EndSplineSet
Validated: 1
EndChar

StartChar: u
Encoding: 117 117 88
Width: 1382
GlyphClass: 2
Flags: W
HStem: -20 136<455.601 750.626> 0 21G<982 1182> 1080 20G<200 400 982 1182>
VStem: 200 200<179.132 1100> 982 200<0 157 344.944 1100>
LayerCount: 2
Fore
SplineSet
1182 0 m 1,0,-1
 982 0 l 1,1,-1
 982 157 l 1,2,3
 907 87 907 87 806 37 c 0,4,5
 693 -20 693 -20 550 -20 c 0,6,7
 426 -20 426 -20 324 63 c 0,8,9
 200 164 200 164 200 349 c 2,10,-1
 200 1100 l 1,11,-1
 400 1100 l 1,12,-1
 400 282 l 1,13,-1
 400 279 l 1,14,15
 405 214 405 214 437 178 c 0,16,17
 487 122 487 122 555 117 c 0,18,19
 567 116 567 116 581 116 c 0,20,21
 651 116 651 116 715 143 c 0,22,23
 842 198 842 198 926 326 c 0,24,25
 982 412 982 412 982 509 c 2,26,-1
 982 1100 l 1,27,-1
 1182 1100 l 1,28,-1
 1182 0 l 1,0,-1
EndSplineSet
Validated: 1
EndChar

StartChar: v
Encoding: 118 118 89
Width: 1239
GlyphClass: 2
Flags: W
HStem: 0 21G<513.582 726.4> 1080 20G<5 230.354 1053.6 1234>
VStem: 5 216<884 1100> 1063 171<929 1100>
DStem2: 221 1100 5 1100 0.426035 -0.904707<0 991.361> 641 202 717 0 0.425361 0.905024<0 992.214>
LayerCount: 2
Fore
SplineSet
523 0 m 1,0,-1
 5 1100 l 1,1,-1
 221 1100 l 1,2,-1
 641 202 l 1,3,-1
 1063 1100 l 1,4,-1
 1234 1100 l 1,5,-1
 717 0 l 1,6,-1
 523 0 l 1,0,-1
EndSplineSet
Validated: 1
EndChar

StartChar: w
Encoding: 119 119 90
Width: 2129
GlyphClass: 2
Flags: W
HStem: -20 135<456.145 746.297 1238.08 1564.54> 1080 20G<200 400 982 1182 1512 1796>
VStem: 200 200<179.132 1100> 982 200<348.766 1100> 1831 198<393.8 809.471>
LayerCount: 2
Fore
SplineSet
200 1100 m 1,0,-1
 400 1100 l 1,1,-1
 400 282 l 1,2,-1
 400 279 l 1,3,4
 405 214 405 214 437 178 c 0,5,6
 485 124 485 124 556 117 c 0,7,8
 573 115 573 115 590 115 c 0,9,10
 654 115 654 115 714 143 c 0,11,12
 860 211 860 211 925 324 c 0,13,14
 982 424 982 424 982 509 c 2,15,-1
 982 1100 l 1,16,-1
 1182 1100 l 1,17,-1
 1182 282 l 1,18,-1
 1182 279 l 1,19,20
 1187 214 1187 214 1219 178 c 0,21,22
 1268 123 1268 123 1337 117 c 0,23,24
 1356 115 1356 115 1375 115 c 0,25,26
 1470 115 1470 115 1554 154 c 0,27,28
 1688 215 1688 215 1758 326 c 0,29,30
 1809 407 1809 407 1824 514 c 0,31,32
 1831 561 1831 561 1831 604 c 0,33,34
 1831 632 1831 632 1828 658 c 0,35,36
 1814 778 1814 778 1748 884 c 1,37,38
 1676 997 1676 997 1530 1090 c 1,39,-1
 1512 1100 l 1,40,-1
 1792 1100 l 1,41,-1
 1796 1096 l 1,42,43
 1836 1069 1836 1069 1905 989 c 0,44,45
 1960 925 1960 925 1997 828 c 1,46,47
 2023 757 2023 757 2028 657 c 0,48,49
 2029 636 2029 636 2029 604 c 0,50,51
 2029 553 2029 553 2018 497 c 0,52,53
 1992 371 1992 371 1895 240 c 0,54,55
 1799 109 1799 109 1652 44 c 0,56,57
 1509 -20 1509 -20 1337 -20 c 2,58,-1
 1332 -20 l 2,59,60
 1207 -20 1207 -20 1106 67 c 0,61,62
 1046 118 1046 118 1015 191 c 1,63,64
 931 99 931 99 806 37 c 0,65,66
 693 -20 693 -20 550 -20 c 0,67,68
 426 -20 426 -20 324 63 c 0,69,70
 200 164 200 164 200 349 c 2,71,-1
 200 1100 l 1,0,-1
EndSplineSet
Validated: 1
EndChar

StartChar: x
Encoding: 120 120 91
Width: 1247
GlyphClass: 2
Flags: W
HStem: 0 21G<80 292.508 895.579 1166> 1080 20G<82 352.421 955.492 1167>
VStem: 80 197<0 197> 82 256<844 1100> 910 256<0 256> 971 196<904 1100>
DStem2: 80 0 277 0 0.629422 0.777064<123.996 659.144 880.437 1415.59> 338 1100 82 1100 0.601394 -0.798953<0 521.382 701.463 1222.85>
LayerCount: 2
Fore
SplineSet
80 0 m 1,0,-1
 510 531 l 1,1,-1
 82 1100 l 1,2,-1
 338 1100 l 1,3,-1
 643 677 l 1,4,-1
 971 1100 l 1,5,-1
 1167 1100 l 1,6,-1
 738 569 l 1,7,-1
 1166 0 l 1,8,-1
 910 0 l 1,9,-1
 605 423 l 1,10,-1
 277 0 l 1,11,-1
 80 0 l 1,0,-1
EndSplineSet
Validated: 1
EndChar

StartChar: y
Encoding: 121 121 92
Width: 1383
GlyphClass: 2
Flags: W
HStem: -410 123<401.785 705.327> -20 136<456.271 749.488> 1080 20G<201 401 983 1183>
VStem: 201 200<179.132 1100> 983 200<10.5547 155 347.125 1100>
LayerCount: 2
Fore
SplineSet
183 -271 m 1,0,-1
 310 -163 l 1,1,-1
 326 -181 l 2,2,3
 357 -216 357 -216 393 -238 c 0,4,5
 476 -287 476 -287 553 -287 c 2,6,-1
 562 -287 l 2,7,8
 610 -287 610 -287 701 -245 c 0,9,10
 840 -182 840 -182 912 -55 c 0,11,12
 966 42 966 42 979 145 c 0,13,14
 979 150 979 150 980 155 c 1,15,16
 906 87 906 87 807 37 c 0,17,18
 694 -20 694 -20 551 -20 c 0,19,20
 426 -20 426 -20 324 63 c 0,21,22
 201 164 201 164 201 349 c 2,23,-1
 201 1100 l 1,24,-1
 401 1100 l 1,25,-1
 401 282 l 1,26,-1
 401 279 l 1,27,28
 406 214 406 214 438 178 c 0,29,30
 488 122 488 122 555 117 c 0,31,32
 568 116 568 116 582 116 c 0,33,34
 651 116 651 116 715 143 c 0,35,36
 844 199 844 199 926 325 c 0,37,38
 983 413 983 413 983 509 c 2,39,-1
 983 1100 l 1,40,-1
 1183 1100 l 1,41,-1
 1183 282 l 2,42,43
 1183 181 1183 181 1172 119 c 1,44,45
 1153 -1 1153 -1 1050 -139 c 1,46,47
 955 -273 955 -273 793 -353 c 0,48,49
 679 -410 679 -410 550 -410 c 2,50,-1
 537 -410 l 2,51,52
 416 -410 416 -410 328 -368 c 1,53,54
 255 -332 255 -332 205 -290 c 2,55,-1
 183 -271 l 1,0,-1
EndSplineSet
Validated: 1
EndChar

StartChar: z
Encoding: 122 122 93
Width: 1171
GlyphClass: 2
Flags: W
HStem: 0 150<70 90 487 1011> 950 150<178 802.25>
VStem: 809 202<630.232 947.676>
LayerCount: 2
Fore
SplineSet
70 0 m 1,0,-1
 70 145 l 1,1,-1
 90 149 l 1,2,3
 307 194 307 194 523 327 c 1,4,5
 651 411 651 411 733 533 c 0,6,7
 786 611 786 611 803 715 c 0,8,9
 809 750 809 750 809 797 c 0,10,11
 809 821 809 821 807 858 c 0,12,13
 804 906 804 906 794 950 c 1,14,-1
 178 950 l 1,15,-1
 178 1100 l 1,16,-1
 942 1100 l 1,17,-1
 949 1100 l 1,18,19
 965 1072 965 1072 975 1045 c 0,20,21
 1007 963 1007 963 1007 833 c 0,22,23
 1007 780 1007 780 991 713 c 0,24,25
 958 569 958 569 874 456 c 1,26,27
 776 322 776 322 627 224 c 0,28,29
 569 185 569 185 487 150 c 1,30,-1
 1011 150 l 1,31,-1
 1011 0 l 1,32,-1
 70 0 l 1,0,-1
EndSplineSet
Validated: 19457
EndChar

StartChar: braceleft
Encoding: 123 123 94
Width: 918
GlyphClass: 2
Flags: W
HStem: -287 150<608.05 868> 683 150<50 286> 1668 150<592.667 868>
VStem: 286 195<-3.53906 683 833 1562>
LayerCount: 2
Fore
SplineSet
868 -287 m 1,0,-1
 724 -287 l 2,1,2
 544 -287 544 -287 415 -157 c 1,3,4
 287 -26 287 -26 287 152 c 2,5,-1
 287 273 l 1,6,-1
 286 683 l 1,7,-1
 50 683 l 1,8,-1
 50 833 l 1,9,-1
 286 833 l 1,10,-1
 286 1389 l 2,11,12
 286 1573 286 1573 405 1695 c 0,13,14
 526 1818 526 1818 714 1818 c 2,15,-1
 868 1818 l 1,16,-1
 868 1668 l 1,17,-1
 808 1668 l 2,18,19
 627 1668 627 1668 555 1598 c 1,20,21
 481 1528 481 1528 481 1400 c 2,22,-1
 481 138 l 2,23,24
 481 33 481 33 574 -66 c 0,25,26
 641 -137 641 -137 807 -137 c 2,27,-1
 868 -137 l 1,28,-1
 868 -287 l 1,0,-1
EndSplineSet
Validated: 1
EndChar

StartChar: bar
Encoding: 124 124 95
Width: 653
GlyphClass: 2
Flags: W
VStem: 250 152<-186 1695>
LayerCount: 2
Fore
SplineSet
250 -186 m 1,0,-1
 250 1695 l 1,1,-1
 403 1695 l 1,2,-1
 402 -186 l 1,3,-1
 250 -186 l 1,0,-1
EndSplineSet
Validated: 1
EndChar

StartChar: braceright
Encoding: 125 125 96
Width: 918
GlyphClass: 2
Flags: W
HStem: -287 150<50 309.95> 683 150<632 868> 1668 150<50 325.333>
VStem: 437 195<-3.53906 683 833 1562>
LayerCount: 2
Fore
SplineSet
50 -287 m 1,0,-1
 50 -137 l 1,1,-1
 111 -137 l 2,2,3
 277 -137 277 -137 344 -66 c 0,4,5
 437 33 437 33 437 138 c 2,6,-1
 437 1400 l 2,7,8
 437 1528 437 1528 363 1598 c 1,9,10
 291 1668 291 1668 110 1668 c 2,11,-1
 50 1668 l 1,12,-1
 50 1818 l 1,13,-1
 204 1818 l 2,14,15
 392 1818 392 1818 513 1695 c 0,16,17
 632 1573 632 1573 632 1389 c 2,18,-1
 632 833 l 1,19,-1
 868 833 l 1,20,-1
 868 683 l 1,21,-1
 632 683 l 1,22,-1
 631 273 l 1,23,-1
 631 152 l 2,24,25
 631 -26 631 -26 503 -157 c 1,26,27
 374 -287 374 -287 194 -287 c 2,28,-1
 50 -287 l 1,0,-1
EndSplineSet
Validated: 1
EndChar

StartChar: asciitilde
Encoding: 126 126 97
Width: 1343
GlyphClass: 2
Flags: W
HStem: 555 179<830.062 1006.43> 803 176<351.973 536.07>
DStem2: 618 935 520 771 0.803842 -0.594843<-63.5799 362.373>
LayerCount: 2
Fore
SplineSet
150 674 m 1,0,-1
 155 691 l 1,1,2
 222 924 222 924 400 970 c 0,3,4
 435 979 435 979 482 979 c 0,5,6
 502 979 502 979 530 974 c 0,7,8
 576 966 576 966 618 935 c 0,9,10
 813 790 813 790 852 761 c 1,11,-1
 868 750 l 2,12,13
 891 734 891 734 921 734 c 0,14,15
 944 734 944 734 964 743 c 0,16,17
 1038 775 1038 775 1055 933 c 2,18,-1
 1060 977 l 1,19,-1
 1193 873 l 1,20,-1
 1190 858 l 1,21,22
 1150 652 1150 652 1012 584 c 0,23,24
 954 555 954 555 900 555 c 2,25,-1
 896 555 l 2,26,27
 842 555 842 555 797 573 c 1,28,29
 761 586 761 586 730 610 c 2,30,-1
 520 771 l 2,31,32
 479 803 479 803 440 803 c 0,33,34
 431 803 431 803 424 801 c 0,35,36
 326 782 326 782 287 614 c 1,37,-1
 278 577 l 1,38,-1
 150 674 l 1,0,-1
EndSplineSet
Validated: 1
EndChar

StartChar: exclamdown
Encoding: 161 161 99
Width: 742
GlyphClass: 2
Flags: W
HStem: 0 21G<271 471> 1276 255<282.129 458.809>
VStem: 245 252<1315.16 1491.84> 271 200<0 1158>
LayerCount: 2
Fore
SplineSet
497 1398 m 0,0,1
 497 1350 497 1350 461 1312 c 0,2,3
 428 1276 428 1276 371 1276 c 0,4,5
 317 1276 317 1276 281 1314 c 0,6,7
 245 1351 245 1351 245 1403 c 0,8,9
 245 1456 245 1456 281 1493 c 0,10,11
 317 1531 317 1531 371 1531 c 0,12,13
 422 1531 422 1531 460 1494 c 1,14,15
 497 1456 497 1456 497 1398 c 0,0,1
471 1158 m 1,16,-1
 471 0 l 1,17,-1
 271 0 l 1,18,-1
 271 1158 l 1,19,-1
 471 1158 l 1,16,-1
EndSplineSet
Validated: 1
EndChar

StartChar: cent
Encoding: 162 162 100
Width: 1182
GlyphClass: 2
Flags: W
HStem: -19 139<438.649 562>
VStem: 100 199<255.673 704.654> 562 200<-186 -14.3516 139 979 1120 1282>
DStem2: 1078 1003 889 954 0.784046 -0.620703<-219.992 -15.0275>
LayerCount: 2
Fore
SplineSet
1093 217 m 1,0,-1
 1078 200 l 1,1,2
 962 67 962 67 853 15 c 0,3,4
 810 -6 810 -6 762 -19 c 1,5,-1
 762 -186 l 1,6,-1
 562 -186 l 1,7,-1
 562 -19 l 1,8,9
 458 -11 458 -11 388 21 c 0,10,11
 287 67 287 67 226 131 c 1,12,13
 162 200 162 200 133 274 c 0,14,15
 106 341 106 341 101 445 c 0,16,17
 100 465 100 465 100 486 c 0,18,19
 100 559 100 559 112 604 c 0,20,21
 149 751 149 751 234 868 c 0,22,23
 353 1033 353 1033 492 1092 c 0,24,25
 514 1102 514 1102 562 1118 c 1,26,-1
 562 1282 l 1,27,-1
 762 1282 l 1,28,-1
 762 1120 l 1,29,30
 872 1116 872 1116 956 1078 c 1,31,32
 1031 1042 1031 1042 1078 1003 c 1,33,-1
 1102 984 l 1,34,-1
 967 887 l 1,35,-1
 951 903 l 1,36,37
 927 929 927 929 889 954 c 0,38,39
 833 991 833 991 762 998 c 1,40,-1
 762 139 l 1,41,42
 884 191 884 191 958 299 c 2,43,-1
 974 322 l 1,44,-1
 1093 217 l 1,0,-1
562 120 m 1,45,-1
 562 979 l 1,46,47
 444 912 444 912 372 789 c 0,48,49
 323 707 323 707 305 591 c 0,50,51
 299 555 299 555 299 505 c 0,52,53
 299 474 299 474 301 439 c 0,54,55
 308 321 308 321 341 259.5 c 128,-1,56
 374 198 374 198 456 154 c 0,57,58
 495 133 495 133 562 120 c 1,45,-1
EndSplineSet
Validated: 1
EndChar

StartChar: sterling
Encoding: 163 163 101
Width: 1186
GlyphClass: 2
Flags: W
HStem: 0 150<106 200 400 1106> 669 150<106 200 400 822> 1408 123<549.94 833.019>
VStem: 200 200<150 669 819 1211.49>
LayerCount: 2
Fore
SplineSet
106 0 m 1,0,-1
 106 150 l 1,1,-1
 200 150 l 1,2,-1
 200 669 l 1,3,-1
 106 669 l 1,4,-1
 106 819 l 1,5,-1
 200 819 l 1,6,-1
 200 1006 l 2,7,8
 200 1193 200 1193 323 1333 c 0,9,10
 385 1403 385 1403 463 1454 c 1,11,12
 578 1531 578 1531 692 1531 c 2,13,14
 692 1531 692 1531 700 1531 c 0,15,16
 823 1531 823 1531 909 1488 c 0,17,18
 987 1449 987 1449 1033 1410 c 1,19,-1
 1056 1389 l 1,20,-1
 919 1290 l 1,21,-1
 904 1306 l 2,22,23
 875 1337 875 1337 842 1359 c 0,24,25
 769 1408 769 1408 685 1408 c 2,26,-1
 675 1408 l 2,27,28
 603 1408 603 1408 526 1346 c 0,29,30
 476 1305 476 1305 442 1242 c 0,31,32
 403 1168 403 1168 400 1088 c 1,33,-1
 400 819 l 1,34,-1
 822 819 l 1,35,-1
 822 669 l 1,36,-1
 400 669 l 1,37,-1
 400 150 l 1,38,-1
 1106 150 l 1,39,-1
 1106 0 l 1,40,-1
 106 0 l 1,0,-1
EndSplineSet
Validated: 1
EndChar

StartChar: currency
Encoding: 164 164 102
Width: 1673
GlyphClass: 2
Flags: W
HStem: 221 116<617.281 954.381> 1180 117<713.007 1056.58>
VStem: 264 199<494.506 910> 1209 199<610.76 1025.61>
DStem2: 208 1492 100 1384 0.706848 -0.707366<0.0559273 444.119 1477.63 1930.46> 100 126 207 19 0.707366 0.706848<0.0554094 380.221 1555.25 1930.4>
LayerCount: 2
Fore
SplineSet
883 1180 m 0,0,1
 804 1180 804 1180 740 1149 c 0,2,3
 611 1088 611 1088 535 972 c 0,4,5
 486 897 486 897 469 796 c 0,6,7
 463 762 463 762 463 718 c 0,8,9
 463 691 463 691 465 660 c 0,10,11
 471 572 471 572 503 504 c 0,12,13
 540 424 540 424 617 381 c 1,14,15
 701 337 701 337 776 337 c 2,16,17
 776 337 776 337 786 337 c 0,18,19
 870 337 870 337 960 384 c 1,20,21
 1069 443 1069 443 1137 546 c 0,22,23
 1186 620 1186 620 1204 722 c 0,24,25
 1209 754 1209 754 1209 799 c 0,26,27
 1209 824 1209 824 1207 859 c 0,28,29
 1203 942 1203 942 1170 1015 c 0,30,31
 1137 1087 1137 1087 1054 1138 c 0,32,33
 986 1180 986 1180 895 1180 c 2,34,35
 895 1180 895 1180 883 1180 c 0,0,1
100 126 m 1,36,-1
 365 392 l 1,37,38
 321 442 321 442 297 498 c 1,39,40
 271 562 271 562 265 661 c 0,41,42
 264 680 264 680 264 700 c 0,43,44
 264 759 264 759 276 811 c 0,45,46
 306 949 306 949 400 1055 c 1,47,48
 400 1055 400 1055 414 1070 c 1,49,-1
 100 1384 l 1,50,-1
 208 1492 l 1,51,-1
 526 1174 l 1,52,53
 588 1219 588 1219 657 1246 c 0,54,55
 786 1297 786 1297 906 1297 c 2,56,57
 906 1297 906 1297 911 1297 c 0,58,59
 1032 1297 1032 1297 1119 1259 c 0,60,61
 1161 1241 1161 1241 1194 1221 c 1,62,-1
 1464 1492 l 1,63,-1
 1573 1384 l 1,64,-1
 1311 1122 l 1,65,66
 1354 1072 1354 1072 1376 1019 c 0,67,68
 1402 954 1402 954 1407 857 c 0,69,70
 1408 838 1408 838 1408 804 c 0,71,72
 1408 759 1408 759 1397 707 c 0,73,74
 1373 598 1373 598 1274 465 c 0,75,76
 1266 454 1266 454 1256 443 c 1,77,-1
 1573 126 l 1,78,-1
 1465 19 l 1,79,-1
 1143 341 l 1,80,81
 1089 305 1089 305 1017 272 c 0,82,83
 902 221 902 221 775 221 c 2,84,85
 775 221 775 221 761 221 c 0,86,87
 641 221 641 221 553 259 c 0,88,89
 516 275 516 275 483 294 c 1,90,-1
 207 19 l 1,91,-1
 100 126 l 1,36,-1
EndSplineSet
Validated: 1
EndChar

StartChar: yen
Encoding: 165 165 103
Width: 1475
GlyphClass: 2
Flags: W
HStem: 0 21G<630 830> 507 150<216 501 962 1258> 795 150<216 353 646 861 1114 1258> 1491 20G<50 277.671 1241.94 1425>
VStem: 50 217<1294 1511> 630 200<0 410> 1253 172<1339 1511>
DStem2: 267 1511 50 1511 0.466078 -0.884744<0 540.848 810.12 864.633> 861 795 962 657 0.475433 0.879752<-73.387 0 252.247 816.272>
LayerCount: 2
Fore
SplineSet
630 0 m 1,0,-1
 630 410 l 1,1,-1
 578 507 l 1,2,-1
 216 507 l 1,3,-1
 216 657 l 1,4,-1
 501 657 l 1,5,-1
 430 795 l 1,6,-1
 216 795 l 1,7,-1
 216 945 l 1,8,-1
 353 945 l 1,9,-1
 50 1511 l 1,10,-1
 267 1511 l 1,11,-1
 569 945 l 1,12,-1
 940 945 l 1,13,-1
 1253 1511 l 1,14,-1
 1425 1511 l 1,15,-1
 1114 945 l 1,16,-1
 1258 945 l 1,17,-1
 1258 795 l 1,18,-1
 1035 795 l 1,19,-1
 962 657 l 1,20,-1
 1258 657 l 1,21,-1
 1258 507 l 1,22,-1
 884 507 l 1,23,-1
 830 410 l 1,24,-1
 830 0 l 1,25,-1
 630 0 l 1,0,-1
716 657 m 1,26,-1
 788 657 l 1,27,-1
 861 795 l 1,28,-1
 646 795 l 1,29,-1
 716 657 l 1,26,-1
EndSplineSet
Validated: 1
EndChar

StartChar: brokenbar
Encoding: 166 166 104
Width: 652
GlyphClass: 2
Flags: W
VStem: 250 152<-186 672 837 1695>
LayerCount: 2
Fore
SplineSet
250 -186 m 1,0,-1
 250 672 l 1,1,-1
 402 672 l 1,2,-1
 402 -186 l 1,3,-1
 250 -186 l 1,0,-1
250 837 m 1,4,-1
 250 1695 l 1,5,-1
 402 1695 l 1,6,-1
 402 837 l 1,7,-1
 250 837 l 1,4,-1
EndSplineSet
Validated: 1
EndChar

StartChar: section
Encoding: 167 167 105
Width: 1220
GlyphClass: 2
Flags: W
HStem: -20 124<470.292 725.283> 1407 124<494.717 749.708>
VStem: 150 174<655.919 891.286> 223 164<1138.88 1303.77> 833 164<207.234 372.116> 896 174<612.224 855.081>
DStem2: 439 1135 571 929 0.980946 -0.194281<-58.8566 496.857> 435 627 591 412 0.980946 -0.19428<-108.685 447.028>
LayerCount: 2
Fore
SplineSet
261 124 m 1,0,-1
 400 226 l 1,1,-1
 415 204 l 2,2,3
 433 176 433 176 470 149 c 0,4,5
 529 104 529 104 604 104 c 0,6,7
 646 104 646 104 707 138 c 0,8,9
 758 166 758 166 786 204 c 0,10,11
 825 256 825 256 831 292 c 0,12,13
 833 301 833 301 833 306 c 0,14,15
 831 352 831 352 781 376 c 1,16,17
 769 379 769 379 591 412 c 0,18,19
 400 448 400 448 316 484 c 0,20,21
 164 549 164 549 151 681 c 0,22,23
 150 692 150 692 150 711 c 0,24,25
 150 828 150 828 235 967 c 1,26,-1
 384 912 l 1,27,28
 324 843 324 843 324 745 c 0,29,30
 324 727 324 727 328 709 c 0,31,32
 342 652 342 652 435 627 c 0,33,34
 470 618 470 618 649 582 c 0,35,36
 861 539 861 539 901 507 c 0,37,38
 997 431 997 431 997 329 c 2,39,-1
 997 317 l 1,40,41
 995 236 995 236 936 158 c 0,42,43
 885 90 885 90 795 37 c 1,44,45
 696 -20 696 -20 583 -20 c 2,46,-1
 575 -20 l 2,47,48
 490 -20 490 -20 402 22 c 0,49,50
 341 52 341 52 284 103 c 2,51,-1
 261 124 l 1,0,-1
959 1387 m 1,52,-1
 820 1285 l 1,53,-1
 805 1307 l 2,54,55
 788 1333 788 1333 750 1362 c 0,56,57
 691 1407 691 1407 616 1407 c 0,58,59
 574 1407 574 1407 513 1373 c 0,60,61
 462 1345 462 1345 434 1307 c 0,62,63
 395 1255 395 1255 389 1219 c 0,64,65
 387 1210 387 1210 387 1205 c 0,66,67
 389 1159 389 1159 439 1135 c 1,68,69
 451 1132 451 1132 629 1099 c 0,70,71
 820 1063 820 1063 904 1027 c 0,72,73
 1056 962 1056 962 1069 830 c 0,74,75
 1070 819 1070 819 1070 794 c 0,76,77
 1070 670 1070 670 990 541 c 1,78,-1
 841 596 l 1,79,80
 896 664 896 664 896 766 c 0,81,82
 896 784 896 784 892 802 c 0,83,84
 878 859 878 859 785 884 c 0,85,86
 750 893 750 893 571 929 c 0,87,88
 359 972 359 972 319 1004 c 0,89,90
 223 1080 223 1080 223 1182 c 2,91,-1
 223 1195 l 1,92,93
 226 1275 226 1275 284 1353 c 0,94,95
 334 1420 334 1420 425 1474 c 1,96,97
 524 1531 524 1531 637 1531 c 2,98,-1
 645 1531 l 2,99,100
 730 1531 730 1531 818 1489 c 0,101,102
 879 1459 879 1459 936 1408 c 2,103,-1
 959 1387 l 1,52,-1
EndSplineSet
Validated: 1
EndChar

StartChar: dieresis
Encoding: 168 168 106
Width: 925
GlyphClass: 2
Flags: W
HStem: 1256 255<187.129 363.809 561.129 736.809>
VStem: 150 252<1295.16 1471.84> 523 252<1295.22 1472.9>
LayerCount: 2
Fore
SplineSet
523 1384 m 0,0,1
 523 1436 523 1436 560 1473 c 1,2,3
 595 1511 595 1511 649 1511 c 0,4,5
 700 1511 700 1511 738 1474 c 0,6,7
 773 1439 773 1439 775 1385 c 1,8,9
 775 1331 775 1331 738 1293 c 1,10,11
 700 1256 700 1256 649 1256 c 0,12,13
 596 1256 596 1256 560 1294 c 0,14,15
 523 1333 523 1333 523 1384 c 0,0,1
150 1384 m 0,16,17
 150 1436 150 1436 186 1473 c 0,18,19
 222 1511 222 1511 276 1511 c 0,20,21
 327 1511 327 1511 365 1474 c 0,22,23
 400 1439 400 1439 402 1385 c 1,24,25
 402 1331 402 1331 365 1293 c 1,26,27
 327 1256 327 1256 276 1256 c 0,28,29
 222 1256 222 1256 186 1294 c 0,30,31
 150 1331 150 1331 150 1384 c 0,16,17
EndSplineSet
Validated: 1
EndChar

StartChar: copyright
Encoding: 169 169 107
Width: 1451
GlyphClass: 2
Flags: W
HStem: 155 129<533.944 917.158> 374 116<587.619 820.714> 1002 117<644.924 887.962> 1226 130<532.505 919.908>
VStem: 150 124<552.531 957.219> 378 150<549.945 880.463> 1176 125<549.133 960.97>
LayerCount: 2
Fore
SplineSet
1034 569 m 1,0,-1
 1008 535 l 1,1,2
 952 460 952 460 855 410 c 0,3,4
 783 374 783 374 703 374 c 0,5,6
 619 374 619 374 561 402 c 0,7,8
 444 457 444 457 399 570 c 0,9,10
 383 609 383 609 379 681 c 0,11,12
 378 695 378 695 378 709 c 0,13,14
 378 749 378 749 386 785 c 0,15,16
 404 875 404 875 462 951 c 1,17,18
 532 1046 532 1046 622 1084 c 0,19,20
 704 1119 704 1119 779 1119 c 2,21,-1
 780 1119 l 1,22,23
 864 1118 864 1118 913 1092 c 0,24,25
 972 1062 972 1062 1034 999 c 1,26,-1
 924 910 l 1,27,-1
 901 942 l 2,28,29
 888 961 888 961 860 979 c 0,30,31
 822 1002 822 1002 774 1002 c 2,32,-1
 767 1002 l 1,33,34
 723 1000 723 1000 686 982 c 0,35,36
 615 948 615 948 569 876 c 0,37,38
 543 837 543 837 531 766 c 0,39,40
 528 749 528 749 528 722 c 0,41,42
 528 706 528 706 530 682 c 0,43,44
 534 626 534 626 551 585 c 0,45,46
 570 541 570 541 613 515 c 0,47,48
 653 490 653 490 698 490 c 2,49,-1
 704 490 l 2,50,51
 732 490 732 490 783 514 c 0,52,53
 853 546 853 546 902 613 c 1,54,-1
 926 648 l 1,55,-1
 1034 569 l 1,0,-1
726 1226 m 128,-1,57
 633 1226 633 1226 555 1192 c 256,58,59
 477 1158 477 1158 409 1088 c 0,60,61
 342 1018 342 1018 308 935 c 0,62,63
 274 851 274 851 274 759 c 2,64,-1
 274 754 l 2,65,66
 274 671 274 671 308 575 c 0,67,68
 335 501 335 501 428 404 c 0,69,70
 478 352 478 352 554 319 c 0,71,72
 634 284 634 284 726 284 c 256,73,74
 818 284 818 284 898 319 c 0,75,76
 977 353 977 353 1044 423 c 0,77,78
 1110 492 1110 492 1143 574 c 0,79,80
 1176 657 1176 657 1176 754 c 0,81,82
 1176 856 1176 856 1143 936 c 0,83,84
 1120 990 1120 990 1084 1041 c 1,85,86
 1065 1065 1065 1065 1044 1088 c 0,87,88
 978 1158 978 1158 898 1192 c 0,89,56
 819 1226 819 1226 726 1226 c 128,-1,57
726 1356 m 0,90,91
 841 1356 841 1356 946 1311 c 0,92,93
 1047 1268 1047 1268 1133 1178 c 1,94,95
 1217 1092 1217 1092 1259 984 c 1,96,97
 1301 879 1301 879 1301 754 c 0,98,99
 1301 633 1301 633 1259 526 c 1,100,101
 1220 423 1220 423 1133 333 c 0,102,103
 1050 246 1050 246 946 200 c 0,104,105
 843 155 843 155 726 155 c 0,106,107
 610 155 610 155 505 200 c 0,108,109
 404 243 404 243 318 333 c 0,110,111
 234 420 234 420 192 526 c 0,112,113
 150 631 150 631 150 754 c 0,114,115
 150 878 150 878 192 984 c 0,116,117
 233 1090 233 1090 318 1178 c 0,118,119
 403 1267 403 1267 506 1312 c 0,120,121
 608 1356 608 1356 726 1356 c 0,90,91
EndSplineSet
Validated: 1
EndChar

StartChar: ordfeminine
Encoding: 170 170 108
Width: 1183
GlyphClass: 2
Flags: W
HStem: 693 150<150 1033> 896 127<500.976 676.312> 1398 133<538.883 700.021>
VStem: 303 164<1055.92 1321.25> 702 165<906 937 1048.35 1395.51>
LayerCount: 2
Fore
SplineSet
1033 693 m 1,0,-1
 150 693 l 1,1,-1
 150 843 l 1,2,-1
 1033 843 l 1,3,-1
 1033 693 l 1,0,-1
598 1023 m 1,4,5
 652 1025 652 1025 702 1100 c 1,6,-1
 702 1343 l 1,7,-1
 702 1344 l 1,8,9
 700 1366 700 1366 687 1381.5 c 128,-1,10
 674 1397 674 1397 654 1398 c 1,11,12
 555 1398 555 1398 500 1304 c 0,13,14
 467 1248 467 1248 467 1179 c 0,15,16
 467 1081 467 1081 530 1041 c 1,17,18
 559 1024 559 1024 590 1023 c 1,19,-1
 598 1023 l 1,4,5
867 906 m 1,20,-1
 702 906 l 1,21,-1
 702 937 l 1,22,23
 653 896 653 896 585 896 c 2,24,-1
 584 896 l 1,25,26
 454 898 454 898 374 986 c 0,27,28
 303 1065 303 1065 303 1168 c 0,29,30
 303 1202 303 1202 313.5 1255.5 c 128,-1,31
 324 1309 324 1309 375 1381.5 c 128,-1,32
 426 1454 426 1454 503 1492.5 c 128,-1,33
 580 1531 580 1531 657 1531 c 128,-1,34
 734 1531 734 1531 800 1474 c 256,35,36
 866 1417 866 1417 866 1306 c 2,37,-1
 867 906 l 1,20,-1
EndSplineSet
Validated: 1
EndChar

StartChar: guillemotleft
Encoding: 171 171 109
Width: 1409
GlyphClass: 2
Flags: W
HStem: 124 280<393 673 929 1209> 1196 205<468 673 1004 1209>
DStem2: 150 859 298 799 0.690413 0.723415<58.7762 609.217> 298 799 150 678 0.691073 -0.722785<0 540.316> 686 853 834 793 0.690413 0.723415<58.7762 609.217> 834 793 686 678 0.686469 -0.727159<0 540.291>
LayerCount: 2
Fore
SplineSet
1209 1401 m 1,0,-1
 1209 1196 l 1,1,-1
 834 793 l 1,2,-1
 1209 404 l 1,3,-1
 1209 124 l 1,4,-1
 686 678 l 1,5,-1
 686 853 l 1,6,-1
 1209 1401 l 1,0,-1
673 1407 m 1,7,-1
 673 1202 l 1,8,-1
 298 799 l 1,9,-1
 673 410 l 1,10,-1
 673 131 l 1,11,-1
 150 678 l 1,12,-1
 150 859 l 1,13,-1
 673 1407 l 1,7,-1
EndSplineSet
Validated: 1
EndChar

StartChar: logicalnot
Encoding: 172 172 110
Width: 1183
GlyphClass: 2
Flags: W
HStem: 693 150<150 883>
VStem: 883 150<436 693>
LayerCount: 2
Fore
SplineSet
1033 436 m 1,0,-1
 883 436 l 1,1,-1
 883 693 l 1,2,-1
 150 693 l 1,3,-1
 150 843 l 1,4,-1
 1033 843 l 1,5,-1
 1033 436 l 1,0,-1
EndSplineSet
Validated: 1
EndChar

StartChar: uni00AD
Encoding: 173 173 111
Width: 1183
GlyphClass: 2
Flags: W
HStem: 693 150<150 1033>
LayerCount: 2
Fore
SplineSet
1033 693 m 1,0,-1
 150 693 l 1,1,-1
 150 843 l 1,2,-1
 1033 843 l 1,3,-1
 1033 693 l 1,0,-1
EndSplineSet
Validated: 1
EndChar

StartChar: registered
Encoding: 174 174 112
Width: 1451
GlyphClass: 2
Flags: W
HStem: 155 129<533.944 917.773> 1014 116<648.893 830.51> 1226 130<533.642 919.908>
VStem: 150 124<552.148 958.087> 446 151<394 593 683.749 962.679 1083 1119> 853 148<734.026 994.577> 1176 125<548.386 960.97>
LayerCount: 2
Fore
SplineSet
726 1356 m 0,0,1
 841 1356 841 1356 946 1311 c 0,2,3
 1047 1268 1047 1268 1133 1178 c 1,4,5
 1217 1092 1217 1092 1259 984 c 1,6,7
 1301 879 1301 879 1301 754 c 0,8,9
 1301 633 1301 633 1259 526 c 1,10,11
 1220 423 1220 423 1133 333 c 0,12,13
 1050 246 1050 246 946 200 c 0,14,15
 843 155 843 155 726 155 c 0,16,17
 610 155 610 155 505 200 c 0,18,19
 404 243 404 243 318 333 c 0,20,21
 234 420 234 420 192 525.5 c 128,-1,22
 150 631 150 631 150 754 c 0,23,24
 150 879 150 879 192 985 c 128,-1,25
 234 1091 234 1091 318 1178 c 0,26,27
 403 1267 403 1267 505 1311.5 c 128,-1,28
 607 1356 607 1356 726 1356 c 0,0,1
597 706 m 1,29,30
 625 678 625 678 696 678 c 0,31,32
 719 678 719 678 752 692 c 0,33,34
 800 712 800 712 826 760 c 0,35,36
 844 792 844 792 851 834 c 0,37,38
 853 846 853 846 853 864 c 0,39,40
 853 879 853 879 852 890 c 0,41,42
 850 925 850 925 838 955 c 0,43,44
 826 983 826 983 803 999 c 0,45,46
 782 1014 782 1014 748 1014 c 2,47,-1
 746 1014 l 2,48,49
 716 1014 716 1014 687 997 c 0,50,51
 648 974 648 974 628 947 c 0,52,53
 597 906 597 906 597 842 c 2,54,-1
 597 706 l 1,29,30
449 1119 m 1,55,-1
 597 1122 l 1,56,-1
 597 1083 l 1,57,58
 609 1091 609 1091 638 1104 c 0,59,60
 696 1130 696 1130 756 1130 c 2,61,-1
 758 1130 l 2,62,63
 817 1130 817 1130 861 1108 c 0,64,65
 909 1084 909 1084 939 1053 c 1,66,67
 972 1016 972 1016 985 978 c 0,68,69
 997 946 997 946 1000 894 c 0,70,71
 1001 878 1001 878 1001 873 c 0,72,73
 1002 850 1002 850 996 815 c 1,74,75
 983 751 983 751 936.5 689.5 c 128,-1,76
 890 628 890 628 814 596 c 1,77,-1
 1049 428 l 1,78,79
 1111 495 1111 495 1143 574 c 0,80,81
 1176 657 1176 657 1176 754 c 0,82,83
 1176 856 1176 856 1143 936 c 0,84,85
 1120 990 1120 990 1084 1041 c 1,86,87
 1065 1065 1065 1065 1044 1088 c 0,88,89
 978 1158 978 1158 898 1192 c 0,90,91
 819 1226 819 1226 726 1226 c 256,92,93
 633 1226 633 1226 555 1192 c 256,94,95
 477 1158 477 1158 409 1088 c 0,96,97
 342 1018 342 1018 308 935 c 0,98,99
 274 851 274 851 274 759 c 2,100,-1
 274 754 l 2,101,102
 274 671 274 671 308 575 c 0,103,104
 335 501 335 501 428 404 c 0,105,106
 478 352 478 352 554 319 c 0,107,108
 634 284 634 284 726 284 c 256,109,110
 818 284 818 284 898 319 c 0,111,112
 959 346 959 346 1014 394 c 1,113,-1
 878 394 l 1,114,-1
 597 593 l 1,115,-1
 597 394 l 1,116,-1
 446 394 l 1,117,-1
 449 1119 l 1,55,-1
EndSplineSet
Validated: 1
EndChar

StartChar: macron
Encoding: 175 175 113
Width: 1183
GlyphClass: 2
Flags: W
HStem: 1361 150<150 1033>
LayerCount: 2
Fore
SplineSet
1033 1361 m 1,0,-1
 150 1361 l 1,1,-1
 150 1511 l 1,2,-1
 1033 1511 l 1,3,-1
 1033 1361 l 1,0,-1
EndSplineSet
Validated: 1
EndChar

StartChar: degree
Encoding: 176 176 114
Width: 1052
GlyphClass: 2
Flags: W
HStem: 895 118<390.473 636.188> 1388 123<423.171 662.497>
VStem: 150 188<1050.6 1293.92> 715 187<1104.54 1349.36>
LayerCount: 2
Fore
SplineSet
902 1245 m 0,0,1
 902 1203 902 1203 882 1154 c 0,2,3
 851 1076 851 1076 787 1014 c 0,4,5
 769 997 769 997 719 961 c 0,6,7
 625 895 625 895 473 895 c 2,8,-1
 469 895 l 2,9,10
 358 895 358 895 290 933 c 0,11,12
 208 979 208 979 174 1046 c 0,13,14
 150 1095 150 1095 150 1148 c 0,15,16
 150 1197 150 1197 171 1247 c 0,17,18
 204 1326 204 1326 266 1387 c 1,19,20
 291 1410 291 1410 335 1439 c 0,21,22
 442 1511 442 1511 579 1511 c 2,23,-1
 583 1511 l 1,24,25
 685 1510 685 1510 762 1467 c 1,26,27
 846 1422 846 1422 879 1354 c 0,28,29
 902 1305 902 1305 902 1245 c 0,0,1
388 1313 m 1,30,31
 338 1255 338 1255 338 1158 c 2,32,-1
 338 1155 l 2,33,34
 338 1081 338 1081 389 1046 c 0,35,36
 436 1013 436 1013 500 1013 c 0,37,38
 512 1013 512 1013 525 1014 c 0,39,40
 613 1020 613 1020 664 1086 c 256,41,42
 715 1152 715 1152 715 1242 c 2,43,-1
 715 1246 l 2,44,45
 715 1318 715 1318 664 1354 c 0,46,47
 616 1388 616 1388 555 1388 c 0,48,49
 541 1388 541 1388 530 1386 c 0,50,51
 444 1374 444 1374 388 1313 c 1,30,31
EndSplineSet
Validated: 1
EndChar

StartChar: plusminus
Encoding: 177 177 115
Width: 1183
GlyphClass: 2
Flags: W
HStem: 215 150<150 1033> 782 150<150 516 666 1033>
VStem: 516 150<415 782 932 1298>
LayerCount: 2
Fore
SplineSet
1033 215 m 1,0,-1
 150 215 l 1,1,-1
 150 365 l 1,2,-1
 1033 365 l 1,3,-1
 1033 215 l 1,0,-1
516 415 m 1,4,-1
 516 782 l 1,5,-1
 150 782 l 1,6,-1
 150 932 l 1,7,-1
 516 932 l 1,8,-1
 516 1298 l 1,9,-1
 666 1298 l 1,10,-1
 666 932 l 1,11,-1
 1033 932 l 1,12,-1
 1033 782 l 1,13,-1
 666 782 l 1,14,-1
 666 415 l 1,15,-1
 516 415 l 1,4,-1
EndSplineSet
Validated: 1
EndChar

StartChar: uni00B2
Encoding: 178 178 116
Width: 927
GlyphClass: 2
Flags: W
HStem: 715 150<369 776> 1394 137<374.761 571.262>
VStem: 599 178<1167.94 1367.12>
DStem2: 391 1065 477 940 0.829692 0.558221<-126.755 278.329>
LayerCount: 2
Fore
SplineSet
776 715 m 1,0,-1
 194 715 l 1,1,-1
 178 736 l 1,2,3
 155 769 155 769 155 807 c 0,4,5
 155 859 155 859 203 914 c 0,6,7
 276 997 276 997 391 1065 c 1,8,9
 494 1119 494 1119 551 1164 c 0,10,11
 575 1182 575 1182 588 1216 c 0,12,13
 599 1244 599 1244 599 1269 c 2,14,-1
 599 1270 l 1,15,16
 598 1302 598 1302 583 1333 c 0,17,18
 570 1359 570 1359 537 1379 c 0,19,20
 512 1394 512 1394 477 1394 c 2,21,22
 477 1394 477 1394 474 1394 c 0,23,24
 444 1393 444 1393 420 1381 c 0,25,26
 365 1353 365 1353 332 1296 c 0,27,28
 326 1285 326 1285 320 1270 c 2,29,-1
 298 1216 l 1,30,-1
 150 1299 l 1,31,-1
 176 1342 l 2,32,33
 184 1357 184 1357 202 1381 c 0,34,35
 264 1464 264 1464 346 1500 c 0,36,37
 417 1531 417 1531 486 1531 c 2,38,-1
 488 1531 l 1,39,40
 558 1530 558 1530 608 1506 c 1,41,42
 667 1480 667 1480 701 1446 c 0,43,44
 736 1412 736 1412 755 1370 c 0,45,46
 775 1324 775 1324 777 1274 c 1,47,-1
 777 1272 l 2,48,49
 777 1211 777 1211 755 1170 c 0,50,51
 720 1104 720 1104 657 1059 c 1,52,53
 575 995 575 995 477 940 c 0,54,55
 417 907 417 907 369 865 c 1,56,-1
 776 865 l 1,57,-1
 776 715 l 1,0,-1
EndSplineSet
Validated: 1
EndChar

StartChar: uni00B3
Encoding: 179 179 117
Width: 941
GlyphClass: 2
Flags: W
HStem: 704 134<344.258 554.034> 1160 121<413.906 521.464> 1394 137<434.688 539.719>
VStem: 540 169<1303.69 1392.22> 617 174<902.477 1129.42>
LayerCount: 2
Fore
SplineSet
150 930 m 1,0,-1
 310 988 l 1,1,-1
 324 933 l 2,2,3
 330 910 330 910 338.5 891 c 128,-1,4
 347 872 347 872 377.5 855 c 128,-1,5
 408 838 408 838 438 838 c 2,6,-1
 441 838 l 2,7,8
 475 838 475 838 518 858 c 0,9,10
 593 893 593 893 614 1001 c 0,11,12
 617 1013 617 1013 617 1031 c 0,13,14
 617 1095 617 1095 605 1117 c 1,15,16
 579 1160 579 1160 494 1160 c 2,17,-1
 491 1160 l 2,18,19
 483 1160 483 1160 471 1158 c 2,20,-1
 413 1150 l 1,21,-1
 413 1285 l 1,22,-1
 465 1281 l 1,23,-1
 469 1281 l 2,24,25
 505 1281 505 1281 522 1303 c 0,26,27
 540 1325 540 1325 540 1358 c 2,28,-1
 540 1360 l 2,29,30
 540 1394 540 1394 498 1394 c 2,31,-1
 488 1394 l 1,32,33
 448 1388 448 1388 433 1351 c 2,34,-1
 411 1298 l 1,35,-1
 268 1383 l 1,36,-1
 302 1427 l 2,37,38
 382 1531 382 1531 510 1531 c 2,39,-1
 512 1531 l 1,40,41
 573 1530 573 1530 623 1502 c 0,42,43
 709 1454 709 1454 709 1383.5 c 128,-1,44
 709 1313 709 1313 659 1257 c 1,45,46
 791 1192 791 1192 791 1042 c 0,47,48
 791 1007 791 1007 780.5 959 c 128,-1,49
 770 911 770 911 717 843 c 128,-1,50
 664 775 664 775 586.5 740 c 128,-1,51
 509 705 509 705 437 705 c 1,52,53
 430 704 430 704 423 704 c 0,54,55
 409 704 409 704 393 707 c 1,56,57
 345 712 345 712 305 730 c 0,58,59
 253 752 253 752 218 787 c 1,60,61
 189 822 189 822 170 865 c 0,62,63
 151 909 151 909 150 930 c 1,0,-1
EndSplineSet
Validated: 1
EndChar

StartChar: acute
Encoding: 180 180 118
Width: 772
GlyphClass: 2
Flags: W
HStem: 1032 479
VStem: 150 472
DStem2: 150 1140 256 1032 0.702293 0.711888<0 518.709>
LayerCount: 2
Fore
SplineSet
256 1032 m 1,0,-1
 150 1140 l 1,1,-1
 515 1511 l 1,2,-1
 622 1403 l 1,3,-1
 256 1032 l 1,0,-1
EndSplineSet
Validated: 1
EndChar

StartChar: uni00B5
Encoding: 181 181 119
Width: 1382
GlyphClass: 2
Flags: W
HStem: -410 21G<200 400> -20 136<454.547 750.626> 0 21G<982 1182> 1080 20G<200 400 982 1182>
VStem: 200 200<-410 16 179.132 1100> 982 200<0 157 344.944 1100>
LayerCount: 2
Fore
SplineSet
1182 0 m 1,0,-1
 982 0 l 1,1,-1
 982 157 l 1,2,3
 907 87 907 87 806 37 c 0,4,5
 693 -20 693 -20 550 -20 c 0,6,7
 471 -20 471 -20 400 16 c 1,8,-1
 400 -410 l 1,9,-1
 200 -410 l 1,10,-1
 200 1100 l 1,11,-1
 400 1100 l 1,12,-1
 400 282 l 1,13,-1
 400 279 l 1,14,15
 405 214 405 214 437 178 c 0,16,17
 487 122 487 122 555 117 c 0,18,19
 567 116 567 116 581 116 c 0,20,21
 651 116 651 116 715 143 c 0,22,23
 842 198 842 198 926 326 c 0,24,25
 982 412 982 412 982 509 c 2,26,-1
 982 1100 l 1,27,-1
 1182 1100 l 1,28,-1
 1182 0 l 1,0,-1
EndSplineSet
Validated: 1
EndChar

StartChar: paragraph
Encoding: 182 182 120
Width: 1297
GlyphClass: 2
Flags: W
HStem: 0 21G<897 953 1040 1097> 367 124<457.354 746.558> 1396 135<549.578 839.482>
VStem: 100 199<659.984 1109.47> 897 56<0 1274.42> 1040 57<0 1272.89>
LayerCount: 2
Fore
SplineSet
1097 0 m 1,0,-1
 1040 0 l 1,1,-1
 1040 1276 l 1,2,-1
 953 1276 l 1,3,-1
 953 0 l 1,4,-1
 897 0 l 1,5,-1
 897 1226 l 1,6,-1
 897 1229 l 1,7,8
 892 1295 892 1295 860 1332 c 0,9,10
 813 1386 813 1386 741 1394 c 0,11,12
 726 1396 726 1396 710 1396 c 0,13,14
 647 1396 647 1396 582 1367 c 0,15,16
 448 1307 448 1307 372 1181 c 0,17,18
 323 1101 323 1101 305 988 c 0,19,20
 299 953 299 953 299 905 c 0,21,22
 299 878 299 878 301 841 c 0,23,24
 306 748 306 748 339 670 c 0,25,26
 373 589 373 589 455 536 c 0,27,28
 525 491 525 491 612 491 c 2,29,-1
 626 491 l 2,30,31
 686 491 686 491 739 529 c 0,32,33
 785 562 785 562 816 612 c 0,34,35
 828 631 828 631 843 669 c 1,36,37
 849 658 849 658 849 614 c 0,38,39
 848 526 848 526 789 452 c 0,40,41
 721 367 721 367 600 367 c 2,42,-1
 597 367 l 2,43,44
 480 367 480 367 388 410 c 1,45,46
 287 456 287 456 226 521 c 0,47,48
 161 591 161 591 133 667 c 1,49,50
 106 737 106 737 101 842 c 0,51,52
 100 862 100 862 100 883 c 0,53,54
 100 948 100 948 111 1004 c 0,55,56
 138 1133 138 1133 234 1266 c 0,57,58
 327 1396 327 1396 491 1476 c 0,59,60
 605 1531 605 1531 747 1531 c 0,61,62
 868 1531 868 1531 973 1447 c 0,63,64
 1096 1348 1096 1348 1097 1158 c 1,65,-1
 1097 0 l 1,0,-1
EndSplineSet
Validated: 1
EndChar

StartChar: periodcentered
Encoding: 183 183 121
Width: 552
GlyphClass: 2
Flags: W
HStem: 638 255<187.129 363.809>
VStem: 150 252<677.16 853.84>
LayerCount: 2
Fore
SplineSet
402 760 m 0,0,1
 402 712 402 712 366 674 c 0,2,3
 333 638 333 638 276 638 c 0,4,5
 222 638 222 638 186 676 c 0,6,7
 150 713 150 713 150 765 c 0,8,9
 150 818 150 818 186 855 c 0,10,11
 222 893 222 893 276 893 c 0,12,13
 327 893 327 893 365 856 c 1,14,15
 402 818 402 818 402 760 c 0,0,1
EndSplineSet
Validated: 1
EndChar

StartChar: cedilla
Encoding: 184 184 122
Width: 610
GlyphClass: 2
Flags: W
HStem: -410 656
VStem: 275 185<-195.492 60.781>
LayerCount: 2
Fore
SplineSet
314 -410 m 1,0,-1
 158 -277 l 1,1,-1
 199 -236 l 1,2,3
 275 -156 275 -156 275 -72 c 2,4,-1
 275 -69 l 2,5,6
 275 16 275 16 218 78 c 0,7,8
 205 91 205 91 167 128 c 2,9,-1
 150 145 l 1,10,-1
 243 246 l 1,11,-1
 261 232 l 2,12,13
 279 217 279 217 344 154 c 1,14,15
 460 38 460 38 460 -95 c 0,16,17
 460 -216 460 -216 382 -328 c 0,18,19
 366 -352 366 -352 331 -392 c 1,20,-1
 314 -410 l 1,0,-1
EndSplineSet
Validated: 1
EndChar

StartChar: uni00B9
Encoding: 185 185 123
Width: 700
GlyphClass: 2
Flags: W
HStem: 1361 150<150 275>
VStem: 150 300<1361 1511> 275 175<706 1361>
LayerCount: 2
Fore
SplineSet
275 706 m 1,0,-1
 275 1361 l 1,1,-1
 150 1361 l 1,2,-1
 150 1511 l 1,3,-1
 450 1511 l 1,4,-1
 450 706 l 1,5,-1
 275 706 l 1,0,-1
EndSplineSet
Validated: 1
EndChar

StartChar: ordmasculine
Encoding: 186 186 124
Width: 1183
GlyphClass: 2
Flags: W
HStem: 693 150<150 1033> 894 126<488.36 688.924> 1404 127<524.787 720.499>
VStem: 291 163<1053.82 1329.75> 759 164<1093.3 1368.02>
LayerCount: 2
Fore
SplineSet
1033 693 m 1,0,-1
 150 693 l 1,1,-1
 150 843 l 1,2,-1
 1033 843 l 1,3,-1
 1033 693 l 1,0,-1
291 1198 m 0,4,5
 291 1290 291 1290 354 1375 c 0,6,7
 470 1531 470 1531 640 1531 c 2,8,-1
 642 1531 l 2,9,10
 769 1531 769 1531 851 1441 c 0,11,12
 914 1372 914 1372 923 1257 c 1,13,-1
 923 1235 l 2,14,15
 923 1207 923 1207 912 1165 c 0,16,17
 898 1107 898 1107 849 1041 c 128,-1,18
 800 975 800 975 724 934.5 c 128,-1,19
 648 894 648 894 582 894 c 2,20,-1
 571 894 l 1,21,22
 441 898 441 898 368 978 c 0,23,24
 291 1062 291 1062 291 1198 c 0,4,5
636 1404 m 2,25,-1
 628 1404 l 2,26,27
 538 1404 538 1404 482 1304 c 0,28,29
 454 1254 454 1254 454 1190 c 0,30,31
 454 1138 454 1138 474 1088 c 1,32,33
 489 1055 489 1055 519 1037.5 c 128,-1,34
 549 1020 549 1020 580 1020 c 2,35,-1
 583 1020 l 2,36,37
 621 1020 621 1020 660 1043 c 0,38,39
 701 1067 701 1067 730 1116 c 1,40,41
 759 1168 759 1168 759 1222 c 0,42,43
 759 1226 759 1226 759 1237 c 0,44,45
 757 1342 757 1342 694 1387 c 0,46,47
 670 1404 670 1404 636 1404 c 2,25,-1
EndSplineSet
Validated: 1
EndChar

StartChar: guillemotright
Encoding: 187 187 125
Width: 1409
GlyphClass: 2
Flags: W
HStem: 124 205<200 405 736 941> 1121 280<200 480 736 1016>
DStem2: 200 1401 200 1121 0.685814 -0.727776<203.777 744.063> 200 329 200 124 0.691073 0.722785<0 550.435> 736 1401 736 1121 0.689754 -0.724044<202.732 743.043> 736 329 736 124 0.691073 0.722785<0 550.435>
LayerCount: 2
Fore
SplineSet
200 124 m 1,0,-1
 200 329 l 1,1,-1
 575 732 l 1,2,-1
 200 1121 l 1,3,-1
 200 1401 l 1,4,-1
 723 846 l 1,5,-1
 723 671 l 1,6,-1
 200 124 l 1,0,-1
736 124 m 1,7,-1
 736 329 l 1,8,-1
 1111 732 l 1,9,-1
 736 1121 l 1,10,-1
 736 1401 l 1,11,-1
 1259 852 l 1,12,-1
 1259 671 l 1,13,-1
 736 124 l 1,7,-1
EndSplineSet
Validated: 1
EndChar

StartChar: onequarter
Encoding: 188 188 126
Width: 1559
GlyphClass: 2
Flags: W
HStem: 0 21G<178 396.171 1134 1309> 159 125<913 1134> 1361 150<150 275>
VStem: 150 300<1361 1511> 178 207<0 207> 275 175<656 1361> 1022 207<1304 1511> 1134 175<0 159 284 622>
DStem2: 178 0 385 0 0.487653 0.873038<100.944 1730.74>
LayerCount: 2
Fore
SplineSet
275 656 m 1,0,-1
 275 1361 l 1,1,-1
 150 1361 l 1,2,-1
 150 1511 l 1,3,-1
 450 1511 l 1,4,-1
 450 656 l 1,5,-1
 275 656 l 1,0,-1
1229 1511 m 1,6,-1
 385 0 l 1,7,-1
 178 0 l 1,8,-1
 1022 1511 l 1,9,-1
 1229 1511 l 1,6,-1
1309 0 m 1,10,-1
 1134 0 l 1,11,-1
 1134 159 l 1,12,-1
 720 159 l 1,13,-1
 726 215 l 1,14,15
 738 309 738 309 773 399 c 0,16,17
 816 509 816 509 900 616 c 0,18,19
 957 689 957 689 1035 755 c 0,20,21
 1101 812 1101 812 1157 848 c 1,22,-1
 1169 856 l 1,23,-1
 1309 856 l 1,24,-1
 1309 0 l 1,10,-1
1134 284 m 1,25,-1
 1134 622 l 1,26,27
 1117 605 1117 605 1079 563 c 0,28,29
 1009 487 1009 487 957 389 c 0,30,31
 928 335 928 335 913 284 c 1,32,-1
 1134 284 l 1,25,-1
EndSplineSet
Validated: 1
EndChar

StartChar: onehalf
Encoding: 189 189 127
Width: 1701
GlyphClass: 2
Flags: W
HStem: 0 150<1093 1500> 704 137<1099.37 1292.55> 1361 150<150 275>
VStem: 150 300<1361 1511> 178 207<0 207> 275 175<656 1361> 1022 207<1304 1511> 1323 178<451.585 674.38>
DStem2: 178 0 385 0 0.487653 0.873038<100.944 1730.74>
LayerCount: 2
Fore
SplineSet
1500 0 m 1,0,-1
 918 0 l 1,1,-1
 911 10 l 1,2,-1
 904 20 l 1,3,4
 879 51 879 51 879 88 c 0,5,6
 879 140 879 140 927 192 c 0,7,8
 1001 271 1001 271 1115 337 c 0,9,10
 1219 398 1219 398 1275 447 c 0,11,12
 1301 469 1301 469 1313 505 c 0,13,14
 1323 533 1323 533 1323 565 c 2,15,-1
 1323 566 l 1,16,17
 1322 602 1322 602 1307 637 c 0,18,19
 1295 665 1295 665 1262 687 c 0,20,21
 1237 704 1237 704 1201 704 c 2,22,-1
 1198 704 l 1,23,24
 1168 703 1168 703 1144 691 c 0,25,26
 1090 663 1090 663 1057 606 c 1,27,28
 1050 596 1050 596 1044 580 c 2,29,-1
 1023 527 l 1,30,-1
 874 607 l 1,31,-1
 900 651 l 1,32,33
 910 670 910 670 926 691 c 0,34,35
 987 772 987 772 1070 809 c 0,36,37
 1142 841 1142 841 1210 841 c 2,38,-1
 1212 841 l 1,39,40
 1283 840 1283 840 1333 816 c 0,41,42
 1390 789 1390 789 1425 752 c 0,43,44
 1459 717 1459 717 1479 670 c 0,45,46
 1501 619 1501 619 1501 567 c 2,47,-1
 1501 565 l 2,48,49
 1501 500 1501 500 1480 456 c 0,50,51
 1445 385 1445 385 1381 337 c 0,52,53
 1294 272 1294 272 1201 222 c 0,54,55
 1139 188 1139 188 1093 150 c 1,56,-1
 1500 150 l 1,57,-1
 1500 0 l 1,0,-1
275 656 m 1,58,-1
 275 1361 l 1,59,-1
 150 1361 l 1,60,-1
 150 1511 l 1,61,-1
 450 1511 l 1,62,-1
 450 656 l 1,63,-1
 275 656 l 1,58,-1
1229 1511 m 1,64,-1
 385 0 l 1,65,-1
 178 0 l 1,66,-1
 1022 1511 l 1,67,-1
 1229 1511 l 1,64,-1
EndSplineSet
Validated: 1
EndChar

StartChar: threequarters
Encoding: 190 190 128
Width: 1814
GlyphClass: 2
Flags: W
HStem: 0 21G<433 651.171 1389 1564> 159 125<1168 1389> 704 134<344.258 554.034> 1160 121<413.906 521.464> 1394 137<434.688 539.719> 1491 20G<1265.83 1484>
VStem: 433 207<0 207> 540 169<1303.69 1392.22> 617 174<902.477 1129.42> 1277 207<1304 1511> 1389 175<0 159 284 622>
DStem2: 433 0 640 0 0.487653 0.873038<100.944 1730.74>
LayerCount: 2
Fore
SplineSet
150 930 m 1,0,-1
 310 988 l 1,1,-1
 324 933 l 2,2,3
 330 910 330 910 338.5 891 c 128,-1,4
 347 872 347 872 377.5 855 c 128,-1,5
 408 838 408 838 438 838 c 2,6,-1
 441 838 l 2,7,8
 475 838 475 838 518 858 c 0,9,10
 593 893 593 893 614 1001 c 0,11,12
 617 1013 617 1013 617 1031 c 0,13,14
 617 1095 617 1095 605 1117 c 1,15,16
 579 1160 579 1160 494 1160 c 2,17,-1
 491 1160 l 2,18,19
 483 1160 483 1160 471 1158 c 2,20,-1
 413 1150 l 1,21,-1
 413 1285 l 1,22,-1
 465 1281 l 1,23,-1
 469 1281 l 2,24,25
 505 1281 505 1281 522 1303 c 0,26,27
 540 1325 540 1325 540 1358 c 2,28,-1
 540 1360 l 2,29,30
 540 1394 540 1394 498 1394 c 2,31,-1
 488 1394 l 1,32,33
 448 1388 448 1388 433 1351 c 2,34,-1
 411 1298 l 1,35,-1
 268 1383 l 1,36,-1
 302 1427 l 2,37,38
 382 1531 382 1531 510 1531 c 2,39,-1
 512 1531 l 1,40,41
 573 1530 573 1530 623 1502 c 0,42,43
 709 1454 709 1454 709 1383.5 c 128,-1,44
 709 1313 709 1313 659 1257 c 1,45,46
 791 1192 791 1192 791 1042 c 0,47,48
 791 1007 791 1007 780.5 959 c 128,-1,49
 770 911 770 911 717 843 c 128,-1,50
 664 775 664 775 586.5 740 c 128,-1,51
 509 705 509 705 437 705 c 1,52,53
 430 704 430 704 423 704 c 0,54,55
 409 704 409 704 393 707 c 1,56,57
 345 712 345 712 305 730 c 0,58,59
 253 752 253 752 218 787 c 1,60,61
 189 822 189 822 170 865 c 0,62,63
 151 909 151 909 150 930 c 1,0,-1
1389 284 m 1,64,-1
 1389 622 l 1,65,66
 1372 605 1372 605 1334 563 c 0,67,68
 1264 487 1264 487 1212 389 c 0,69,70
 1183 335 1183 335 1168 284 c 1,71,-1
 1389 284 l 1,64,-1
1564 856 m 1,72,-1
 1564 0 l 1,73,-1
 1389 0 l 1,74,-1
 1389 159 l 1,75,-1
 975 159 l 1,76,-1
 981 215 l 1,77,78
 993 309 993 309 1028 399 c 0,79,80
 1071 509 1071 509 1155 616 c 0,81,82
 1212 689 1212 689 1290 755 c 0,83,84
 1356 812 1356 812 1412 848 c 1,85,-1
 1424 856 l 1,86,-1
 1564 856 l 1,72,-1
1277 1511 m 1,87,-1
 1484 1511 l 1,88,-1
 640 0 l 1,89,-1
 433 0 l 1,90,-1
 1277 1511 l 1,87,-1
EndSplineSet
Validated: 1
EndChar

StartChar: questiondown
Encoding: 191 191 129
Width: 1372
GlyphClass: 2
Flags: W
HStem: -20 124<514.833 837.963> 1276 255<666.129 842.809>
VStem: 150 205<275.812 619.375> 629 252<1315.16 1491.84> 734 149<1055.24 1214.25>
LayerCount: 2
Fore
SplineSet
881 1398 m 0,0,1
 881 1350 881 1350 845 1312 c 0,2,3
 812 1276 812 1276 755 1276 c 0,4,5
 701 1276 701 1276 665 1314 c 0,6,7
 629 1351 629 1351 629 1403 c 0,8,9
 629 1456 629 1456 665 1493 c 0,10,11
 701 1531 701 1531 755 1531 c 0,12,13
 806 1531 806 1531 844 1494 c 1,14,15
 881 1456 881 1456 881 1398 c 0,0,1
1222 342 m 1,16,-1
 1210 320 l 2,17,18
 1192 287 1192 287 1164 250 c 0,19,20
 1050 99 1050 99 906 36 c 0,21,22
 777 -20 777 -20 655 -20 c 2,23,-1
 651 -20 l 1,24,25
 528 -19 528 -19 442 23 c 0,26,27
 342 71 342 71 281 138 c 1,28,29
 219 204 219 204 187 286 c 0,30,31
 150 380 150 380 150 455 c 0,32,33
 150 459 150 459 150 463 c 0,34,35
 150 571 150 571 206 669 c 0,36,37
 270 779 270 779 396 859 c 0,38,39
 565 966 565 966 577 976 c 0,40,41
 591 988 591 988 698 1059 c 0,42,43
 734 1083 734 1083 734 1124 c 0,44,45
 734 1125 734 1125 734 1126 c 0,46,47
 734 1159 734 1159 707 1192 c 2,48,-1
 682 1223 l 1,49,-1
 833 1223 l 1,50,-1
 841 1213 l 1,51,52
 883 1157 883 1157 883 1103 c 2,53,-1
 883 1101 l 2,54,55
 883 1027 883 1027 794 958 c 2,56,-1
 663 857 l 2,57,58
 526 751 526 751 493 723 c 0,59,60
 417 659 417 659 384 593 c 0,61,62
 355 534 355 534 355 469 c 2,63,-1
 355 463 l 2,64,65
 355 380 355 380 393 289 c 0,66,67
 426 209 426 209 509 152 c 0,68,69
 578 104 578 104 672 104 c 2,70,-1
 680 104 l 2,71,72
 756 104 756 104 822 138 c 0,73,74
 951 206 951 206 1026 336 c 0,75,76
 1045 368 1045 368 1057 400 c 2,77,-1
 1067 427 l 1,78,-1
 1222 342 l 1,16,-1
EndSplineSet
Validated: 1
EndChar

StartChar: Agrave
Encoding: 192 192 130
Width: 1538
GlyphClass: 2
Flags: W
HStem: 0 21G<5 184.793 1309.18 1533> 696 150<546 947> 1491 20G<663.171 875.815>
VStem: 5 171<0 171> 1318 215<0 215>
DStem2: 5 0 176 0 0.403834 0.914832<69.0556 829.352 992.422 1504.99> 575 2001 470 1895 0.709492 -0.704714<0.203052 417.394> 867 1511 746 1318 0.403327 -0.915056<127.803 640.778 803.85 1564.55>
LayerCount: 2
Fore
SplineSet
765 1600 m 1,0,-1
 470 1895 l 1,1,-1
 575 2001 l 1,2,-1
 872 1706 l 1,3,-1
 765 1600 l 1,0,-1
5 0 m 1,4,-1
 672 1511 l 1,5,-1
 867 1511 l 1,6,-1
 1533 0 l 1,7,-1
 1318 0 l 1,8,-1
 1011 696 l 1,9,-1
 482 696 l 1,10,-1
 176 0 l 1,11,-1
 5 0 l 1,4,-1
746 1318 m 1,12,-1
 546 846 l 1,13,-1
 947 846 l 1,14,-1
 746 1318 l 1,12,-1
EndSplineSet
Validated: 1
EndChar

StartChar: Aacute
Encoding: 193 193 131
Width: 1538
GlyphClass: 2
Flags: W
HStem: 0 21G<5 184.793 1309.18 1533> 696 150<546 947> 1491 20G<663.171 875.815>
VStem: 5 171<0 171> 1318 215<0 215>
DStem2: 5 0 176 0 0.403834 0.914832<69.0556 829.352 992.422 1504.99> 666 1706 773 1600 0.709492 0.704714<1.21593 418.407> 867 1511 746 1318 0.403327 -0.915056<127.803 640.778 803.85 1564.55>
LayerCount: 2
Fore
SplineSet
773 1600 m 1,0,-1
 666 1706 l 1,1,-1
 963 2001 l 1,2,-1
 1068 1895 l 1,3,-1
 773 1600 l 1,0,-1
5 0 m 1,4,-1
 672 1511 l 1,5,-1
 867 1511 l 1,6,-1
 1533 0 l 1,7,-1
 1318 0 l 1,8,-1
 1011 696 l 1,9,-1
 482 696 l 1,10,-1
 176 0 l 1,11,-1
 5 0 l 1,4,-1
746 1318 m 1,12,-1
 546 846 l 1,13,-1
 947 846 l 1,14,-1
 746 1318 l 1,12,-1
EndSplineSet
Validated: 1
EndChar

StartChar: Acircumflex
Encoding: 194 194 132
Width: 1538
GlyphClass: 2
Flags: W
HStem: 0 21G<5 184.793 1309.18 1533> 696 150<546 947> 1491 20G<663.171 875.815> 1789 212<664 876>
VStem: 5 171<0 171> 1318 215<0 215>
DStem2: 5 0 176 0 0.403834 0.914832<69.0556 829.352 992.422 1504.99> 475 1706 580 1600 0.707107 0.707107<0 267.286> 867 1511 746 1318 0.403327 -0.915056<127.803 640.778 803.85 1564.55> 770 2001 770 1789 0.707107 -0.707107<149.907 417.193>
LayerCount: 2
Fore
SplineSet
746 1318 m 1,0,-1
 546 846 l 1,1,-1
 947 846 l 1,2,-1
 746 1318 l 1,0,-1
5 0 m 1,3,-1
 672 1511 l 1,4,-1
 867 1511 l 1,5,-1
 1533 0 l 1,6,-1
 1318 0 l 1,7,-1
 1011 696 l 1,8,-1
 482 696 l 1,9,-1
 176 0 l 1,10,-1
 5 0 l 1,3,-1
475 1706 m 1,11,-1
 770 2001 l 1,12,-1
 1065 1706 l 1,13,-1
 960 1600 l 1,14,-1
 770 1789 l 1,15,-1
 580 1600 l 1,16,-1
 475 1706 l 1,11,-1
EndSplineSet
Validated: 16385
EndChar

StartChar: Atilde
Encoding: 195 195 133
Width: 1538
GlyphClass: 2
Flags: W
HStem: 0 21G<5 184.793 1309.18 1533> 696 150<546 947> 1491 20G<663.171 875.815>
VStem: 5 171<0 171> 1318 215<0 215>
DStem2: 5 0 176 0 0.403834 0.914832<69.0556 829.352 992.422 1504.99> 867 1511 746 1318 0.403327 -0.915056<127.803 640.778 803.85 1564.55>
LayerCount: 2
Fore
SplineSet
597 1595 m 1,0,-1
 474 1674 l 1,1,-1
 483 1704 l 1,2,3
 518 1825 518 1825 628 1869 c 0,4,5
 653 1879 653 1879 679.5 1879 c 128,-1,6
 706 1879 706 1879 731 1870 c 0,7,8
 757 1861 757 1861 775 1844 c 2,9,-1
 881 1744 l 2,10,11
 903 1724 903 1724 919.5 1740.5 c 128,-1,12
 936 1757 936 1757 948 1838 c 1,13,-1
 954 1882 l 1,14,-1
 1079 1799 l 1,15,-1
 1074 1770 l 1,16,17
 1049 1645 1049 1645 964 1606 c 0,18,19
 926 1589 926 1589 893 1589 c 2,20,-1
 891 1589 l 2,21,22
 829 1589 829 1589 783 1624 c 1,23,-1
 688 1722 l 2,24,25
 670 1741 670 1741 652 1730 c 0,26,27
 613 1705 613 1705 603 1635 c 2,28,-1
 597 1595 l 1,0,-1
5 0 m 1,29,-1
 672 1511 l 1,30,-1
 867 1511 l 1,31,-1
 1533 0 l 1,32,-1
 1318 0 l 1,33,-1
 1011 696 l 1,34,-1
 482 696 l 1,35,-1
 176 0 l 1,36,-1
 5 0 l 1,29,-1
746 1318 m 1,37,-1
 546 846 l 1,38,-1
 947 846 l 1,39,-1
 746 1318 l 1,37,-1
EndSplineSet
Validated: 1
EndChar

StartChar: Adieresis
Encoding: 196 196 134
Width: 1538
GlyphClass: 2
Flags: W
HStem: 0 21G<5 184.793 1309.18 1533> 696 150<546 947> 1491 20G<663.171 875.815> 1660 255<501.16 677.84 843.129 1018.84>
VStem: 5 171<0 171> 464 252<1699.16 1875.84> 805 252<1699.22 1876.9> 1318 215<0 215>
DStem2: 5 0 176 0 0.403834 0.914832<69.0556 829.352 992.422 1504.99> 867 1511 746 1318 0.403327 -0.915056<127.803 640.778 803.85 1564.55>
LayerCount: 2
Fore
SplineSet
805 1788 m 0,0,1
 805 1840 805 1840 842 1877 c 1,2,3
 877 1915 877 1915 931 1915 c 0,4,5
 983 1915 983 1915 1020 1878 c 0,6,7
 1055 1843 1055 1843 1057 1789 c 1,8,9
 1057 1735 1057 1735 1020 1697 c 0,10,11
 983 1660 983 1660 931 1660 c 0,12,13
 878 1660 878 1660 842 1698 c 0,14,15
 805 1737 805 1737 805 1788 c 0,0,1
464 1788 m 0,16,17
 464 1840 464 1840 500 1877 c 0,18,19
 537 1915 537 1915 590 1915 c 0,20,21
 642 1915 642 1915 679 1878 c 0,22,23
 714 1843 714 1843 716 1789 c 1,24,25
 716 1735 716 1735 679 1697 c 0,26,27
 642 1660 642 1660 590 1660 c 0,28,29
 537 1660 537 1660 500 1698 c 0,30,31
 464 1735 464 1735 464 1788 c 0,16,17
5 0 m 1,32,-1
 672 1511 l 1,33,-1
 867 1511 l 1,34,-1
 1533 0 l 1,35,-1
 1318 0 l 1,36,-1
 1011 696 l 1,37,-1
 482 696 l 1,38,-1
 176 0 l 1,39,-1
 5 0 l 1,32,-1
746 1318 m 1,40,-1
 546 846 l 1,41,-1
 947 846 l 1,42,-1
 746 1318 l 1,40,-1
EndSplineSet
Validated: 1
EndChar

StartChar: Aring
Encoding: 197 197 135
Width: 1538
GlyphClass: 2
Flags: W
HStem: 0 21G<5 184.793 1309.18 1533> 696 150<546 947> 1491 20G<663.171 875.815> 1560 114<734.383 848.494> 1819 117<756.66 867.908>
VStem: 5 171<0 171> 585 149<1676.06 1791.15> 868 149<1703.03 1817> 1318 215<0 215>
DStem2: 5 0 176 0 0.403834 0.914832<69.0556 829.352 992.422 1504.99> 867 1511 746 1318 0.403327 -0.915056<127.803 640.778 803.85 1564.55>
LayerCount: 2
Fore
SplineSet
955 1628 m 0,0,1
 878 1560 878 1560 774 1560 c 2,2,-1
 772 1560 l 2,3,4
 709 1560 709 1560 664 1586 c 0,5,6
 585 1633 585 1633 585 1719 c 0,7,8
 585 1798 585 1798 651 1863 c 24,9,10
 726 1936 726 1936 827 1936 c 2,11,-1
 829 1936 l 2,12,13
 888 1936 888 1936 933 1910 c 0,14,15
 1017 1861 1017 1861 1017 1773 c 0,16,17
 1016 1680 1016 1680 955 1628 c 0,0,1
791 1674 m 0,18,19
 833 1674 833 1674 849 1702 c 0,20,21
 868 1735 868 1735 868 1769 c 2,22,-1
 868 1771 l 2,23,24
 868 1819 868 1819 815 1819 c 0,25,26
 777 1819 777 1819 756 1792 c 0,27,28
 734 1765 734 1765 734 1724 c 2,29,-1
 734 1722 l 2,30,31
 734 1674 734 1674 791 1674 c 0,18,19
5 0 m 1,32,-1
 672 1511 l 1,33,-1
 867 1511 l 1,34,-1
 1533 0 l 1,35,-1
 1318 0 l 1,36,-1
 1011 696 l 1,37,-1
 482 696 l 1,38,-1
 176 0 l 1,39,-1
 5 0 l 1,32,-1
746 1318 m 1,40,-1
 546 846 l 1,41,-1
 947 846 l 1,42,-1
 746 1318 l 1,40,-1
EndSplineSet
Validated: 1
EndChar

StartChar: AE
Encoding: 198 198 136
Width: 2578
GlyphClass: 2
Flags: W
HStem: -20 123<1597.1 1983.87> 0 21G<5 183.793 1308.18 1533> 696 150<546 947 1332 2133> 1407 124<1751.87 2172.55> 1491 20G<662.185 874.825>
VStem: 5 170<0 170>
DStem2: 5 0 175 0 0.403327 0.915056<68.5656 828.863 992.337 1504.91> 866 1511 746 1318 0.403834 -0.914832<128.103 641.074 1031.27 1432.55> 2332 423 2462 327 0.6 0.8<-264.657 24.4>
LayerCount: 2
Fore
SplineSet
746 1318 m 1,0,-1
 546 846 l 1,1,-1
 947 846 l 1,2,-1
 746 1318 l 1,0,-1
5 0 m 1,3,-1
 671 1511 l 1,4,-1
 866 1511 l 1,5,-1
 1144 881 l 1,6,7
 1188 1037 1188 1037 1297 1177 c 1,8,9
 1453 1376 1453 1376 1644 1456 c 1,10,11
 1818 1531 1818 1531 1983 1531 c 2,12,-1
 1987 1531 l 1,13,14
 2151 1530 2151 1530 2268 1475 c 0,15,16
 2390 1417 2390 1417 2476 1327 c 1,17,-1
 2498 1305 l 1,18,-1
 2346 1215 l 1,19,-1
 2332 1234 l 1,20,21
 2292 1293 2292 1293 2214 1341 c 0,22,23
 2106 1407 2106 1407 1971 1407 c 2,24,-1
 1952 1407 l 2,25,26
 1843 1407 1843 1407 1731 1354 c 0,27,28
 1549 1267 1549 1267 1426 1089 c 0,29,30
 1365 1000 1365 1000 1332 846 c 1,31,-1
 2133 846 l 1,32,-1
 2133 696 l 1,33,-1
 1317 696 l 1,34,-1
 1317 689 l 1,35,36
 1319 629 1319 629 1321 603 c 0,37,38
 1333 460 1333 460 1378 359 c 0,39,40
 1432 240 1432 240 1554 169 c 0,41,42
 1668 103 1668 103 1792 103 c 2,43,-1
 1809 103 l 2,44,45
 1889 103 1889 103 2025 165 c 0,46,47
 2205 247 2205 247 2332 423 c 1,48,-1
 2346 443 l 1,49,-1
 2477 347 l 1,50,-1
 2462 327 l 2,51,52
 2339 163 2339 163 2127 56 c 0,53,54
 1976 -20 1976 -20 1804 -20 c 2,55,-1
 1783 -20 l 2,56,57
 1633 -20 1633 -20 1521 27 c 1,58,-1
 1533 0 l 1,59,-1
 1317 0 l 1,60,-1
 1010 696 l 1,61,-1
 481 696 l 1,62,-1
 175 0 l 1,63,-1
 5 0 l 1,3,-1
EndSplineSet
Validated: 16385
EndChar

StartChar: Ccedilla
Encoding: 199 199 137
Width: 1562
GlyphClass: 2
Flags: W
HStem: -410 21G<722.716 763> 1407 124<735.871 1156.55>
VStem: 100 201<402.805 929.885> 707 185<-195.492 -18.7507>
DStem2: 1316 423 1446 327 0.6 0.8<-265.026 24.4>
LayerCount: 2
Fore
SplineSet
1461 347 m 1,0,-1
 1446 327 l 2,1,2
 1323 162 1323 162 1111 56 c 0,3,4
 1001 1 1001 1 881 -14 c 1,5,6
 892 -54 892 -54 892 -95 c 0,7,8
 892 -216 892 -216 814 -328 c 0,9,10
 798 -351 798 -351 763 -392 c 1,11,-1
 746 -410 l 1,12,-1
 590 -276 l 1,13,-1
 631 -236 l 1,14,15
 707 -156 707 -156 707 -72 c 2,16,-1
 707 -69 l 2,17,18
 707 -42 707 -42 701 -18 c 1,19,20
 579 -9 579 -9 487 35 c 0,21,22
 349 101 349 101 271 185 c 1,23,24
 184 276 184 276 144 379 c 0,25,26
 112 459 112 459 102 610 c 0,27,28
 100 644 100 644 100 670 c 0,29,30
 101 755 101 755 115 827 c 1,31,32
 154 1013 154 1013 281 1177 c 1,33,34
 437 1376 437 1376 628 1456 c 1,35,36
 802 1531 802 1531 967 1531 c 2,37,-1
 971 1531 l 1,38,39
 1135 1530 1135 1530 1252 1475 c 0,40,41
 1374 1417 1374 1417 1460 1327 c 1,42,-1
 1482 1305 l 1,43,-1
 1330 1215 l 1,44,-1
 1316 1234 l 1,45,46
 1276 1293 1276 1293 1198 1341 c 0,47,48
 1090 1407 1090 1407 955 1407 c 2,49,-1
 936 1407 l 2,50,51
 827 1407 827 1407 715 1354 c 0,52,53
 532 1266 532 1266 410 1088 c 0,54,55
 346 994 346 994 311 813 c 0,56,57
 301 762 301 762 301 696 c 0,58,59
 301 653 301 653 305 605 c 0,60,61
 317 461 317 461 362 360 c 0,62,63
 416 240 416 240 538 169 c 0,64,65
 651 103 651 103 776 103 c 2,66,-1
 793 103 l 2,67,68
 873 103 873 103 1009 165 c 0,69,70
 1189 247 1189 247 1316 423 c 1,71,-1
 1330 443 l 1,72,-1
 1461 347 l 1,0,-1
EndSplineSet
Validated: 1
EndChar

StartChar: Egrave
Encoding: 200 200 138
Width: 1562
GlyphClass: 2
Flags: W
HStem: -20 123<580.797 968.131> 696 150<316 1117> 1407 124<735.871 1156.55>
VStem: 100 201<401.764 693.649>
DStem2: 781 2001 676 1895 0.709633 -0.704571<0.173107 417.363> 1316 423 1446 327 0.6 0.8<-266.122 24.4>
LayerCount: 2
Fore
SplineSet
971 1600 m 1,0,-1
 676 1895 l 1,1,-1
 781 2001 l 1,2,-1
 1078 1706 l 1,3,-1
 971 1600 l 1,0,-1
1461 347 m 1,4,-1
 1446 327 l 2,5,6
 1324 163 1324 163 1111 56 c 0,7,8
 961 -20 961 -20 788 -20 c 2,9,-1
 767 -20 l 2,10,11
 603 -20 603 -20 487 35 c 1,12,13
 351 98 351 98 270 185 c 0,14,15
 183 280 183 280 144 379 c 0,16,17
 112 458 112 458 102 610 c 0,18,19
 100 644 100 644 100 670 c 0,20,21
 101 755 101 755 115 827 c 1,22,23
 154 1013 154 1013 281 1177 c 1,24,25
 437 1376 437 1376 628 1456 c 1,26,27
 802 1531 802 1531 967 1531 c 2,28,-1
 971 1531 l 1,29,30
 1135 1530 1135 1530 1252 1475 c 0,31,32
 1374 1417 1374 1417 1460 1327 c 1,33,-1
 1482 1305 l 1,34,-1
 1330 1215 l 1,35,-1
 1316 1234 l 1,36,37
 1276 1293 1276 1293 1198 1341 c 0,38,39
 1090 1407 1090 1407 955 1407 c 2,40,-1
 936 1407 l 2,41,42
 827 1407 827 1407 715 1354 c 0,43,44
 532 1267 532 1267 410 1089 c 0,45,46
 349 1001 349 1001 316 846 c 1,47,-1
 1117 846 l 1,48,-1
 1117 696 l 1,49,-1
 301 696 l 1,50,51
 301 690 301 690 301 689 c 0,52,53
 303 629 303 629 305 603 c 0,54,55
 317 460 317 460 362 359 c 0,56,57
 416 239 416 239 538 169 c 1,58,59
 651 103 651 103 776 103 c 2,60,-1
 793 103 l 2,61,62
 874 103 874 103 1009 165 c 0,63,64
 1189 247 1189 247 1316 423 c 1,65,-1
 1330 443 l 1,66,-1
 1461 347 l 1,4,-1
EndSplineSet
Validated: 1
EndChar

StartChar: Eacute
Encoding: 201 201 139
Width: 1562
GlyphClass: 2
Flags: W
HStem: -20 123<580.797 968.131> 696 150<316 1117> 1407 124<735.871 1156.55>
VStem: 100 201<401.764 693.649>
DStem2: 863 1706 970 1600 0.709492 0.704714<1.21593 418.407> 1316 423 1446 327 0.6 0.8<-266.122 24.4>
LayerCount: 2
Fore
SplineSet
970 1600 m 1,0,-1
 863 1706 l 1,1,-1
 1160 2001 l 1,2,-1
 1265 1895 l 1,3,-1
 970 1600 l 1,0,-1
1461 347 m 1,4,-1
 1446 327 l 2,5,6
 1324 163 1324 163 1111 56 c 0,7,8
 961 -20 961 -20 788 -20 c 2,9,-1
 767 -20 l 2,10,11
 603 -20 603 -20 487 35 c 1,12,13
 351 98 351 98 270 185 c 0,14,15
 183 280 183 280 144 379 c 0,16,17
 112 458 112 458 102 610 c 0,18,19
 100 644 100 644 100 670 c 0,20,21
 101 755 101 755 115 827 c 1,22,23
 154 1013 154 1013 281 1177 c 1,24,25
 437 1376 437 1376 628 1456 c 1,26,27
 802 1531 802 1531 967 1531 c 2,28,-1
 971 1531 l 1,29,30
 1135 1530 1135 1530 1252 1475 c 0,31,32
 1374 1417 1374 1417 1460 1327 c 1,33,-1
 1482 1305 l 1,34,-1
 1330 1215 l 1,35,-1
 1316 1234 l 1,36,37
 1276 1293 1276 1293 1198 1341 c 0,38,39
 1090 1407 1090 1407 955 1407 c 2,40,-1
 936 1407 l 2,41,42
 827 1407 827 1407 715 1354 c 0,43,44
 532 1267 532 1267 410 1089 c 0,45,46
 349 1001 349 1001 316 846 c 1,47,-1
 1117 846 l 1,48,-1
 1117 696 l 1,49,-1
 301 696 l 1,50,51
 301 690 301 690 301 689 c 0,52,53
 303 629 303 629 305 603 c 0,54,55
 317 460 317 460 362 359 c 0,56,57
 416 239 416 239 538 169 c 1,58,59
 651 103 651 103 776 103 c 2,60,-1
 793 103 l 2,61,62
 874 103 874 103 1009 165 c 0,63,64
 1189 247 1189 247 1316 423 c 1,65,-1
 1330 443 l 1,66,-1
 1461 347 l 1,4,-1
EndSplineSet
Validated: 1
EndChar

StartChar: Ecircumflex
Encoding: 202 202 140
Width: 1562
GlyphClass: 2
Flags: W
HStem: -20 123<580.797 968.131> 696 150<316 1117> 1407 124<735.871 1156.55> 1789 212<870 1082>
VStem: 100 201<401.764 693.649>
DStem2: 681 1706 786 1600 0.707107 0.707107<0 267.286> 976 2001 976 1789 0.707107 -0.707107<149.907 417.193> 1316 423 1446 327 0.6 0.8<-266.122 24.4>
LayerCount: 2
Fore
SplineSet
681 1706 m 1,0,-1
 976 2001 l 1,1,-1
 1271 1706 l 1,2,-1
 1166 1600 l 1,3,-1
 976 1789 l 1,4,-1
 786 1600 l 1,5,-1
 681 1706 l 1,0,-1
1461 347 m 1,6,-1
 1446 327 l 2,7,8
 1324 163 1324 163 1111 56 c 0,9,10
 961 -20 961 -20 788 -20 c 2,11,-1
 767 -20 l 2,12,13
 603 -20 603 -20 487 35 c 1,14,15
 351 98 351 98 270 185 c 0,16,17
 183 280 183 280 144 379 c 0,18,19
 112 458 112 458 102 610 c 0,20,21
 100 644 100 644 100 670 c 0,22,23
 101 755 101 755 115 827 c 1,24,25
 154 1013 154 1013 281 1177 c 1,26,27
 437 1376 437 1376 628 1456 c 1,28,29
 802 1531 802 1531 967 1531 c 2,30,-1
 971 1531 l 1,31,32
 1135 1530 1135 1530 1252 1475 c 0,33,34
 1374 1417 1374 1417 1460 1327 c 1,35,-1
 1482 1305 l 1,36,-1
 1330 1215 l 1,37,-1
 1316 1234 l 1,38,39
 1276 1293 1276 1293 1198 1341 c 0,40,41
 1090 1407 1090 1407 955 1407 c 2,42,-1
 936 1407 l 2,43,44
 827 1407 827 1407 715 1354 c 0,45,46
 532 1267 532 1267 410 1089 c 0,47,48
 349 1001 349 1001 316 846 c 1,49,-1
 1117 846 l 1,50,-1
 1117 696 l 1,51,-1
 301 696 l 1,52,53
 301 690 301 690 301 689 c 0,54,55
 303 629 303 629 305 603 c 0,56,57
 317 460 317 460 362 359 c 0,58,59
 416 239 416 239 538 169 c 1,60,61
 651 103 651 103 776 103 c 2,62,-1
 793 103 l 2,63,64
 874 103 874 103 1009 165 c 0,65,66
 1189 247 1189 247 1316 423 c 1,67,-1
 1330 443 l 1,68,-1
 1461 347 l 1,6,-1
EndSplineSet
Validated: 1
EndChar

StartChar: Edieresis
Encoding: 203 203 141
Width: 1562
GlyphClass: 2
Flags: W
HStem: -20 123<580.797 968.131> 696 150<316 1117> 1407 124<735.871 1156.55> 1660 255<714.16 890.84 1056.13 1231.84>
VStem: 100 201<401.764 693.649> 677 252<1699.16 1875.84> 1018 252<1699.22 1876.9>
DStem2: 1316 423 1446 327 0.6 0.8<-266.122 24.4>
LayerCount: 2
Fore
SplineSet
1018 1788 m 0,0,1
 1018 1840 1018 1840 1055 1877 c 1,2,3
 1090 1915 1090 1915 1144 1915 c 0,4,5
 1196 1915 1196 1915 1233 1878 c 0,6,7
 1268 1843 1268 1843 1270 1789 c 1,8,9
 1270 1735 1270 1735 1233 1697 c 0,10,11
 1196 1660 1196 1660 1144 1660 c 0,12,13
 1091 1660 1091 1660 1055 1698 c 0,14,15
 1018 1737 1018 1737 1018 1788 c 0,0,1
677 1788 m 0,16,17
 677 1840 677 1840 713 1877 c 0,18,19
 750 1915 750 1915 803 1915 c 0,20,21
 855 1915 855 1915 892 1878 c 0,22,23
 927 1843 927 1843 929 1789 c 1,24,25
 929 1735 929 1735 892 1697 c 0,26,27
 855 1660 855 1660 803 1660 c 0,28,29
 750 1660 750 1660 713 1698 c 0,30,31
 677 1735 677 1735 677 1788 c 0,16,17
1461 347 m 1,32,-1
 1446 327 l 2,33,34
 1324 163 1324 163 1111 56 c 0,35,36
 961 -20 961 -20 788 -20 c 2,37,-1
 767 -20 l 2,38,39
 603 -20 603 -20 487 35 c 1,40,41
 351 98 351 98 270 185 c 0,42,43
 183 280 183 280 144 379 c 0,44,45
 112 458 112 458 102 610 c 0,46,47
 100 644 100 644 100 670 c 0,48,49
 101 755 101 755 115 827 c 1,50,51
 154 1013 154 1013 281 1177 c 1,52,53
 437 1376 437 1376 628 1456 c 1,54,55
 802 1531 802 1531 967 1531 c 2,56,-1
 971 1531 l 1,57,58
 1135 1530 1135 1530 1252 1475 c 0,59,60
 1374 1417 1374 1417 1460 1327 c 1,61,-1
 1482 1305 l 1,62,-1
 1330 1215 l 1,63,-1
 1316 1234 l 1,64,65
 1276 1293 1276 1293 1198 1341 c 0,66,67
 1090 1407 1090 1407 955 1407 c 2,68,-1
 936 1407 l 2,69,70
 827 1407 827 1407 715 1354 c 0,71,72
 532 1267 532 1267 410 1089 c 0,73,74
 349 1001 349 1001 316 846 c 1,75,-1
 1117 846 l 1,76,-1
 1117 696 l 1,77,-1
 301 696 l 1,78,79
 301 690 301 690 301 689 c 0,80,81
 303 629 303 629 305 603 c 0,82,83
 317 460 317 460 362 359 c 0,84,85
 416 239 416 239 538 169 c 1,86,87
 651 103 651 103 776 103 c 2,88,-1
 793 103 l 2,89,90
 874 103 874 103 1009 165 c 0,91,92
 1189 247 1189 247 1316 423 c 1,93,-1
 1330 443 l 1,94,-1
 1461 347 l 1,32,-1
EndSplineSet
Validated: 1
EndChar

StartChar: Igrave
Encoding: 204 204 142
Width: 600
GlyphClass: 2
Flags: W
HStem: 0 21G<200 400> 1491 20G<200 400>
VStem: 200 200<0 1511>
DStem2: 107 2001 2 1895 0.709492 -0.704714<0.203052 417.394>
LayerCount: 2
Fore
SplineSet
297 1600 m 1,0,-1
 2 1895 l 1,1,-1
 107 2001 l 1,2,-1
 404 1706 l 1,3,-1
 297 1600 l 1,0,-1
200 0 m 1,4,-1
 200 1511 l 1,5,-1
 400 1511 l 1,6,-1
 400 0 l 1,7,-1
 200 0 l 1,4,-1
EndSplineSet
Validated: 1
EndChar

StartChar: Iacute
Encoding: 205 205 143
Width: 600
GlyphClass: 2
Flags: W
HStem: 0 21G<200 400> 1491 20G<200 400>
VStem: 200 200<0 1511>
DStem2: 197 1706 304 1600 0.709492 0.704714<1.21593 418.407>
LayerCount: 2
Fore
SplineSet
304 1600 m 1,0,-1
 197 1706 l 1,1,-1
 494 2001 l 1,2,-1
 599 1895 l 1,3,-1
 304 1600 l 1,0,-1
200 0 m 1,4,-1
 200 1511 l 1,5,-1
 400 1511 l 1,6,-1
 400 0 l 1,7,-1
 200 0 l 1,4,-1
EndSplineSet
Validated: 1
EndChar

StartChar: Icircumflex
Encoding: 206 206 144
Width: 600
GlyphClass: 2
Flags: W
HStem: 0 21G<200 400> 1491 20G<200 400> 1789 212<194 406>
VStem: 200 200<0 1511>
DStem2: 5 1706 110 1600 0.707107 0.707107<0 267.286> 300 2001 300 1789 0.707107 -0.707107<149.907 417.193>
LayerCount: 2
Fore
SplineSet
5 1706 m 1,0,-1
 300 2001 l 1,1,-1
 595 1706 l 1,2,-1
 490 1600 l 1,3,-1
 300 1789 l 1,4,-1
 110 1600 l 1,5,-1
 5 1706 l 1,0,-1
200 0 m 1,6,-1
 200 1511 l 1,7,-1
 400 1511 l 1,8,-1
 400 0 l 1,9,-1
 200 0 l 1,6,-1
EndSplineSet
Validated: 1
EndChar

StartChar: Idieresis
Encoding: 207 207 145
Width: 600
GlyphClass: 2
Flags: W
HStem: 0 21G<200 400> 1491 20G<200 400> 1660 255<40.1602 216.84 382.129 557.84>
VStem: 3 252<1699.16 1875.84> 200 200<0 1511> 344 252<1699.22 1876.9>
LayerCount: 2
Fore
SplineSet
344 1788 m 0,0,1
 344 1840 344 1840 381 1877 c 1,2,3
 416 1915 416 1915 470 1915 c 0,4,5
 522 1915 522 1915 559 1878 c 0,6,7
 594 1843 594 1843 596 1789 c 1,8,9
 596 1735 596 1735 559 1697 c 0,10,11
 522 1660 522 1660 470 1660 c 0,12,13
 417 1660 417 1660 381 1698 c 0,14,15
 344 1737 344 1737 344 1788 c 0,0,1
3 1788 m 0,16,17
 3 1840 3 1840 39 1877 c 0,18,19
 76 1915 76 1915 129 1915 c 0,20,21
 181 1915 181 1915 218 1878 c 0,22,23
 253 1843 253 1843 255 1789 c 1,24,25
 255 1735 255 1735 218 1697 c 0,26,27
 181 1660 181 1660 129 1660 c 0,28,29
 76 1660 76 1660 39 1698 c 0,30,31
 3 1735 3 1735 3 1788 c 0,16,17
200 0 m 1,32,-1
 200 1511 l 1,33,-1
 400 1511 l 1,34,-1
 400 0 l 1,35,-1
 200 0 l 1,32,-1
EndSplineSet
Validated: 1
EndChar

StartChar: Eth
Encoding: 208 208 146
Width: 1642
GlyphClass: 2
Flags: W
HStem: -20 112<540.652 873.774> 0 21G<200 400> 693 150<50 200 400 933> 1407 124<634.596 1062.98> 1491 20G<200 400>
VStem: 200 200<0 693 843 1180.56 1357 1511> 1339 203<584.663 1108.94>
LayerCount: 2
Fore
SplineSet
200 0 m 1,0,-1
 200 693 l 1,1,-1
 50 693 l 1,2,-1
 50 843 l 1,3,-1
 200 843 l 1,4,-1
 200 1511 l 1,5,-1
 400 1511 l 1,6,-1
 400 1357 l 1,7,8
 462 1420 462 1420 529 1455 c 0,9,10
 674 1531 674 1531 869 1531 c 2,11,-1
 874 1531 l 1,12,13
 1043 1530 1043 1530 1155 1476 c 0,14,15
 1288 1412 1288 1412 1372 1324 c 1,16,17
 1457 1226 1457 1226 1492 1130 c 0,18,19
 1532 1018 1532 1018 1540 899 c 0,20,21
 1542 865 1542 865 1542 843 c 0,22,23
 1541 758 1541 758 1526 681 c 1,24,25
 1490 511 1490 511 1361 332 c 0,26,27
 1239 162 1239 162 1014 53 c 0,28,29
 864 -20 864 -20 717 -20 c 2,30,-1
 702 -20 l 1,31,32
 524 -14 524 -14 454 120 c 1,33,34
 555 92 555 92 647 92 c 0,35,36
 670 92 670 92 696 94 c 0,37,38
 833 105 833 105 956 177 c 0,39,40
 1145 289 1145 289 1228 423 c 0,41,42
 1293 528 1293 528 1328 699 c 0,43,44
 1339 752 1339 752 1339 819 c 0,45,46
 1339 863 1339 863 1335 907 c 0,47,48
 1322 1054 1322 1054 1277 1152 c 0,49,50
 1223 1270 1223 1270 1101 1343 c 0,51,52
 994 1407 994 1407 855 1407 c 2,53,-1
 839 1407 l 2,54,55
 716 1407 716 1407 619 1354 c 0,56,57
 538 1310 538 1310 480 1233 c 0,58,59
 400 1127 400 1127 400 1030 c 2,60,-1
 400 843 l 1,61,-1
 933 843 l 1,62,-1
 933 693 l 1,63,-1
 400 693 l 1,64,-1
 400 0 l 1,65,-1
 200 0 l 1,0,-1
EndSplineSet
Validated: 1
EndChar

StartChar: Ntilde
Encoding: 209 209 147
Width: 1571
GlyphClass: 2
Flags: W
HStem: 0 21G<200 400 1171 1371> 1407 124<674.898 1039.49> 1491 20G<200 400>
VStem: 200 200<0 1159.62 1333 1511> 1171 200<0 1276.12>
LayerCount: 2
Fore
SplineSet
668 1595 m 1,0,-1
 545 1674 l 1,1,-1
 554 1704 l 1,2,3
 589 1825 589 1825 699 1869 c 0,4,5
 724 1879 724 1879 750.5 1879 c 128,-1,6
 777 1879 777 1879 802 1870 c 0,7,8
 828 1861 828 1861 846 1844 c 2,9,-1
 952 1744 l 2,10,11
 974 1724 974 1724 990.5 1740.5 c 128,-1,12
 1007 1757 1007 1757 1019 1838 c 1,13,-1
 1025 1882 l 1,14,-1
 1150 1799 l 1,15,-1
 1145 1770 l 1,16,17
 1120 1645 1120 1645 1035 1606 c 0,18,19
 997 1589 997 1589 964 1589 c 2,20,-1
 962 1589 l 2,21,22
 900 1589 900 1589 854 1624 c 1,23,-1
 759 1722 l 2,24,25
 741 1741 741 1741 723 1730 c 0,26,27
 684 1705 684 1705 674 1635 c 2,28,-1
 668 1595 l 1,0,-1
200 0 m 1,29,-1
 200 1511 l 1,30,-1
 400 1511 l 1,31,-1
 400 1333 l 1,32,33
 482 1416 482 1416 617 1475 c 0,34,35
 746 1531 746 1531 883 1531 c 2,36,-1
 888 1531 l 1,37,38
 999 1530 999 1530 1097 1497 c 0,39,40
 1185 1468 1185 1468 1248 1409 c 0,41,42
 1310 1352 1310 1352 1345 1259 c 0,43,44
 1370 1191 1370 1191 1371 1104 c 1,45,-1
 1371 0 l 1,46,-1
 1171 0 l 1,47,-1
 1171 1102 l 1,48,49
 1169 1196 1169 1196 1140 1254 c 0,50,51
 1103 1326 1103 1326 1033 1367 c 0,52,53
 964 1407 964 1407 871 1407 c 2,54,55
 871 1407 871 1407 859 1407 c 0,56,57
 771 1406 771 1406 665 1359 c 0,58,59
 552 1309 552 1309 487 1226 c 0,60,61
 400 1117 400 1117 400 944 c 2,62,-1
 400 0 l 1,63,-1
 200 0 l 1,29,-1
EndSplineSet
Validated: 1
EndChar

StartChar: Ograve
Encoding: 210 210 148
Width: 1739
GlyphClass: 2
Flags: W
HStem: -20 123<580.797 971.857> 1407 124<735.871 1161.58>
VStem: 100 201<402.482 930.937> 1436 203<584.567 1107.23>
DStem2: 781 2001 676 1895 0.709492 -0.704714<0.203052 417.394>
LayerCount: 2
Fore
SplineSet
971 1600 m 1,0,-1
 676 1895 l 1,1,-1
 781 2001 l 1,2,-1
 1078 1706 l 1,3,-1
 971 1600 l 1,0,-1
971 1531 m 1,4,5
 1138 1530 1138 1530 1252 1476 c 0,6,7
 1385 1414 1385 1414 1469 1325 c 0,8,9
 1554 1234 1554 1234 1594 1131 c 1,10,11
 1626 1052 1626 1052 1637 900 c 0,12,13
 1639 869 1639 869 1639 844 c 0,14,15
 1638 759 1638 759 1623 683 c 0,16,17
 1588 512 1588 512 1458 334 c 0,18,19
 1335 164 1335 164 1111 56 c 1,20,21
 960 -20 960 -20 788 -20 c 2,22,23
 788 -20 788 -20 767 -20 c 0,24,25
 603 -20 603 -20 487 35 c 0,26,27
 351 99 351 99 271 185 c 1,28,29
 184 276 184 276 144 379 c 1,30,31
 112 458 112 458 102 610 c 0,32,33
 100 644 100 644 100 668 c 0,34,35
 101 752 101 752 115 827 c 0,36,37
 151 1009 151 1009 281 1176 c 0,38,39
 436 1376 436 1376 628 1456 c 1,40,41
 802 1531 802 1531 967 1531 c 2,42,-1
 971 1531 l 1,4,5
955 1407 m 0,43,44
 819 1403 819 1403 715 1354 c 0,45,46
 532 1266 532 1266 410 1088 c 0,47,48
 345 992 345 992 311 813 c 0,49,50
 301 763 301 763 301 696 c 0,51,52
 301 654 301 654 305 605 c 0,53,54
 317 460 317 460 362 360 c 0,55,56
 417 239 417 239 538 169 c 0,57,58
 651 103 651 103 776 103 c 2,59,60
 776 103 776 103 793 103 c 0,61,62
 873 103 873 103 1009 162 c 0,63,64
 1215 253 1215 253 1326 424 c 0,65,66
 1404 544 1404 544 1425 698 c 0,67,68
 1436 775 1436 775 1436 821 c 0,69,70
 1436 865 1436 865 1432 907 c 0,71,72
 1418 1055 1418 1055 1374 1152 c 0,73,74
 1320 1269 1320 1269 1198 1343 c 0,75,76
 1093 1407 1093 1407 977 1407 c 2,77,78
 977 1407 977 1407 955 1407 c 0,43,44
EndSplineSet
Validated: 1
EndChar

StartChar: Oacute
Encoding: 211 211 149
Width: 1739
GlyphClass: 2
Flags: W
HStem: -20 123<580.797 971.857> 1407 124<735.871 1161.58>
VStem: 100 201<402.482 930.937> 1436 203<584.567 1107.23>
DStem2: 866 1706 973 1600 0.709492 0.704714<1.21593 418.407>
LayerCount: 2
Fore
SplineSet
973 1600 m 1,0,-1
 866 1706 l 1,1,-1
 1163 2001 l 1,2,-1
 1268 1895 l 1,3,-1
 973 1600 l 1,0,-1
971 1531 m 1,4,5
 1138 1530 1138 1530 1252 1476 c 0,6,7
 1385 1414 1385 1414 1469 1325 c 0,8,9
 1554 1234 1554 1234 1594 1131 c 1,10,11
 1626 1052 1626 1052 1637 900 c 0,12,13
 1639 869 1639 869 1639 844 c 0,14,15
 1638 759 1638 759 1623 683 c 0,16,17
 1588 512 1588 512 1458 334 c 0,18,19
 1335 164 1335 164 1111 56 c 1,20,21
 960 -20 960 -20 788 -20 c 2,22,23
 788 -20 788 -20 767 -20 c 0,24,25
 603 -20 603 -20 487 35 c 0,26,27
 351 99 351 99 271 185 c 1,28,29
 184 276 184 276 144 379 c 1,30,31
 112 458 112 458 102 610 c 0,32,33
 100 644 100 644 100 668 c 0,34,35
 101 752 101 752 115 827 c 0,36,37
 151 1009 151 1009 281 1176 c 0,38,39
 436 1376 436 1376 628 1456 c 1,40,41
 802 1531 802 1531 967 1531 c 2,42,-1
 971 1531 l 1,4,5
955 1407 m 0,43,44
 819 1403 819 1403 715 1354 c 0,45,46
 532 1266 532 1266 410 1088 c 0,47,48
 345 992 345 992 311 813 c 0,49,50
 301 763 301 763 301 696 c 0,51,52
 301 654 301 654 305 605 c 0,53,54
 317 460 317 460 362 360 c 0,55,56
 417 239 417 239 538 169 c 0,57,58
 651 103 651 103 776 103 c 2,59,60
 776 103 776 103 793 103 c 0,61,62
 873 103 873 103 1009 162 c 0,63,64
 1215 253 1215 253 1326 424 c 0,65,66
 1404 544 1404 544 1425 698 c 0,67,68
 1436 775 1436 775 1436 821 c 0,69,70
 1436 865 1436 865 1432 907 c 0,71,72
 1418 1055 1418 1055 1374 1152 c 0,73,74
 1320 1269 1320 1269 1198 1343 c 0,75,76
 1093 1407 1093 1407 977 1407 c 2,77,78
 977 1407 977 1407 955 1407 c 0,43,44
EndSplineSet
Validated: 1
EndChar

StartChar: Ocircumflex
Encoding: 212 212 150
Width: 1739
GlyphClass: 2
Flags: W
HStem: -20 123<580.797 971.857> 1407 124<735.871 1161.58> 1789 212<870 1082>
VStem: 100 201<402.482 930.937> 1436 203<584.567 1107.23>
DStem2: 681 1706 786 1600 0.707107 0.707107<0 267.286> 976 2001 976 1789 0.707107 -0.707107<149.907 417.193>
LayerCount: 2
Fore
SplineSet
681 1706 m 1,0,-1
 976 2001 l 1,1,-1
 1271 1706 l 1,2,-1
 1166 1600 l 1,3,-1
 976 1789 l 1,4,-1
 786 1600 l 1,5,-1
 681 1706 l 1,0,-1
971 1531 m 1,6,7
 1138 1530 1138 1530 1252 1476 c 0,8,9
 1385 1414 1385 1414 1469 1325 c 0,10,11
 1554 1234 1554 1234 1594 1131 c 1,12,13
 1626 1052 1626 1052 1637 900 c 0,14,15
 1639 869 1639 869 1639 844 c 0,16,17
 1638 759 1638 759 1623 683 c 0,18,19
 1588 512 1588 512 1458 334 c 0,20,21
 1335 164 1335 164 1111 56 c 1,22,23
 960 -20 960 -20 788 -20 c 2,24,25
 788 -20 788 -20 767 -20 c 0,26,27
 603 -20 603 -20 487 35 c 0,28,29
 351 99 351 99 271 185 c 1,30,31
 184 276 184 276 144 379 c 1,32,33
 112 458 112 458 102 610 c 0,34,35
 100 644 100 644 100 668 c 0,36,37
 101 752 101 752 115 827 c 0,38,39
 151 1009 151 1009 281 1176 c 0,40,41
 436 1376 436 1376 628 1456 c 1,42,43
 802 1531 802 1531 967 1531 c 2,44,-1
 971 1531 l 1,6,7
955 1407 m 0,45,46
 819 1403 819 1403 715 1354 c 0,47,48
 532 1266 532 1266 410 1088 c 0,49,50
 345 992 345 992 311 813 c 0,51,52
 301 763 301 763 301 696 c 0,53,54
 301 654 301 654 305 605 c 0,55,56
 317 460 317 460 362 360 c 0,57,58
 417 239 417 239 538 169 c 0,59,60
 651 103 651 103 776 103 c 2,61,62
 776 103 776 103 793 103 c 0,63,64
 873 103 873 103 1009 162 c 0,65,66
 1215 253 1215 253 1326 424 c 0,67,68
 1404 544 1404 544 1425 698 c 0,69,70
 1436 775 1436 775 1436 821 c 0,71,72
 1436 865 1436 865 1432 907 c 0,73,74
 1418 1055 1418 1055 1374 1152 c 0,75,76
 1320 1269 1320 1269 1198 1343 c 0,77,78
 1093 1407 1093 1407 977 1407 c 2,79,80
 977 1407 977 1407 955 1407 c 0,45,46
EndSplineSet
Validated: 1
EndChar

StartChar: Otilde
Encoding: 213 213 151
Width: 1739
GlyphClass: 2
Flags: W
HStem: -20 123<580.797 971.857> 1407 124<735.871 1161.58>
VStem: 100 201<402.482 930.937> 1436 203<584.567 1107.23>
LayerCount: 2
Fore
SplineSet
779 1595 m 1,0,-1
 656 1674 l 1,1,-1
 665 1704 l 1,2,3
 700 1825 700 1825 810 1869 c 0,4,5
 835 1879 835 1879 861.5 1879 c 128,-1,6
 888 1879 888 1879 913 1870 c 0,7,8
 939 1861 939 1861 957 1844 c 2,9,-1
 1063 1744 l 2,10,11
 1085 1724 1085 1724 1101.5 1740.5 c 128,-1,12
 1118 1757 1118 1757 1130 1838 c 1,13,-1
 1136 1882 l 1,14,-1
 1261 1799 l 1,15,-1
 1256 1770 l 1,16,17
 1231 1645 1231 1645 1146 1606 c 0,18,19
 1108 1589 1108 1589 1075 1589 c 2,20,-1
 1073 1589 l 2,21,22
 1011 1589 1011 1589 965 1624 c 1,23,-1
 870 1722 l 2,24,25
 852 1741 852 1741 834 1730 c 0,26,27
 795 1705 795 1705 785 1635 c 2,28,-1
 779 1595 l 1,0,-1
971 1531 m 1,29,30
 1138 1530 1138 1530 1252 1476 c 0,31,32
 1385 1414 1385 1414 1469 1325 c 0,33,34
 1554 1234 1554 1234 1594 1131 c 1,35,36
 1626 1052 1626 1052 1637 900 c 0,37,38
 1639 869 1639 869 1639 844 c 0,39,40
 1638 759 1638 759 1623 683 c 0,41,42
 1588 512 1588 512 1458 334 c 0,43,44
 1335 164 1335 164 1111 56 c 1,45,46
 960 -20 960 -20 788 -20 c 2,47,48
 788 -20 788 -20 767 -20 c 0,49,50
 603 -20 603 -20 487 35 c 0,51,52
 351 99 351 99 271 185 c 1,53,54
 184 276 184 276 144 379 c 1,55,56
 112 458 112 458 102 610 c 0,57,58
 100 644 100 644 100 668 c 0,59,60
 101 752 101 752 115 827 c 0,61,62
 151 1009 151 1009 281 1176 c 0,63,64
 436 1376 436 1376 628 1456 c 1,65,66
 802 1531 802 1531 967 1531 c 2,67,-1
 971 1531 l 1,29,30
955 1407 m 0,68,69
 819 1403 819 1403 715 1354 c 0,70,71
 532 1266 532 1266 410 1088 c 0,72,73
 345 992 345 992 311 813 c 0,74,75
 301 763 301 763 301 696 c 0,76,77
 301 654 301 654 305 605 c 0,78,79
 317 460 317 460 362 360 c 0,80,81
 417 239 417 239 538 169 c 0,82,83
 651 103 651 103 776 103 c 2,84,85
 776 103 776 103 793 103 c 0,86,87
 873 103 873 103 1009 162 c 0,88,89
 1215 253 1215 253 1326 424 c 0,90,91
 1404 544 1404 544 1425 698 c 0,92,93
 1436 775 1436 775 1436 821 c 0,94,95
 1436 865 1436 865 1432 907 c 0,96,97
 1418 1055 1418 1055 1374 1152 c 0,98,99
 1320 1269 1320 1269 1198 1343 c 0,100,101
 1093 1407 1093 1407 977 1407 c 2,102,103
 977 1407 977 1407 955 1407 c 0,68,69
EndSplineSet
Validated: 1
EndChar

StartChar: Odieresis
Encoding: 214 214 152
Width: 1739
GlyphClass: 2
Flags: W
HStem: -20 123<580.797 971.857> 1407 124<735.871 1161.58> 1660 255<714.16 890.84 1056.13 1231.84>
VStem: 100 201<402.482 930.937> 677 252<1699.16 1875.84> 1018 252<1699.22 1876.9> 1436 203<584.567 1107.23>
LayerCount: 2
Fore
SplineSet
1018 1788 m 0,0,1
 1018 1840 1018 1840 1055 1877 c 1,2,3
 1090 1915 1090 1915 1144 1915 c 0,4,5
 1196 1915 1196 1915 1233 1878 c 0,6,7
 1268 1843 1268 1843 1270 1789 c 1,8,9
 1270 1735 1270 1735 1233 1697 c 0,10,11
 1196 1660 1196 1660 1144 1660 c 0,12,13
 1091 1660 1091 1660 1055 1698 c 0,14,15
 1018 1737 1018 1737 1018 1788 c 0,0,1
677 1788 m 0,16,17
 677 1840 677 1840 713 1877 c 0,18,19
 750 1915 750 1915 803 1915 c 0,20,21
 855 1915 855 1915 892 1878 c 0,22,23
 927 1843 927 1843 929 1789 c 1,24,25
 929 1735 929 1735 892 1697 c 0,26,27
 855 1660 855 1660 803 1660 c 0,28,29
 750 1660 750 1660 713 1698 c 0,30,31
 677 1735 677 1735 677 1788 c 0,16,17
971 1531 m 1,32,33
 1138 1530 1138 1530 1252 1476 c 0,34,35
 1385 1414 1385 1414 1469 1325 c 0,36,37
 1554 1234 1554 1234 1594 1131 c 1,38,39
 1626 1052 1626 1052 1637 900 c 0,40,41
 1639 869 1639 869 1639 844 c 0,42,43
 1638 759 1638 759 1623 683 c 0,44,45
 1588 512 1588 512 1458 334 c 0,46,47
 1335 164 1335 164 1111 56 c 1,48,49
 960 -20 960 -20 788 -20 c 2,50,51
 788 -20 788 -20 767 -20 c 0,52,53
 603 -20 603 -20 487 35 c 0,54,55
 351 99 351 99 271 185 c 1,56,57
 184 276 184 276 144 379 c 1,58,59
 112 458 112 458 102 610 c 0,60,61
 100 644 100 644 100 668 c 0,62,63
 101 752 101 752 115 827 c 0,64,65
 151 1009 151 1009 281 1176 c 0,66,67
 436 1376 436 1376 628 1456 c 1,68,69
 802 1531 802 1531 967 1531 c 2,70,-1
 971 1531 l 1,32,33
955 1407 m 0,71,72
 819 1403 819 1403 715 1354 c 0,73,74
 532 1266 532 1266 410 1088 c 0,75,76
 345 992 345 992 311 813 c 0,77,78
 301 763 301 763 301 696 c 0,79,80
 301 654 301 654 305 605 c 0,81,82
 317 460 317 460 362 360 c 0,83,84
 417 239 417 239 538 169 c 0,85,86
 651 103 651 103 776 103 c 2,87,88
 776 103 776 103 793 103 c 0,89,90
 873 103 873 103 1009 162 c 0,91,92
 1215 253 1215 253 1326 424 c 0,93,94
 1404 544 1404 544 1425 698 c 0,95,96
 1436 775 1436 775 1436 821 c 0,97,98
 1436 865 1436 865 1432 907 c 0,99,100
 1418 1055 1418 1055 1374 1152 c 0,101,102
 1320 1269 1320 1269 1198 1343 c 0,103,104
 1093 1407 1093 1407 977 1407 c 2,105,106
 977 1407 977 1407 955 1407 c 0,71,72
EndSplineSet
Validated: 1
EndChar

StartChar: multiply
Encoding: 215 215 153
Width: 1031
GlyphClass: 2
Flags: W
HStem: 662 213<408.5 621.5>
VStem: 409 213<661.5 874.5>
DStem2: 256 1134 150 1027 0.707107 -0.707107<0.707107 366.281 517.602 883.176> 150 509 256 403 0.707673 0.70654<0.120025 366.281 517.016 883.176>
LayerCount: 2
Fore
SplineSet
774 403 m 1,0,-1
 515 662 l 1,1,-1
 256 403 l 1,2,-1
 150 509 l 1,3,-1
 409 768 l 1,4,-1
 150 1027 l 1,5,-1
 256 1134 l 1,6,-1
 515 875 l 1,7,-1
 774 1134 l 1,8,-1
 881 1027 l 1,9,-1
 622 768 l 1,10,-1
 881 509 l 1,11,-1
 774 403 l 1,0,-1
EndSplineSet
Validated: 1
EndChar

StartChar: Oslash
Encoding: 216 216 154
Width: 1739
GlyphClass: 2
Flags: W
HStem: -20 123<625.462 979.134> 0 21G<343 554.923> 1407 124<735.871 1112.32> 1491 20G<1182.25 1394>
VStem: 100 201<402.482 931.858> 1436 203<584.531 1107.23>
DStem2: 466.028 220.254 622.385 129.59 0.487653 0.873038<-151.341 -149.012 0 1326.19 1477.08 1478.45>
LayerCount: 2
Fore
SplineSet
343 0 m 1,0,-1
 391.585 86.9808 l 1,1,2
 320.404 131.89 320.404 131.89 271 185 c 0,3,4
 184 276 184 276 144 379 c 1,5,6
 112 458 112 458 102 610 c 0,7,8
 100 644 100 644 100 668 c 0,9,10
 101 752 101 752 115 827 c 0,11,12
 151 1009 151 1009 281 1176 c 0,13,14
 437 1376 437 1376 628 1456 c 1,15,16
 802 1531 802 1531 967 1531 c 2,17,-1
 971 1531 l 2,18,19
 1089.64 1530.29 1089.64 1530.29 1182.25 1502.5 c 1,20,-1
 1187 1511 l 1,21,-1
 1394 1511 l 1,22,-1
 1345.9 1424.89 l 1,23,24
 1417.2 1379.89 1417.2 1379.89 1469 1325 c 0,25,26
 1554 1234 1554 1234 1594 1131 c 1,27,28
 1626 1052 1626 1052 1637 900 c 0,29,30
 1639 869 1639 869 1639 844 c 0,31,32
 1638 759 1638 759 1623 683 c 0,33,34
 1588 513 1588 513 1458 334 c 0,35,36
 1334 164 1334 164 1111 56 c 1,37,38
 960 -20 960 -20 788 -20 c 2,39,-1
 767 -20 l 2,40,41
 648.635 -20 648.635 -20 554.923 8.81337 c 1,42,-1
 550 0 l 1,43,-1
 343 0 l 1,0,-1
466.028 220.254 m 1,44,-1
 1115.39 1382.8 l 1,45,46
 1048.19 1407 1048.19 1407 977 1407 c 2,47,-1
 955 1407 l 1,48,49
 819 1403 819 1403 715 1354 c 0,50,51
 532 1266 532 1266 410 1088 c 0,52,53
 346 994 346 994 311 813 c 0,54,55
 301 762 301 762 301 696 c 0,56,57
 301 654 301 654 305 605 c 0,58,59
 317 460 317 460 362 360 c 0,60,61
 398.945 278.721 398.945 278.721 466.028 220.254 c 1,44,-1
1270.52 1289.94 m 1,62,-1
 622.385 129.59 l 1,63,64
 697 103 697 103 776 103 c 2,65,-1
 793 103 l 2,66,67
 881.716 103 881.716 103 1016 163 c 0,68,69
 1215 252 1215 252 1326 424 c 0,70,71
 1403 543 1403 543 1425 698 c 0,72,73
 1436 777 1436 777 1436 821 c 128,-1,74
 1436 865 1436 865 1432 907 c 0,75,76
 1418 1055 1418 1055 1374 1152 c 0,77,78
 1338 1231 1338 1231 1270.52 1289.94 c 1,62,-1
EndSplineSet
Validated: 1
EndChar

StartChar: Ugrave
Encoding: 217 217 155
Width: 1571
GlyphClass: 2
Flags: W
HStem: -20 124<531.51 896.102> 0 21G<1171 1371> 1491 20G<200 400 1171 1371>
VStem: 200 200<234.879 1511> 1171 200<0 178 351.375 1511>
DStem2: 605 2001 500 1895 0.709492 -0.704714<0.203052 417.394>
LayerCount: 2
Fore
SplineSet
795 1600 m 1,0,-1
 500 1895 l 1,1,-1
 605 2001 l 1,2,-1
 902 1706 l 1,3,-1
 795 1600 l 1,0,-1
1371 0 m 1,4,-1
 1171 0 l 1,5,-1
 1171 178 l 1,6,7
 1089 95 1089 95 954 36 c 0,8,9
 825 -20 825 -20 688 -20 c 2,10,11
 688 -20 688 -20 683 -20 c 0,12,13
 575 -20 575 -20 474 14 c 0,14,15
 386 43 386 43 323 102 c 0,16,17
 261 159 261 159 226 252 c 0,18,19
 201 320 201 320 200 407 c 1,20,-1
 200 1511 l 1,21,-1
 400 1511 l 1,22,-1
 400 409 l 1,23,24
 402 315 402 315 431 257 c 0,25,26
 468 185 468 185 538 144 c 0,27,28
 607 104 607 104 700 104 c 2,29,30
 700 104 700 104 712 104 c 0,31,32
 800 105 800 105 906 152 c 0,33,34
 1019 202 1019 202 1084 285 c 0,35,36
 1171 394 1171 394 1171 567 c 2,37,-1
 1171 1511 l 1,38,-1
 1371 1511 l 1,39,-1
 1371 0 l 1,4,-1
EndSplineSet
Validated: 1
EndChar

StartChar: Uacute
Encoding: 218 218 156
Width: 1571
GlyphClass: 2
Flags: W
HStem: -20 124<531.51 896.102> 0 21G<1171 1371> 1491 20G<200 400 1171 1371>
VStem: 200 200<234.879 1511> 1171 200<0 178 351.375 1511>
DStem2: 692 1706 799 1600 0.709492 0.704714<1.21593 418.407>
LayerCount: 2
Fore
SplineSet
799 1600 m 1,0,-1
 692 1706 l 1,1,-1
 989 2001 l 1,2,-1
 1094 1895 l 1,3,-1
 799 1600 l 1,0,-1
1371 0 m 1,4,-1
 1171 0 l 1,5,-1
 1171 178 l 1,6,7
 1089 95 1089 95 954 36 c 0,8,9
 825 -20 825 -20 688 -20 c 2,10,11
 688 -20 688 -20 683 -20 c 0,12,13
 575 -20 575 -20 474 14 c 0,14,15
 386 43 386 43 323 102 c 0,16,17
 261 159 261 159 226 252 c 0,18,19
 201 320 201 320 200 407 c 1,20,-1
 200 1511 l 1,21,-1
 400 1511 l 1,22,-1
 400 409 l 1,23,24
 402 315 402 315 431 257 c 0,25,26
 468 185 468 185 538 144 c 0,27,28
 607 104 607 104 700 104 c 2,29,30
 700 104 700 104 712 104 c 0,31,32
 800 105 800 105 906 152 c 0,33,34
 1019 202 1019 202 1084 285 c 0,35,36
 1171 394 1171 394 1171 567 c 2,37,-1
 1171 1511 l 1,38,-1
 1371 1511 l 1,39,-1
 1371 0 l 1,4,-1
EndSplineSet
Validated: 1
EndChar

StartChar: Ucircumflex
Encoding: 219 219 157
Width: 1571
GlyphClass: 2
Flags: W
HStem: -20 124<531.51 896.102> 0 21G<1171 1371> 1491 20G<200 400 1171 1371> 1789 212<686 898>
VStem: 200 200<234.879 1511> 1171 200<0 178 351.375 1511>
DStem2: 497 1706 602 1600 0.707107 0.707107<0 267.286> 792 2001 792 1789 0.707107 -0.707107<149.907 417.193>
LayerCount: 2
Fore
SplineSet
497 1706 m 1,0,-1
 792 2001 l 1,1,-1
 1087 1706 l 1,2,-1
 982 1600 l 1,3,-1
 792 1789 l 1,4,-1
 602 1600 l 1,5,-1
 497 1706 l 1,0,-1
1371 0 m 1,6,-1
 1171 0 l 1,7,-1
 1171 178 l 1,8,9
 1089 95 1089 95 954 36 c 0,10,11
 825 -20 825 -20 688 -20 c 2,12,13
 688 -20 688 -20 683 -20 c 0,14,15
 575 -20 575 -20 474 14 c 0,16,17
 386 43 386 43 323 102 c 0,18,19
 261 159 261 159 226 252 c 0,20,21
 201 320 201 320 200 407 c 1,22,-1
 200 1511 l 1,23,-1
 400 1511 l 1,24,-1
 400 409 l 1,25,26
 402 315 402 315 431 257 c 0,27,28
 468 185 468 185 538 144 c 0,29,30
 607 104 607 104 700 104 c 2,31,32
 700 104 700 104 712 104 c 0,33,34
 800 105 800 105 906 152 c 0,35,36
 1019 202 1019 202 1084 285 c 0,37,38
 1171 394 1171 394 1171 567 c 2,39,-1
 1171 1511 l 1,40,-1
 1371 1511 l 1,41,-1
 1371 0 l 1,6,-1
EndSplineSet
Validated: 1
EndChar

StartChar: Udieresis
Encoding: 220 220 158
Width: 1571
GlyphClass: 2
Flags: W
HStem: -20 124<531.51 896.102> 0 21G<1171 1371> 1491 20G<200 400 1171 1371> 1660 255<529.16 705.84 871.129 1046.84>
VStem: 200 200<234.879 1511> 492 252<1699.16 1875.84> 833 252<1699.22 1876.9> 1171 200<0 178 351.375 1511>
LayerCount: 2
Fore
SplineSet
833 1788 m 0,0,1
 833 1840 833 1840 870 1877 c 1,2,3
 905 1915 905 1915 959 1915 c 0,4,5
 1011 1915 1011 1915 1048 1878 c 0,6,7
 1083 1843 1083 1843 1085 1789 c 1,8,9
 1085 1735 1085 1735 1048 1697 c 0,10,11
 1011 1660 1011 1660 959 1660 c 0,12,13
 906 1660 906 1660 870 1698 c 0,14,15
 833 1737 833 1737 833 1788 c 0,0,1
492 1788 m 0,16,17
 492 1840 492 1840 528 1877 c 0,18,19
 565 1915 565 1915 618 1915 c 0,20,21
 670 1915 670 1915 707 1878 c 0,22,23
 742 1843 742 1843 744 1789 c 1,24,25
 744 1735 744 1735 707 1697 c 0,26,27
 670 1660 670 1660 618 1660 c 0,28,29
 565 1660 565 1660 528 1698 c 0,30,31
 492 1735 492 1735 492 1788 c 0,16,17
1371 0 m 1,32,-1
 1171 0 l 1,33,-1
 1171 178 l 1,34,35
 1089 95 1089 95 954 36 c 0,36,37
 825 -20 825 -20 688 -20 c 2,38,39
 688 -20 688 -20 683 -20 c 0,40,41
 575 -20 575 -20 474 14 c 0,42,43
 386 43 386 43 323 102 c 0,44,45
 261 159 261 159 226 252 c 0,46,47
 201 320 201 320 200 407 c 1,48,-1
 200 1511 l 1,49,-1
 400 1511 l 1,50,-1
 400 409 l 1,51,52
 402 315 402 315 431 257 c 0,53,54
 468 185 468 185 538 144 c 0,55,56
 607 104 607 104 700 104 c 2,57,58
 700 104 700 104 712 104 c 0,59,60
 800 105 800 105 906 152 c 0,61,62
 1019 202 1019 202 1084 285 c 0,63,64
 1171 394 1171 394 1171 567 c 2,65,-1
 1171 1511 l 1,66,-1
 1371 1511 l 1,67,-1
 1371 0 l 1,32,-1
EndSplineSet
Validated: 1
EndChar

StartChar: Yacute
Encoding: 221 221 159
Width: 1372
GlyphClass: 2
Flags: W
HStem: 0 21G<573 773> 1491 20G<5 220.351 1185.35 1367>
VStem: 5 205<1306 1511> 573 200<0 416> 1196 171<1340 1511>
DStem2: 210 1511 5 1511 0.460459 -0.887681<0 1057.32> 613 1706 720 1600 0.709492 0.704714<1.21593 418.407> 696 572 773 416 0.476826 0.878998<0 1063.79>
LayerCount: 2
Fore
SplineSet
720 1600 m 1,0,-1
 613 1706 l 1,1,-1
 910 2001 l 1,2,-1
 1015 1895 l 1,3,-1
 720 1600 l 1,0,-1
573 0 m 1,4,-1
 573 416 l 1,5,-1
 5 1511 l 1,6,-1
 210 1511 l 1,7,-1
 696 572 l 1,8,-1
 1196 1511 l 1,9,-1
 1367 1511 l 1,10,-1
 773 416 l 1,11,-1
 773 0 l 1,12,-1
 573 0 l 1,4,-1
EndSplineSet
Validated: 1
EndChar

StartChar: Thorn
Encoding: 222 222 160
Width: 1450
GlyphClass: 2
Flags: W
HStem: 0 21G<200 400> 118 119<549.415 861.791> 1185 124<654.257 989.643> 1491 20G<200 400>
VStem: 200 200<0 925.496 1110 1511> 1151 199<548.775 1009.3>
LayerCount: 2
Fore
SplineSet
200 0 m 1,0,-1
 200 1511 l 1,1,-1
 400 1511 l 1,2,-1
 400 1110 l 1,3,4
 491 1206 491 1206 598 1253 c 0,5,6
 727 1309 727 1309 849 1309 c 2,7,-1
 853 1309 l 1,8,9
 977 1308 977 1308 1062 1266 c 0,10,11
 1163 1217 1163 1217 1224 1151 c 1,12,13
 1288 1080 1288 1080 1317 1002 c 0,14,15
 1344 932 1344 932 1349 823 c 0,16,17
 1350 802 1350 802 1350 768 c 0,18,19
 1350 715 1350 715 1339 657 c 0,20,21
 1312 523 1312 523 1216 389 c 0,22,23
 1121 257 1121 257 959 176 c 0,24,25
 844 118 844 118 728 118 c 0,26,27
 714 118 714 118 701 119 c 0,28,29
 542 134 542 134 468 232 c 1,30,31
 453 254 453 254 448 277 c 1,32,33
 470 265 470 265 485 259 c 1,34,35
 552 237 552 237 637 237 c 0,36,37
 641 237 641 237 646 237 c 0,38,39
 660 236 660 236 701 240 c 0,40,41
 791 249 791 249 868 284 c 0,42,43
 1001 344 1001 344 1078 475 c 0,44,45
 1125 554 1125 554 1145 673 c 0,46,47
 1151 709 1151 709 1151 759 c 0,48,49
 1151 786 1151 786 1149 825 c 0,50,51
 1144 920 1144 920 1111 1000 c 256,52,53
 1078 1080 1078 1080 995 1137 c 0,54,55
 926 1185 926 1185 832 1185 c 2,56,-1
 824 1185 l 2,57,58
 733 1185 733 1185 649 1138 c 0,59,60
 544 1080 544 1080 487 1004 c 1,61,62
 400 865 400 865 400 722 c 2,63,-1
 400 0 l 1,64,-1
 200 0 l 1,0,-1
EndSplineSet
Validated: 1
EndChar

StartChar: germandbls
Encoding: 223 223 161
Width: 1452
GlyphClass: 2
Flags: W
HStem: -20 118<542.428 864.964> 0 21G<200 400> 883 31<528.906 574.023> 883 10<505.059 525.131> 927 119<935 1012.28> 1409 121<556.078 811.741>
VStem: 200 200<0 1181.56> 863 187<1131.11 1371.8> 1150 202<389.935 775.851>
LayerCount: 2
Fore
SplineSet
200 0 m 1,0,-1
 200 962 l 2,1,2
 200 1074 200 1074 236 1162 c 1,3,4
 277 1268 277 1268 337 1338 c 0,5,6
 417 1432 417 1432 500 1472 c 0,7,8
 618 1530 618 1530 727 1530 c 2,9,-1
 731 1530 l 1,10,11
 835 1529 835 1529 910 1487 c 0,12,13
 994 1441 994 1441 1027 1376 c 0,14,15
 1050 1329 1050 1329 1050 1278 c 0,16,17
 1050 1231 1050 1231 1030 1181 c 0,18,19
 1000 1104 1000 1104 935 1046 c 1,20,21
 938 1046 938 1046 940 1046 c 0,22,23
 1006 1046 1006 1046 1062 1027 c 0,24,25
 1169 991 1169 991 1242 912 c 1,26,27
 1307 840 1307 840 1329 764 c 0,28,29
 1352 683 1352 683 1352 617 c 2,30,-1
 1352 612 l 2,31,32
 1352 539 1352 539 1326 444 c 0,33,34
 1292 319 1292 319 1200 207 c 0,35,36
 1115 104 1115 104 964 34 c 0,37,38
 848 -20 848 -20 703 -20 c 2,39,-1
 698 -20 l 2,40,41
 567 -20 567 -20 474 82 c 0,42,43
 453 105 453 105 449 123 c 1,44,45
 458 118 458 118 494 110 c 0,46,47
 542 98 542 98 632 98 c 2,48,-1
 637 98 l 2,49,50
 668 98 668 98 701 101 c 0,51,52
 789 108 789 108 868 143 c 0,53,54
 1001 203 1001 203 1078 329 c 0,55,56
 1121 399 1121 399 1140 497 c 0,57,58
 1150 546 1150 546 1150 591 c 0,59,60
 1150 611 1150 611 1148 628 c 0,61,62
 1141 700 1141 700 1114 759 c 0,63,64
 1077 843 1077 843 1008 886 c 0,65,66
 944 927 944 927 851 927 c 2,67,-1
 845 927 l 2,68,69
 802 927 802 927 722 918 c 0,70,71
 665 911 665 911 568 895 c 2,72,-1
 556 893 l 2,73,74
 538 890 538 890 504 883 c 1,75,76
 508 887 508 887 551 914 c 0,77,78
 585 935 585 935 700 1011 c 0,79,80
 762 1052 762 1052 812 1117 c 0,81,82
 863 1184 863 1184 863 1272 c 0,83,84
 863 1338 863 1338 813 1377 c 0,85,86
 773 1409 773 1409 695 1409 c 0,87,88
 686 1409 686 1409 676 1408 c 0,89,90
 593 1401 593 1401 526 1342 c 0,91,92
 478 1300 478 1300 446 1248 c 0,93,94
 400 1173 400 1173 400 1079 c 2,95,-1
 400 0 l 1,96,-1
 200 0 l 1,0,-1
EndSplineSet
Validated: 1
EndChar

StartChar: agrave
Encoding: 224 224 162
Width: 1297
GlyphClass: 2
Flags: W
HStem: -20 124<457.354 746.558> 0 21G<897 1097> 985 135<549.391 841.007>
VStem: 100 199<269.586 708.035> 897 200<0 920.899>
DStem2: 559 1576 454 1470 0.709492 -0.704714<0.203052 417.394>
LayerCount: 2
Fore
SplineSet
749 1175 m 1,0,-1
 454 1470 l 1,1,-1
 559 1576 l 1,2,-1
 856 1281 l 1,3,-1
 749 1175 l 1,0,-1
1097 0 m 1,4,-1
 897 0 l 1,5,-1
 897 819 l 1,6,-1
 897 822 l 1,7,8
 892 887 892 887 860 922 c 0,9,10
 813 975 813 975 741 983 c 0,11,12
 726 985 726 985 710 985 c 0,13,14
 647 985 647 985 582 957 c 0,15,16
 448 899 448 899 372 776 c 0,17,18
 323 698 323 698 305 589 c 0,19,20
 299 554 299 554 299 507 c 0,21,22
 299 481 299 481 301 445 c 0,23,24
 306 355 306 355 339 279 c 256,25,26
 372 203 372 203 455 149 c 0,27,28
 525 104 525 104 612 104 c 2,29,-1
 626 104 l 2,30,31
 686 104 686 104 739 142 c 0,32,33
 785 175 785 175 816 225 c 0,34,35
 828 244 828 244 843 282 c 1,36,37
 849 271 849 271 849 227 c 0,38,39
 848 137 848 137 789 65 c 1,40,41
 721 -20 721 -20 600 -20 c 2,42,-1
 597 -20 l 2,43,44
 480 -20 480 -20 388 23 c 0,45,46
 287 70 287 70 226 133 c 1,47,48
 163 201 163 201 133 276 c 0,49,50
 106 342 106 342 101 446 c 0,51,52
 100 467 100 467 100 487 c 0,53,54
 100 550 100 550 111 605 c 0,55,56
 137 731 137 731 234 861 c 1,57,58
 326 987 326 987 491 1066 c 0,59,60
 604 1120 604 1120 747 1120 c 0,61,62
 871 1120 871 1120 973 1037 c 0,63,64
 1097 936 1097 936 1097 751 c 2,65,-1
 1097 0 l 1,4,-1
EndSplineSet
Validated: 1
EndChar

StartChar: aacute
Encoding: 225 225 163
Width: 1297
GlyphClass: 2
Flags: W
HStem: -20 124<457.354 746.558> 0 21G<897 1097> 985 135<549.391 841.007>
VStem: 100 199<269.586 708.035> 897 200<0 920.899>
DStem2: 641 1281 748 1175 0.709492 0.704714<1.21593 418.407>
LayerCount: 2
Fore
SplineSet
748 1175 m 1,0,-1
 641 1281 l 1,1,-1
 938 1576 l 1,2,-1
 1043 1470 l 1,3,-1
 748 1175 l 1,0,-1
1097 0 m 1,4,-1
 897 0 l 1,5,-1
 897 819 l 1,6,-1
 897 822 l 1,7,8
 892 887 892 887 860 922 c 0,9,10
 813 975 813 975 741 983 c 0,11,12
 726 985 726 985 710 985 c 0,13,14
 647 985 647 985 582 957 c 0,15,16
 448 899 448 899 372 776 c 0,17,18
 323 698 323 698 305 589 c 0,19,20
 299 554 299 554 299 507 c 0,21,22
 299 481 299 481 301 445 c 0,23,24
 306 355 306 355 339 279 c 256,25,26
 372 203 372 203 455 149 c 0,27,28
 525 104 525 104 612 104 c 2,29,-1
 626 104 l 2,30,31
 686 104 686 104 739 142 c 0,32,33
 785 175 785 175 816 225 c 0,34,35
 828 244 828 244 843 282 c 1,36,37
 849 271 849 271 849 227 c 0,38,39
 848 137 848 137 789 65 c 1,40,41
 721 -20 721 -20 600 -20 c 2,42,-1
 597 -20 l 2,43,44
 480 -20 480 -20 388 23 c 0,45,46
 287 70 287 70 226 133 c 1,47,48
 163 201 163 201 133 276 c 0,49,50
 106 342 106 342 101 446 c 0,51,52
 100 467 100 467 100 487 c 0,53,54
 100 550 100 550 111 605 c 0,55,56
 137 731 137 731 234 861 c 1,57,58
 326 987 326 987 491 1066 c 0,59,60
 604 1120 604 1120 747 1120 c 0,61,62
 871 1120 871 1120 973 1037 c 0,63,64
 1097 936 1097 936 1097 751 c 2,65,-1
 1097 0 l 1,4,-1
EndSplineSet
Validated: 1
EndChar

StartChar: acircumflex
Encoding: 226 226 164
Width: 1297
GlyphClass: 2
Flags: W
HStem: -20 124<457.354 746.558> 0 21G<897 1097> 985 135<549.391 841.007> 1364 212<646 858>
VStem: 100 199<269.586 708.035> 897 200<0 920.899>
DStem2: 457 1281 562 1175 0.707107 0.707107<0 267.286> 752 1576 752 1364 0.707107 -0.707107<149.907 417.193>
LayerCount: 2
Fore
SplineSet
457 1281 m 1,0,-1
 752 1576 l 1,1,-1
 1047 1281 l 1,2,-1
 942 1175 l 1,3,-1
 752 1364 l 1,4,-1
 562 1175 l 1,5,-1
 457 1281 l 1,0,-1
1097 0 m 1,6,-1
 897 0 l 1,7,-1
 897 819 l 1,8,-1
 897 822 l 1,9,10
 892 887 892 887 860 922 c 0,11,12
 813 975 813 975 741 983 c 0,13,14
 726 985 726 985 710 985 c 0,15,16
 647 985 647 985 582 957 c 0,17,18
 448 899 448 899 372 776 c 0,19,20
 323 698 323 698 305 589 c 0,21,22
 299 554 299 554 299 507 c 0,23,24
 299 481 299 481 301 445 c 0,25,26
 306 355 306 355 339 279 c 256,27,28
 372 203 372 203 455 149 c 0,29,30
 525 104 525 104 612 104 c 2,31,-1
 626 104 l 2,32,33
 686 104 686 104 739 142 c 0,34,35
 785 175 785 175 816 225 c 0,36,37
 828 244 828 244 843 282 c 1,38,39
 849 271 849 271 849 227 c 0,40,41
 848 137 848 137 789 65 c 1,42,43
 721 -20 721 -20 600 -20 c 2,44,-1
 597 -20 l 2,45,46
 480 -20 480 -20 388 23 c 0,47,48
 287 70 287 70 226 133 c 1,49,50
 163 201 163 201 133 276 c 0,51,52
 106 342 106 342 101 446 c 0,53,54
 100 467 100 467 100 487 c 0,55,56
 100 550 100 550 111 605 c 0,57,58
 137 731 137 731 234 861 c 1,59,60
 326 987 326 987 491 1066 c 0,61,62
 604 1120 604 1120 747 1120 c 0,63,64
 871 1120 871 1120 973 1037 c 0,65,66
 1097 936 1097 936 1097 751 c 2,67,-1
 1097 0 l 1,6,-1
EndSplineSet
Validated: 1
EndChar

StartChar: atilde
Encoding: 227 227 165
Width: 1297
GlyphClass: 2
Flags: W
HStem: -20 124<457.354 746.558> 0 21G<897 1097> 985 135<549.391 841.007>
VStem: 100 199<269.586 708.035> 897 200<0 920.899>
LayerCount: 2
Fore
SplineSet
563 1199 m 1,0,-1
 440 1278 l 1,1,-1
 449 1308 l 1,2,3
 484 1429 484 1429 594 1473 c 0,4,5
 619 1483 619 1483 645.5 1483 c 128,-1,6
 672 1483 672 1483 697 1474 c 0,7,8
 723 1465 723 1465 741 1448 c 2,9,-1
 847 1348 l 2,10,11
 869 1328 869 1328 885.5 1344.5 c 128,-1,12
 902 1361 902 1361 914 1442 c 1,13,-1
 920 1486 l 1,14,-1
 1045 1403 l 1,15,-1
 1040 1374 l 1,16,17
 1015 1249 1015 1249 930 1210 c 0,18,19
 892 1193 892 1193 859 1193 c 2,20,-1
 857 1193 l 2,21,22
 795 1193 795 1193 749 1228 c 1,23,-1
 654 1326 l 2,24,25
 636 1345 636 1345 618 1334 c 0,26,27
 579 1309 579 1309 569 1239 c 2,28,-1
 563 1199 l 1,0,-1
1097 0 m 1,29,-1
 897 0 l 1,30,-1
 897 819 l 1,31,-1
 897 822 l 1,32,33
 892 887 892 887 860 922 c 0,34,35
 813 975 813 975 741 983 c 0,36,37
 726 985 726 985 710 985 c 0,38,39
 647 985 647 985 582 957 c 0,40,41
 448 899 448 899 372 776 c 0,42,43
 323 698 323 698 305 589 c 0,44,45
 299 554 299 554 299 507 c 0,46,47
 299 481 299 481 301 445 c 0,48,49
 306 355 306 355 339 279 c 256,50,51
 372 203 372 203 455 149 c 0,52,53
 525 104 525 104 612 104 c 2,54,-1
 626 104 l 2,55,56
 686 104 686 104 739 142 c 0,57,58
 785 175 785 175 816 225 c 0,59,60
 828 244 828 244 843 282 c 1,61,62
 849 271 849 271 849 227 c 0,63,64
 848 137 848 137 789 65 c 1,65,66
 721 -20 721 -20 600 -20 c 2,67,-1
 597 -20 l 2,68,69
 480 -20 480 -20 388 23 c 0,70,71
 287 70 287 70 226 133 c 1,72,73
 163 201 163 201 133 276 c 0,74,75
 106 342 106 342 101 446 c 0,76,77
 100 467 100 467 100 487 c 0,78,79
 100 550 100 550 111 605 c 0,80,81
 137 731 137 731 234 861 c 1,82,83
 326 987 326 987 491 1066 c 0,84,85
 604 1120 604 1120 747 1120 c 0,86,87
 871 1120 871 1120 973 1037 c 0,88,89
 1097 936 1097 936 1097 751 c 2,90,-1
 1097 0 l 1,29,-1
EndSplineSet
Validated: 1
EndChar

StartChar: adieresis
Encoding: 228 228 166
Width: 1297
GlyphClass: 2
Flags: W
HStem: -20 124<457.354 746.558> 0 21G<897 1097> 985 135<549.391 841.007> 1276 255<486.16 662.84 828.129 1003.84>
VStem: 100 199<269.586 708.035> 449 252<1315.16 1491.84> 790 252<1315.22 1492.9> 897 200<0 920.899>
LayerCount: 2
Fore
SplineSet
790 1404 m 0,0,1
 790 1456 790 1456 827 1493 c 1,2,3
 862 1531 862 1531 916 1531 c 0,4,5
 968 1531 968 1531 1005 1494 c 0,6,7
 1040 1459 1040 1459 1042 1405 c 1,8,9
 1042 1351 1042 1351 1005 1313 c 0,10,11
 968 1276 968 1276 916 1276 c 0,12,13
 863 1276 863 1276 827 1314 c 0,14,15
 790 1353 790 1353 790 1404 c 0,0,1
449 1404 m 0,16,17
 449 1456 449 1456 485 1493 c 0,18,19
 522 1531 522 1531 575 1531 c 0,20,21
 627 1531 627 1531 664 1494 c 0,22,23
 699 1459 699 1459 701 1405 c 1,24,25
 701 1351 701 1351 664 1313 c 0,26,27
 627 1276 627 1276 575 1276 c 0,28,29
 522 1276 522 1276 485 1314 c 0,30,31
 449 1351 449 1351 449 1404 c 0,16,17
1097 0 m 1,32,-1
 897 0 l 1,33,-1
 897 819 l 1,34,-1
 897 822 l 1,35,36
 892 887 892 887 860 922 c 0,37,38
 813 975 813 975 741 983 c 0,39,40
 726 985 726 985 710 985 c 0,41,42
 647 985 647 985 582 957 c 0,43,44
 448 899 448 899 372 776 c 0,45,46
 323 698 323 698 305 589 c 0,47,48
 299 554 299 554 299 507 c 0,49,50
 299 481 299 481 301 445 c 0,51,52
 306 355 306 355 339 279 c 256,53,54
 372 203 372 203 455 149 c 0,55,56
 525 104 525 104 612 104 c 2,57,-1
 626 104 l 2,58,59
 686 104 686 104 739 142 c 0,60,61
 785 175 785 175 816 225 c 0,62,63
 828 244 828 244 843 282 c 1,64,65
 849 271 849 271 849 227 c 0,66,67
 848 137 848 137 789 65 c 1,68,69
 721 -20 721 -20 600 -20 c 2,70,-1
 597 -20 l 2,71,72
 480 -20 480 -20 388 23 c 0,73,74
 287 70 287 70 226 133 c 1,75,76
 163 201 163 201 133 276 c 0,77,78
 106 342 106 342 101 446 c 0,79,80
 100 467 100 467 100 487 c 0,81,82
 100 550 100 550 111 605 c 0,83,84
 137 731 137 731 234 861 c 1,85,86
 326 987 326 987 491 1066 c 0,87,88
 604 1120 604 1120 747 1120 c 0,89,90
 871 1120 871 1120 973 1037 c 0,91,92
 1097 936 1097 936 1097 751 c 2,93,-1
 1097 0 l 1,32,-1
EndSplineSet
Validated: 1
EndChar

StartChar: aring
Encoding: 229 229 167
Width: 1297
GlyphClass: 2
Flags: W
HStem: -20 124<457.354 746.558> 0 21G<897 1097> 985 135<549.391 841.007> 1175 114<705.383 819.494> 1434 117<727.66 838.908>
VStem: 100 199<269.586 708.035> 556 149<1291.06 1406.15> 839 149<1318.03 1432> 897 200<0 920.899>
LayerCount: 2
Fore
SplineSet
926 1243 m 0,0,1
 849 1175 849 1175 745 1175 c 2,2,-1
 743 1175 l 2,3,4
 680 1175 680 1175 635 1201 c 0,5,6
 556 1248 556 1248 556 1334 c 0,7,8
 556 1413 556 1413 622 1478 c 24,9,10
 697 1551 697 1551 798 1551 c 2,11,-1
 800 1551 l 2,12,13
 859 1551 859 1551 904 1525 c 0,14,15
 988 1476 988 1476 988 1388 c 0,16,17
 987 1295 987 1295 926 1243 c 0,0,1
762 1289 m 0,18,19
 804 1289 804 1289 820 1317 c 0,20,21
 839 1350 839 1350 839 1384 c 2,22,-1
 839 1386 l 2,23,24
 839 1434 839 1434 786 1434 c 0,25,26
 748 1434 748 1434 727 1407 c 0,27,28
 705 1380 705 1380 705 1339 c 2,29,-1
 705 1337 l 2,30,31
 705 1289 705 1289 762 1289 c 0,18,19
1097 0 m 1,32,-1
 897 0 l 1,33,-1
 897 819 l 1,34,-1
 897 822 l 1,35,36
 892 887 892 887 860 922 c 0,37,38
 813 975 813 975 741 983 c 0,39,40
 726 985 726 985 710 985 c 0,41,42
 647 985 647 985 582 957 c 0,43,44
 448 899 448 899 372 776 c 0,45,46
 323 698 323 698 305 589 c 0,47,48
 299 554 299 554 299 507 c 0,49,50
 299 481 299 481 301 445 c 0,51,52
 306 355 306 355 339 279 c 256,53,54
 372 203 372 203 455 149 c 0,55,56
 525 104 525 104 612 104 c 2,57,-1
 626 104 l 2,58,59
 686 104 686 104 739 142 c 0,60,61
 785 175 785 175 816 225 c 0,62,63
 828 244 828 244 843 282 c 1,64,65
 849 271 849 271 849 227 c 0,66,67
 848 137 848 137 789 65 c 1,68,69
 721 -20 721 -20 600 -20 c 2,70,-1
 597 -20 l 2,71,72
 480 -20 480 -20 388 23 c 0,73,74
 287 70 287 70 226 133 c 1,75,76
 163 201 163 201 133 276 c 0,77,78
 106 342 106 342 101 446 c 0,79,80
 100 467 100 467 100 487 c 0,81,82
 100 550 100 550 111 605 c 0,83,84
 137 731 137 731 234 861 c 1,85,86
 326 987 326 987 491 1066 c 0,87,88
 604 1120 604 1120 747 1120 c 0,89,90
 871 1120 871 1120 973 1037 c 0,91,92
 1097 936 1097 936 1097 751 c 2,93,-1
 1097 0 l 1,32,-1
EndSplineSet
Validated: 1
EndChar

StartChar: ae
Encoding: 230 230 168
Width: 1981
GlyphClass: 2
Flags: W
HStem: -20 124<457.354 746.558 1254.51 1568.13> 0 21G<897 1097> 487 150<1113 1661> 985 135<549.5 840.758 1335.99 1696.78>
VStem: 100 199<269.586 708.035> 897 200<0 73 269.213 487>
LayerCount: 2
Fore
SplineSet
1892 227 m 1,0,-1
 1877 209 l 2,1,2
 1792 107 1792 107 1652 37 c 0,3,4
 1538 -20 1538 -20 1409 -20 c 2,5,-1
 1396 -20 l 2,6,7
 1275 -20 1275 -20 1187 23 c 1,8,9
 1137 46 1137 46 1097 73 c 1,10,-1
 1097 0 l 1,11,-1
 897 0 l 1,12,-1
 897 819 l 1,13,-1
 897 822 l 1,14,15
 892 887 892 887 860 922 c 0,16,17
 815 973 815 973 741 983 c 0,18,19
 726 985 726 985 710 985 c 0,20,21
 647 985 647 985 582 957 c 0,22,23
 449 899 449 899 372 776 c 0,24,25
 323 698 323 698 305 589 c 0,26,27
 299 553 299 553 299 507 c 0,28,29
 299 481 299 481 301 445 c 0,30,31
 306 355 306 355 339 279 c 128,-1,32
 372 203 372 203 455 149 c 0,33,34
 525 104 525 104 612 104 c 2,35,-1
 626 104 l 2,36,37
 686 104 686 104 739 142 c 0,38,39
 784 175 784 175 816 225 c 0,40,41
 828 244 828 244 843 282 c 1,42,43
 849 271 849 271 849 227 c 0,44,45
 848 137 848 137 789 65 c 1,46,47
 721 -20 721 -20 600 -20 c 2,48,-1
 597 -20 l 2,49,50
 480 -20 480 -20 388 23 c 0,51,52
 287 70 287 70 226 133 c 1,53,54
 164 200 164 200 133 276 c 0,55,56
 106 343 106 343 101 446 c 0,57,58
 100 467 100 467 100 487 c 0,59,60
 100 550 100 550 111 605 c 0,61,62
 137 731 137 731 234 861 c 1,63,64
 326 987 326 987 491 1066 c 0,65,66
 604 1120 604 1120 747 1120 c 0,67,68
 872 1120 872 1120 973 1037 c 0,69,70
 1039 983 1039 983 1070 906 c 1,71,72
 1169 1016 1169 1016 1291 1066 c 0,73,74
 1423 1120 1423 1120 1542 1120 c 2,75,-1
 1546 1120 l 2,76,77
 1667 1120 1667 1120 1755 1078 c 1,78,79
 1828 1042 1828 1042 1877 1000 c 2,80,-1
 1901 980 l 1,81,-1
 1766 878 l 1,82,-1
 1750 895 l 1,83,84
 1728 921 1728 921 1688 948 c 0,85,86
 1619 996 1619 996 1525 996 c 2,87,-1
 1517 996 l 2,88,89
 1442 996 1442 996 1376 964 c 0,90,91
 1249 902 1249 902 1171 779 c 0,92,93
 1134 720 1134 720 1113 637 c 1,94,-1
 1661 637 l 1,95,-1
 1661 487 l 1,96,-1
 1098 487 l 1,97,98
 1099 459 1099 459 1100 442 c 0,99,100
 1106 349 1106 349 1138 277 c 0,101,102
 1175 193 1175 193 1253 149 c 0,103,104
 1334 103 1334 103 1415 103 c 2,105,-1
 1421 103 l 2,106,107
 1468 103 1468 103 1561 145 c 0,108,109
 1681 199 1681 199 1757 313 c 2,110,-1
 1773 337 l 1,111,-1
 1892 227 l 1,0,-1
EndSplineSet
Validated: 1
EndChar

StartChar: ccedilla
Encoding: 231 231 169
Width: 1182
GlyphClass: 2
Flags: W
HStem: -410 21G<547.716 588> 996 124<556.062 882.215>
VStem: 100 199<268.984 709.913> 532 185<-195.492 -16.782>
DStem2: 1078 1000 889 948 0.768221 -0.640184<-214.31 -7.81025>
LayerCount: 2
Fore
SplineSet
1093 227 m 1,0,-1
 1078 209 l 2,1,2
 991 104 991 104 853 37 c 0,3,4
 781 2 781 2 705 -12 c 1,5,6
 717 -53 717 -53 717 -95 c 0,7,8
 717 -216 717 -216 639 -328 c 0,9,10
 623 -351 623 -351 588 -392 c 1,11,-1
 571 -410 l 1,12,-1
 415 -276 l 1,13,-1
 456 -236 l 1,14,15
 532 -156 532 -156 532 -72 c 2,16,-1
 532 -69 l 2,17,18
 532 -41 532 -41 526 -16 c 1,19,20
 449 -7 449 -7 388 23 c 1,21,22
 287 70 287 70 226 133 c 1,23,24
 162 201 162 201 133 276 c 1,25,26
 106 343 106 343 101 446 c 0,27,28
 100 467 100 467 100 488 c 0,29,30
 100 551 100 551 111 605 c 0,31,32
 141 743 141 743 234 862 c 0,33,34
 348 1006 348 1006 492 1066 c 0,35,36
 621 1120 621 1120 743 1120 c 2,37,-1
 747 1120 l 2,38,39
 868 1120 868 1120 956 1078 c 1,40,41
 1029 1042 1029 1042 1078 1000 c 2,42,-1
 1102 980 l 1,43,-1
 967 879 l 1,44,-1
 952 895 l 2,45,46
 925 923 925 923 889 948 c 0,47,48
 820 996 820 996 726 996 c 2,49,-1
 718 996 l 2,50,51
 642 996 642 996 577 964 c 0,52,53
 450 901 450 901 372 777 c 0,54,55
 323 698 323 698 305 589 c 0,56,57
 299 555 299 555 299 507 c 0,58,59
 299 480 299 480 301 445 c 0,60,61
 306 352 306 352 339 279 c 0,62,63
 377 194 377 194 454 150 c 0,64,65
 536 103 536 103 616 103 c 2,66,-1
 622 103 l 2,67,68
 669 103 669 103 762 145 c 0,69,70
 882 199 882 199 958 313 c 2,71,-1
 974 337 l 1,72,-1
 1093 227 l 1,0,-1
EndSplineSet
Validated: 1
EndChar

StartChar: egrave
Encoding: 232 232 170
Width: 1182
GlyphClass: 2
Flags: W
HStem: -20 123<458.641 765.801> 487 150<314 862> 996 124<553.448 882.215>
VStem: 100 199<266.656 487>
DStem2: 559 1576 454 1470 0.709492 -0.704714<0.203052 417.394>
LayerCount: 2
Fore
SplineSet
749 1175 m 1,0,-1
 454 1470 l 1,1,-1
 559 1576 l 1,2,-1
 856 1281 l 1,3,-1
 749 1175 l 1,0,-1
1093 227 m 1,4,-1
 1078 209 l 2,5,6
 992 106 992 106 853 37 c 0,7,8
 740 -20 740 -20 610 -20 c 2,9,-1
 597 -20 l 2,10,11
 476 -20 476 -20 388 23 c 1,12,13
 287 70 287 70 226 133 c 1,14,15
 162 201 162 201 133 276 c 1,16,17
 106 343 106 343 101 446 c 0,18,19
 100 467 100 467 100 488 c 0,20,21
 100 551 100 551 111 605 c 0,22,23
 141 744 141 744 234 862 c 0,24,25
 348 1007 348 1007 492 1066 c 1,26,27
 621 1120 621 1120 743 1120 c 2,28,29
 743 1120 743 1120 747 1120 c 0,30,31
 868 1120 868 1120 956 1078 c 1,32,33
 1029 1042 1029 1042 1078 1000 c 2,34,-1
 1102 980 l 1,35,-1
 967 878 l 1,36,-1
 951 895 l 1,37,38
 929 921 929 921 889 948 c 0,39,40
 820 996 820 996 726 996 c 2,41,-1
 718 996 l 2,42,43
 642 996 642 996 577 964 c 0,44,45
 449 902 449 902 372 779 c 0,46,47
 335 721 335 721 314 637 c 1,48,-1
 862 637 l 1,49,-1
 862 487 l 1,50,-1
 299 487 l 1,51,52
 300 459 300 459 301 442 c 0,53,54
 307 349 307 349 339 277 c 0,55,56
 376 193 376 193 454 149 c 0,57,58
 535 103 535 103 616 103 c 2,59,-1
 622 103 l 2,60,61
 669 103 669 103 762 145 c 0,62,63
 884 200 884 200 958 313 c 1,64,-1
 974 337 l 1,65,-1
 1093 227 l 1,4,-1
EndSplineSet
Validated: 1
EndChar

